%TF.GenerationSoftware,KiCad,Pcbnew,9.0.7-9.0.7~ubuntu24.04.1*%
%TF.CreationDate,2026-02-02T00:49:15+01:00*%
%TF.ProjectId,HArem,48417265-6d2e-46b6-9963-61645f706362,rev?*%
%TF.SameCoordinates,Original*%
%TF.FileFunction,Soldermask,Top*%
%TF.FilePolarity,Negative*%
%FSLAX46Y46*%
G04 Gerber Fmt 4.6, Leading zero omitted, Abs format (unit mm)*
G04 Created by KiCad (PCBNEW 9.0.7-9.0.7~ubuntu24.04.1) date 2026-02-02 00:49:15*
%MOMM*%
%LPD*%
G01*
G04 APERTURE LIST*
G04 Aperture macros list*
%AMRoundRect*
0 Rectangle with rounded corners*
0 $1 Rounding radius*
0 $2 $3 $4 $5 $6 $7 $8 $9 X,Y pos of 4 corners*
0 Add a 4 corners polygon primitive as box body*
4,1,4,$2,$3,$4,$5,$6,$7,$8,$9,$2,$3,0*
0 Add four circle primitives for the rounded corners*
1,1,$1+$1,$2,$3*
1,1,$1+$1,$4,$5*
1,1,$1+$1,$6,$7*
1,1,$1+$1,$8,$9*
0 Add four rect primitives between the rounded corners*
20,1,$1+$1,$2,$3,$4,$5,0*
20,1,$1+$1,$4,$5,$6,$7,0*
20,1,$1+$1,$6,$7,$8,$9,0*
20,1,$1+$1,$8,$9,$2,$3,0*%
G04 Aperture macros list end*
%ADD10C,1.712000*%
%ADD11RoundRect,0.102000X-0.754000X-0.754000X0.754000X-0.754000X0.754000X0.754000X-0.754000X0.754000X0*%
%ADD12C,3.000000*%
%ADD13C,2.000000*%
%ADD14RoundRect,0.250000X-0.262500X-0.450000X0.262500X-0.450000X0.262500X0.450000X-0.262500X0.450000X0*%
%ADD15RoundRect,0.250000X0.262500X0.450000X-0.262500X0.450000X-0.262500X-0.450000X0.262500X-0.450000X0*%
%ADD16RoundRect,0.250000X-0.250000X-0.475000X0.250000X-0.475000X0.250000X0.475000X-0.250000X0.475000X0*%
%ADD17RoundRect,0.150000X-0.150000X0.587500X-0.150000X-0.587500X0.150000X-0.587500X0.150000X0.587500X0*%
%ADD18C,1.552000*%
%ADD19O,2.200000X1.600000*%
%ADD20C,2.100000*%
%ADD21R,2.000000X2.000000*%
%ADD22R,3.200000X2.000000*%
%ADD23RoundRect,0.102000X-0.654000X0.654000X-0.654000X-0.654000X0.654000X-0.654000X0.654000X0.654000X0*%
%ADD24C,1.512000*%
G04 APERTURE END LIST*
D10*
%TO.C,DS1*%
X118540000Y-90600000D03*
X116000000Y-90600000D03*
X113460000Y-90600000D03*
D11*
X110920000Y-90600000D03*
D12*
X130480000Y-121000000D03*
X130480000Y-91300000D03*
X98980000Y-121000000D03*
X98980000Y-91300000D03*
%TD*%
D13*
%TO.C,U2*%
X118995000Y-109635000D03*
X118995000Y-118555000D03*
X118995000Y-107095000D03*
X118995000Y-121095000D03*
X95995000Y-107095000D03*
X95995000Y-121095000D03*
%TD*%
D14*
%TO.C,R4*%
X154825000Y-103000000D03*
X153000000Y-103000000D03*
%TD*%
D15*
%TO.C,R3*%
X149087500Y-103000000D03*
X150912500Y-103000000D03*
%TD*%
%TO.C,R6*%
X136087500Y-120000000D03*
X137912500Y-120000000D03*
%TD*%
D16*
%TO.C,C2*%
X136050000Y-117000000D03*
X137950000Y-117000000D03*
%TD*%
D17*
%TO.C,Q1*%
X112050000Y-114937500D03*
X111100000Y-113062500D03*
X113000000Y-113062500D03*
%TD*%
D16*
%TO.C,C1*%
X136050000Y-105000000D03*
X137950000Y-105000000D03*
%TD*%
D18*
%TO.C,U1*%
X143120000Y-121620000D03*
X145660000Y-121620000D03*
X148200000Y-121620000D03*
X150740000Y-121620000D03*
X155820000Y-121620000D03*
X153280000Y-121620000D03*
X160900000Y-106380000D03*
X160900000Y-121620000D03*
X158360000Y-106380000D03*
X155820000Y-106380000D03*
X153280000Y-106380000D03*
X150740000Y-106380000D03*
X148200000Y-106380000D03*
X145660000Y-106380000D03*
X143120000Y-106380000D03*
X158360000Y-121620000D03*
%TD*%
D19*
%TO.C,SW1*%
X154500000Y-94000000D03*
D20*
X150000000Y-94000000D03*
D21*
X157500000Y-96500000D03*
D13*
X157500000Y-91500000D03*
X157500000Y-94000000D03*
D22*
X150000000Y-99600000D03*
X150000000Y-88400000D03*
D13*
X143000000Y-91500000D03*
X143000000Y-96500000D03*
%TD*%
D14*
%TO.C,R2*%
X136000000Y-111000000D03*
X137825000Y-111000000D03*
%TD*%
D15*
%TO.C,R1*%
X137912500Y-108000000D03*
X136087500Y-108000000D03*
%TD*%
D23*
%TO.C,J1*%
X98787500Y-100000000D03*
D24*
X98787500Y-102000000D03*
%TD*%
D14*
%TO.C,R5*%
X136087500Y-114000000D03*
X137912500Y-114000000D03*
%TD*%
M02*
