%TF.GenerationSoftware,KiCad,Pcbnew,9.0.7-9.0.7~ubuntu24.04.1*%
%TF.CreationDate,2026-02-02T00:49:15+01:00*%
%TF.ProjectId,HArem,48417265-6d2e-46b6-9963-61645f706362,rev?*%
%TF.SameCoordinates,Original*%
%TF.FileFunction,Legend,Top*%
%TF.FilePolarity,Positive*%
%FSLAX46Y46*%
G04 Gerber Fmt 4.6, Leading zero omitted, Abs format (unit mm)*
G04 Created by KiCad (PCBNEW 9.0.7-9.0.7~ubuntu24.04.1) date 2026-02-02 00:49:15*
%MOMM*%
%LPD*%
G01*
G04 APERTURE LIST*
%ADD10C,0.150000*%
%ADD11C,0.200000*%
%ADD12C,0.127000*%
%ADD13C,0.120000*%
G04 APERTURE END LIST*
D10*
X128765714Y-88454819D02*
X128765714Y-87454819D01*
X128765714Y-87454819D02*
X129003809Y-87454819D01*
X129003809Y-87454819D02*
X129146666Y-87502438D01*
X129146666Y-87502438D02*
X129241904Y-87597676D01*
X129241904Y-87597676D02*
X129289523Y-87692914D01*
X129289523Y-87692914D02*
X129337142Y-87883390D01*
X129337142Y-87883390D02*
X129337142Y-88026247D01*
X129337142Y-88026247D02*
X129289523Y-88216723D01*
X129289523Y-88216723D02*
X129241904Y-88311961D01*
X129241904Y-88311961D02*
X129146666Y-88407200D01*
X129146666Y-88407200D02*
X129003809Y-88454819D01*
X129003809Y-88454819D02*
X128765714Y-88454819D01*
X129718095Y-88407200D02*
X129860952Y-88454819D01*
X129860952Y-88454819D02*
X130099047Y-88454819D01*
X130099047Y-88454819D02*
X130194285Y-88407200D01*
X130194285Y-88407200D02*
X130241904Y-88359580D01*
X130241904Y-88359580D02*
X130289523Y-88264342D01*
X130289523Y-88264342D02*
X130289523Y-88169104D01*
X130289523Y-88169104D02*
X130241904Y-88073866D01*
X130241904Y-88073866D02*
X130194285Y-88026247D01*
X130194285Y-88026247D02*
X130099047Y-87978628D01*
X130099047Y-87978628D02*
X129908571Y-87931009D01*
X129908571Y-87931009D02*
X129813333Y-87883390D01*
X129813333Y-87883390D02*
X129765714Y-87835771D01*
X129765714Y-87835771D02*
X129718095Y-87740533D01*
X129718095Y-87740533D02*
X129718095Y-87645295D01*
X129718095Y-87645295D02*
X129765714Y-87550057D01*
X129765714Y-87550057D02*
X129813333Y-87502438D01*
X129813333Y-87502438D02*
X129908571Y-87454819D01*
X129908571Y-87454819D02*
X130146666Y-87454819D01*
X130146666Y-87454819D02*
X130289523Y-87502438D01*
X131241904Y-88454819D02*
X130670476Y-88454819D01*
X130956190Y-88454819D02*
X130956190Y-87454819D01*
X130956190Y-87454819D02*
X130860952Y-87597676D01*
X130860952Y-87597676D02*
X130765714Y-87692914D01*
X130765714Y-87692914D02*
X130670476Y-87740533D01*
X156745833Y-103454819D02*
X156412500Y-102978628D01*
X156174405Y-103454819D02*
X156174405Y-102454819D01*
X156174405Y-102454819D02*
X156555357Y-102454819D01*
X156555357Y-102454819D02*
X156650595Y-102502438D01*
X156650595Y-102502438D02*
X156698214Y-102550057D01*
X156698214Y-102550057D02*
X156745833Y-102645295D01*
X156745833Y-102645295D02*
X156745833Y-102788152D01*
X156745833Y-102788152D02*
X156698214Y-102883390D01*
X156698214Y-102883390D02*
X156650595Y-102931009D01*
X156650595Y-102931009D02*
X156555357Y-102978628D01*
X156555357Y-102978628D02*
X156174405Y-102978628D01*
X157602976Y-102788152D02*
X157602976Y-103454819D01*
X157364881Y-102407200D02*
X157126786Y-103121485D01*
X157126786Y-103121485D02*
X157745833Y-103121485D01*
X146833333Y-103454819D02*
X146500000Y-102978628D01*
X146261905Y-103454819D02*
X146261905Y-102454819D01*
X146261905Y-102454819D02*
X146642857Y-102454819D01*
X146642857Y-102454819D02*
X146738095Y-102502438D01*
X146738095Y-102502438D02*
X146785714Y-102550057D01*
X146785714Y-102550057D02*
X146833333Y-102645295D01*
X146833333Y-102645295D02*
X146833333Y-102788152D01*
X146833333Y-102788152D02*
X146785714Y-102883390D01*
X146785714Y-102883390D02*
X146738095Y-102931009D01*
X146738095Y-102931009D02*
X146642857Y-102978628D01*
X146642857Y-102978628D02*
X146261905Y-102978628D01*
X147166667Y-102454819D02*
X147785714Y-102454819D01*
X147785714Y-102454819D02*
X147452381Y-102835771D01*
X147452381Y-102835771D02*
X147595238Y-102835771D01*
X147595238Y-102835771D02*
X147690476Y-102883390D01*
X147690476Y-102883390D02*
X147738095Y-102931009D01*
X147738095Y-102931009D02*
X147785714Y-103026247D01*
X147785714Y-103026247D02*
X147785714Y-103264342D01*
X147785714Y-103264342D02*
X147738095Y-103359580D01*
X147738095Y-103359580D02*
X147690476Y-103407200D01*
X147690476Y-103407200D02*
X147595238Y-103454819D01*
X147595238Y-103454819D02*
X147309524Y-103454819D01*
X147309524Y-103454819D02*
X147214286Y-103407200D01*
X147214286Y-103407200D02*
X147166667Y-103359580D01*
X133833333Y-120454819D02*
X133500000Y-119978628D01*
X133261905Y-120454819D02*
X133261905Y-119454819D01*
X133261905Y-119454819D02*
X133642857Y-119454819D01*
X133642857Y-119454819D02*
X133738095Y-119502438D01*
X133738095Y-119502438D02*
X133785714Y-119550057D01*
X133785714Y-119550057D02*
X133833333Y-119645295D01*
X133833333Y-119645295D02*
X133833333Y-119788152D01*
X133833333Y-119788152D02*
X133785714Y-119883390D01*
X133785714Y-119883390D02*
X133738095Y-119931009D01*
X133738095Y-119931009D02*
X133642857Y-119978628D01*
X133642857Y-119978628D02*
X133261905Y-119978628D01*
X134690476Y-119454819D02*
X134500000Y-119454819D01*
X134500000Y-119454819D02*
X134404762Y-119502438D01*
X134404762Y-119502438D02*
X134357143Y-119550057D01*
X134357143Y-119550057D02*
X134261905Y-119692914D01*
X134261905Y-119692914D02*
X134214286Y-119883390D01*
X134214286Y-119883390D02*
X134214286Y-120264342D01*
X134214286Y-120264342D02*
X134261905Y-120359580D01*
X134261905Y-120359580D02*
X134309524Y-120407200D01*
X134309524Y-120407200D02*
X134404762Y-120454819D01*
X134404762Y-120454819D02*
X134595238Y-120454819D01*
X134595238Y-120454819D02*
X134690476Y-120407200D01*
X134690476Y-120407200D02*
X134738095Y-120359580D01*
X134738095Y-120359580D02*
X134785714Y-120264342D01*
X134785714Y-120264342D02*
X134785714Y-120026247D01*
X134785714Y-120026247D02*
X134738095Y-119931009D01*
X134738095Y-119931009D02*
X134690476Y-119883390D01*
X134690476Y-119883390D02*
X134595238Y-119835771D01*
X134595238Y-119835771D02*
X134404762Y-119835771D01*
X134404762Y-119835771D02*
X134309524Y-119883390D01*
X134309524Y-119883390D02*
X134261905Y-119931009D01*
X134261905Y-119931009D02*
X134214286Y-120026247D01*
X133833333Y-117359580D02*
X133785714Y-117407200D01*
X133785714Y-117407200D02*
X133642857Y-117454819D01*
X133642857Y-117454819D02*
X133547619Y-117454819D01*
X133547619Y-117454819D02*
X133404762Y-117407200D01*
X133404762Y-117407200D02*
X133309524Y-117311961D01*
X133309524Y-117311961D02*
X133261905Y-117216723D01*
X133261905Y-117216723D02*
X133214286Y-117026247D01*
X133214286Y-117026247D02*
X133214286Y-116883390D01*
X133214286Y-116883390D02*
X133261905Y-116692914D01*
X133261905Y-116692914D02*
X133309524Y-116597676D01*
X133309524Y-116597676D02*
X133404762Y-116502438D01*
X133404762Y-116502438D02*
X133547619Y-116454819D01*
X133547619Y-116454819D02*
X133642857Y-116454819D01*
X133642857Y-116454819D02*
X133785714Y-116502438D01*
X133785714Y-116502438D02*
X133833333Y-116550057D01*
X134214286Y-116550057D02*
X134261905Y-116502438D01*
X134261905Y-116502438D02*
X134357143Y-116454819D01*
X134357143Y-116454819D02*
X134595238Y-116454819D01*
X134595238Y-116454819D02*
X134690476Y-116502438D01*
X134690476Y-116502438D02*
X134738095Y-116550057D01*
X134738095Y-116550057D02*
X134785714Y-116645295D01*
X134785714Y-116645295D02*
X134785714Y-116740533D01*
X134785714Y-116740533D02*
X134738095Y-116883390D01*
X134738095Y-116883390D02*
X134166667Y-117454819D01*
X134166667Y-117454819D02*
X134785714Y-117454819D01*
X115000057Y-114095238D02*
X114952438Y-114190476D01*
X114952438Y-114190476D02*
X114857200Y-114285714D01*
X114857200Y-114285714D02*
X114714342Y-114428571D01*
X114714342Y-114428571D02*
X114666723Y-114523809D01*
X114666723Y-114523809D02*
X114666723Y-114619047D01*
X114904819Y-114571428D02*
X114857200Y-114666666D01*
X114857200Y-114666666D02*
X114761961Y-114761904D01*
X114761961Y-114761904D02*
X114571485Y-114809523D01*
X114571485Y-114809523D02*
X114238152Y-114809523D01*
X114238152Y-114809523D02*
X114047676Y-114761904D01*
X114047676Y-114761904D02*
X113952438Y-114666666D01*
X113952438Y-114666666D02*
X113904819Y-114571428D01*
X113904819Y-114571428D02*
X113904819Y-114380952D01*
X113904819Y-114380952D02*
X113952438Y-114285714D01*
X113952438Y-114285714D02*
X114047676Y-114190476D01*
X114047676Y-114190476D02*
X114238152Y-114142857D01*
X114238152Y-114142857D02*
X114571485Y-114142857D01*
X114571485Y-114142857D02*
X114761961Y-114190476D01*
X114761961Y-114190476D02*
X114857200Y-114285714D01*
X114857200Y-114285714D02*
X114904819Y-114380952D01*
X114904819Y-114380952D02*
X114904819Y-114571428D01*
X114904819Y-113190476D02*
X114904819Y-113761904D01*
X114904819Y-113476190D02*
X113904819Y-113476190D01*
X113904819Y-113476190D02*
X114047676Y-113571428D01*
X114047676Y-113571428D02*
X114142914Y-113666666D01*
X114142914Y-113666666D02*
X114190533Y-113761904D01*
X133833333Y-105359580D02*
X133785714Y-105407200D01*
X133785714Y-105407200D02*
X133642857Y-105454819D01*
X133642857Y-105454819D02*
X133547619Y-105454819D01*
X133547619Y-105454819D02*
X133404762Y-105407200D01*
X133404762Y-105407200D02*
X133309524Y-105311961D01*
X133309524Y-105311961D02*
X133261905Y-105216723D01*
X133261905Y-105216723D02*
X133214286Y-105026247D01*
X133214286Y-105026247D02*
X133214286Y-104883390D01*
X133214286Y-104883390D02*
X133261905Y-104692914D01*
X133261905Y-104692914D02*
X133309524Y-104597676D01*
X133309524Y-104597676D02*
X133404762Y-104502438D01*
X133404762Y-104502438D02*
X133547619Y-104454819D01*
X133547619Y-104454819D02*
X133642857Y-104454819D01*
X133642857Y-104454819D02*
X133785714Y-104502438D01*
X133785714Y-104502438D02*
X133833333Y-104550057D01*
X134785714Y-105454819D02*
X134214286Y-105454819D01*
X134500000Y-105454819D02*
X134500000Y-104454819D01*
X134500000Y-104454819D02*
X134404762Y-104597676D01*
X134404762Y-104597676D02*
X134309524Y-104692914D01*
X134309524Y-104692914D02*
X134214286Y-104740533D01*
X162454819Y-107761904D02*
X163264342Y-107761904D01*
X163264342Y-107761904D02*
X163359580Y-107714285D01*
X163359580Y-107714285D02*
X163407200Y-107666666D01*
X163407200Y-107666666D02*
X163454819Y-107571428D01*
X163454819Y-107571428D02*
X163454819Y-107380952D01*
X163454819Y-107380952D02*
X163407200Y-107285714D01*
X163407200Y-107285714D02*
X163359580Y-107238095D01*
X163359580Y-107238095D02*
X163264342Y-107190476D01*
X163264342Y-107190476D02*
X162454819Y-107190476D01*
X163454819Y-106190476D02*
X163454819Y-106761904D01*
X163454819Y-106476190D02*
X162454819Y-106476190D01*
X162454819Y-106476190D02*
X162597676Y-106571428D01*
X162597676Y-106571428D02*
X162692914Y-106666666D01*
X162692914Y-106666666D02*
X162740533Y-106761904D01*
X143916667Y-101407200D02*
X144059524Y-101454819D01*
X144059524Y-101454819D02*
X144297619Y-101454819D01*
X144297619Y-101454819D02*
X144392857Y-101407200D01*
X144392857Y-101407200D02*
X144440476Y-101359580D01*
X144440476Y-101359580D02*
X144488095Y-101264342D01*
X144488095Y-101264342D02*
X144488095Y-101169104D01*
X144488095Y-101169104D02*
X144440476Y-101073866D01*
X144440476Y-101073866D02*
X144392857Y-101026247D01*
X144392857Y-101026247D02*
X144297619Y-100978628D01*
X144297619Y-100978628D02*
X144107143Y-100931009D01*
X144107143Y-100931009D02*
X144011905Y-100883390D01*
X144011905Y-100883390D02*
X143964286Y-100835771D01*
X143964286Y-100835771D02*
X143916667Y-100740533D01*
X143916667Y-100740533D02*
X143916667Y-100645295D01*
X143916667Y-100645295D02*
X143964286Y-100550057D01*
X143964286Y-100550057D02*
X144011905Y-100502438D01*
X144011905Y-100502438D02*
X144107143Y-100454819D01*
X144107143Y-100454819D02*
X144345238Y-100454819D01*
X144345238Y-100454819D02*
X144488095Y-100502438D01*
X144821429Y-100454819D02*
X145059524Y-101454819D01*
X145059524Y-101454819D02*
X145250000Y-100740533D01*
X145250000Y-100740533D02*
X145440476Y-101454819D01*
X145440476Y-101454819D02*
X145678572Y-100454819D01*
X146583333Y-101454819D02*
X146011905Y-101454819D01*
X146297619Y-101454819D02*
X146297619Y-100454819D01*
X146297619Y-100454819D02*
X146202381Y-100597676D01*
X146202381Y-100597676D02*
X146107143Y-100692914D01*
X146107143Y-100692914D02*
X146011905Y-100740533D01*
X133833333Y-111454819D02*
X133500000Y-110978628D01*
X133261905Y-111454819D02*
X133261905Y-110454819D01*
X133261905Y-110454819D02*
X133642857Y-110454819D01*
X133642857Y-110454819D02*
X133738095Y-110502438D01*
X133738095Y-110502438D02*
X133785714Y-110550057D01*
X133785714Y-110550057D02*
X133833333Y-110645295D01*
X133833333Y-110645295D02*
X133833333Y-110788152D01*
X133833333Y-110788152D02*
X133785714Y-110883390D01*
X133785714Y-110883390D02*
X133738095Y-110931009D01*
X133738095Y-110931009D02*
X133642857Y-110978628D01*
X133642857Y-110978628D02*
X133261905Y-110978628D01*
X134214286Y-110550057D02*
X134261905Y-110502438D01*
X134261905Y-110502438D02*
X134357143Y-110454819D01*
X134357143Y-110454819D02*
X134595238Y-110454819D01*
X134595238Y-110454819D02*
X134690476Y-110502438D01*
X134690476Y-110502438D02*
X134738095Y-110550057D01*
X134738095Y-110550057D02*
X134785714Y-110645295D01*
X134785714Y-110645295D02*
X134785714Y-110740533D01*
X134785714Y-110740533D02*
X134738095Y-110883390D01*
X134738095Y-110883390D02*
X134166667Y-111454819D01*
X134166667Y-111454819D02*
X134785714Y-111454819D01*
X133833333Y-108454819D02*
X133500000Y-107978628D01*
X133261905Y-108454819D02*
X133261905Y-107454819D01*
X133261905Y-107454819D02*
X133642857Y-107454819D01*
X133642857Y-107454819D02*
X133738095Y-107502438D01*
X133738095Y-107502438D02*
X133785714Y-107550057D01*
X133785714Y-107550057D02*
X133833333Y-107645295D01*
X133833333Y-107645295D02*
X133833333Y-107788152D01*
X133833333Y-107788152D02*
X133785714Y-107883390D01*
X133785714Y-107883390D02*
X133738095Y-107931009D01*
X133738095Y-107931009D02*
X133642857Y-107978628D01*
X133642857Y-107978628D02*
X133261905Y-107978628D01*
X134785714Y-108454819D02*
X134214286Y-108454819D01*
X134500000Y-108454819D02*
X134500000Y-107454819D01*
X134500000Y-107454819D02*
X134404762Y-107597676D01*
X134404762Y-107597676D02*
X134309524Y-107692914D01*
X134309524Y-107692914D02*
X134214286Y-107740533D01*
X133833333Y-114454819D02*
X133500000Y-113978628D01*
X133261905Y-114454819D02*
X133261905Y-113454819D01*
X133261905Y-113454819D02*
X133642857Y-113454819D01*
X133642857Y-113454819D02*
X133738095Y-113502438D01*
X133738095Y-113502438D02*
X133785714Y-113550057D01*
X133785714Y-113550057D02*
X133833333Y-113645295D01*
X133833333Y-113645295D02*
X133833333Y-113788152D01*
X133833333Y-113788152D02*
X133785714Y-113883390D01*
X133785714Y-113883390D02*
X133738095Y-113931009D01*
X133738095Y-113931009D02*
X133642857Y-113978628D01*
X133642857Y-113978628D02*
X133261905Y-113978628D01*
X134738095Y-113454819D02*
X134261905Y-113454819D01*
X134261905Y-113454819D02*
X134214286Y-113931009D01*
X134214286Y-113931009D02*
X134261905Y-113883390D01*
X134261905Y-113883390D02*
X134357143Y-113835771D01*
X134357143Y-113835771D02*
X134595238Y-113835771D01*
X134595238Y-113835771D02*
X134690476Y-113883390D01*
X134690476Y-113883390D02*
X134738095Y-113931009D01*
X134738095Y-113931009D02*
X134785714Y-114026247D01*
X134785714Y-114026247D02*
X134785714Y-114264342D01*
X134785714Y-114264342D02*
X134738095Y-114359580D01*
X134738095Y-114359580D02*
X134690476Y-114407200D01*
X134690476Y-114407200D02*
X134595238Y-114454819D01*
X134595238Y-114454819D02*
X134357143Y-114454819D01*
X134357143Y-114454819D02*
X134261905Y-114407200D01*
X134261905Y-114407200D02*
X134214286Y-114359580D01*
D11*
%TO.C,DS1*%
X111020000Y-88750000D02*
G75*
G02*
X110820000Y-88750000I-100000J0D01*
G01*
X110820000Y-88750000D02*
G75*
G02*
X111020000Y-88750000I100000J0D01*
G01*
D12*
X132480000Y-123000000D02*
X96980000Y-123000000D01*
X132480000Y-89300000D02*
X132480000Y-123000000D01*
X96980000Y-123000000D02*
X96980000Y-89300000D01*
X96980000Y-89300000D02*
X132480000Y-89300000D01*
D13*
%TO.C,R4*%
X153685436Y-103735000D02*
X154139564Y-103735000D01*
X153685436Y-102265000D02*
X154139564Y-102265000D01*
%TO.C,R3*%
X150227064Y-102265000D02*
X149772936Y-102265000D01*
X150227064Y-103735000D02*
X149772936Y-103735000D01*
%TO.C,R6*%
X137227064Y-120735000D02*
X136772936Y-120735000D01*
X137227064Y-119265000D02*
X136772936Y-119265000D01*
%TO.C,C2*%
X136738748Y-116265000D02*
X137261252Y-116265000D01*
X136738748Y-117735000D02*
X137261252Y-117735000D01*
%TO.C,Q1*%
X112430000Y-112700000D02*
X112100000Y-112940000D01*
X112100000Y-112460000D01*
X112430000Y-112700000D01*
G36*
X112430000Y-112700000D02*
G01*
X112100000Y-112940000D01*
X112100000Y-112460000D01*
X112430000Y-112700000D01*
G37*
X113610000Y-113240000D02*
X113610000Y-114760000D01*
X113560000Y-113240000D02*
X113610000Y-113240000D01*
X111660000Y-113240000D02*
X112440000Y-113240000D01*
X110490000Y-113240000D02*
X110540000Y-113240000D01*
X113610000Y-114760000D02*
X112610000Y-114760000D01*
X111490000Y-114760000D02*
X110490000Y-114760000D01*
X110490000Y-114760000D02*
X110490000Y-113240000D01*
%TO.C,C1*%
X136738748Y-105735000D02*
X137261252Y-105735000D01*
X136738748Y-104265000D02*
X137261252Y-104265000D01*
D12*
%TO.C,U1*%
X139650000Y-105000000D02*
X162350000Y-105000000D01*
X139650000Y-123000000D02*
X139650000Y-105000000D01*
X139650000Y-123000000D02*
X162350000Y-123000000D01*
X162350000Y-109500000D02*
X162350000Y-105000000D01*
X162350000Y-123000000D02*
X162350000Y-118500000D01*
X163650000Y-109500000D02*
X162350000Y-109500000D01*
X163650000Y-118500000D02*
X162350000Y-118500000D01*
X163650000Y-118500000D02*
X163650000Y-109500000D01*
D13*
%TO.C,SW1*%
X157800000Y-98100000D02*
X157200000Y-98100000D01*
X157500000Y-97800000D02*
X157800000Y-98100000D01*
X157200000Y-98100000D02*
X157500000Y-97800000D01*
X156100000Y-99900000D02*
X156100000Y-88100000D01*
X152000000Y-99900000D02*
X156100000Y-99900000D01*
X152000000Y-88100000D02*
X156100000Y-88100000D01*
X148000000Y-99900000D02*
X143900000Y-99900000D01*
X143900000Y-99900000D02*
X143900000Y-97500000D01*
X143900000Y-95300000D02*
X143900000Y-92700000D01*
X143900000Y-90500000D02*
X143900000Y-88100000D01*
X143900000Y-88100000D02*
X148000000Y-88100000D01*
X153000000Y-94000000D02*
G75*
G02*
X147000000Y-94000000I-3000000J0D01*
G01*
X147000000Y-94000000D02*
G75*
G02*
X153000000Y-94000000I3000000J0D01*
G01*
%TO.C,R2*%
X136685436Y-110265000D02*
X137139564Y-110265000D01*
X136685436Y-111735000D02*
X137139564Y-111735000D01*
%TO.C,R1*%
X137227064Y-108735000D02*
X136772936Y-108735000D01*
X137227064Y-107265000D02*
X136772936Y-107265000D01*
%TO.C,R5*%
X136772936Y-113265000D02*
X137227064Y-113265000D01*
X136772936Y-114735000D02*
X137227064Y-114735000D01*
%TD*%
M02*
