M48
; DRILL file {KiCad 9.0.7-9.0.7~ubuntu24.04.1} date 2026-02-02T00:50:15+0100
; FORMAT={-:-/ absolute / metric / decimal}
; #@! TF.CreationDate,2026-02-02T00:50:15+01:00
; #@! TF.GenerationSoftware,Kicad,Pcbnew,9.0.7-9.0.7~ubuntu24.04.1
; #@! TF.FileFunction,Plated,1,2,PTH
FMAT,2
METRIC
; #@! TA.AperFunction,Plated,PTH,ViaDrill
T1C0.300
; #@! TA.AperFunction,Plated,PTH,ComponentDrill
T2C0.800
; #@! TA.AperFunction,Plated,PTH,ComponentDrill
T3C0.840
; #@! TA.AperFunction,Plated,PTH,ComponentDrill
T4C1.000
; #@! TA.AperFunction,Plated,PTH,ComponentDrill
T5C1.500
%
G90
G05
T1
X140.0Y-106.0
X141.0Y-119.0
X142.0Y-120.0
T2
X98.787Y-100.0
X98.787Y-102.0
T3
X143.12Y-106.38
X143.12Y-121.62
X145.66Y-106.38
X145.66Y-121.62
X148.2Y-106.38
X148.2Y-121.62
X150.74Y-106.38
X150.74Y-121.62
X153.28Y-106.38
X153.28Y-121.62
X155.82Y-106.38
X155.82Y-121.62
X158.36Y-106.38
X158.36Y-121.62
X160.9Y-106.38
X160.9Y-121.62
T4
X95.995Y-107.095
X95.995Y-121.095
X110.92Y-90.6
X113.46Y-90.6
X116.0Y-90.6
X118.54Y-90.6
X118.995Y-107.095
X118.995Y-109.635
X118.995Y-118.555
X118.995Y-121.095
X143.0Y-91.5
X143.0Y-96.5
X157.5Y-91.5
X157.5Y-94.0
X157.5Y-96.5
T5
G00X150.65Y-88.4
M15
G01X149.35Y-88.4
M16
G05
G00X150.65Y-99.6
M15
G01X149.35Y-99.6
M16
G05
M30
