%TF.GenerationSoftware,KiCad,Pcbnew,9.0.7-9.0.7~ubuntu24.04.1*%
%TF.CreationDate,2026-02-02T00:49:15+01:00*%
%TF.ProjectId,HArem,48417265-6d2e-46b6-9963-61645f706362,rev?*%
%TF.SameCoordinates,Original*%
%TF.FileFunction,Copper,L1,Top*%
%TF.FilePolarity,Positive*%
%FSLAX46Y46*%
G04 Gerber Fmt 4.6, Leading zero omitted, Abs format (unit mm)*
G04 Created by KiCad (PCBNEW 9.0.7-9.0.7~ubuntu24.04.1) date 2026-02-02 00:49:15*
%MOMM*%
%LPD*%
G01*
G04 APERTURE LIST*
G04 Aperture macros list*
%AMRoundRect*
0 Rectangle with rounded corners*
0 $1 Rounding radius*
0 $2 $3 $4 $5 $6 $7 $8 $9 X,Y pos of 4 corners*
0 Add a 4 corners polygon primitive as box body*
4,1,4,$2,$3,$4,$5,$6,$7,$8,$9,$2,$3,0*
0 Add four circle primitives for the rounded corners*
1,1,$1+$1,$2,$3*
1,1,$1+$1,$4,$5*
1,1,$1+$1,$6,$7*
1,1,$1+$1,$8,$9*
0 Add four rect primitives between the rounded corners*
20,1,$1+$1,$2,$3,$4,$5,0*
20,1,$1+$1,$4,$5,$6,$7,0*
20,1,$1+$1,$6,$7,$8,$9,0*
20,1,$1+$1,$8,$9,$2,$3,0*%
G04 Aperture macros list end*
%TA.AperFunction,ComponentPad*%
%ADD10C,1.508000*%
%TD*%
%TA.AperFunction,ComponentPad*%
%ADD11R,1.508000X1.508000*%
%TD*%
%TA.AperFunction,ComponentPad*%
%ADD12C,2.000000*%
%TD*%
%TA.AperFunction,SMDPad,CuDef*%
%ADD13RoundRect,0.250000X-0.262500X-0.450000X0.262500X-0.450000X0.262500X0.450000X-0.262500X0.450000X0*%
%TD*%
%TA.AperFunction,SMDPad,CuDef*%
%ADD14RoundRect,0.250000X0.262500X0.450000X-0.262500X0.450000X-0.262500X-0.450000X0.262500X-0.450000X0*%
%TD*%
%TA.AperFunction,SMDPad,CuDef*%
%ADD15RoundRect,0.250000X-0.250000X-0.475000X0.250000X-0.475000X0.250000X0.475000X-0.250000X0.475000X0*%
%TD*%
%TA.AperFunction,SMDPad,CuDef*%
%ADD16RoundRect,0.150000X-0.150000X0.587500X-0.150000X-0.587500X0.150000X-0.587500X0.150000X0.587500X0*%
%TD*%
%TA.AperFunction,ComponentPad*%
%ADD17C,1.348000*%
%TD*%
%TA.AperFunction,ComponentPad*%
%ADD18R,2.000000X2.000000*%
%TD*%
%TA.AperFunction,ComponentPad*%
%ADD19R,3.200000X2.000000*%
%TD*%
%TA.AperFunction,ComponentPad*%
%ADD20R,1.308000X1.308000*%
%TD*%
%TA.AperFunction,ComponentPad*%
%ADD21C,1.308000*%
%TD*%
%TA.AperFunction,ViaPad*%
%ADD22C,0.600000*%
%TD*%
%TA.AperFunction,Conductor*%
%ADD23C,0.500000*%
%TD*%
G04 APERTURE END LIST*
D10*
%TO.P,DS1,4,SDA*%
%TO.N,OLED_SDA*%
X118540000Y-90600000D03*
%TO.P,DS1,3,SCK*%
%TO.N,OLED_SCK*%
X116000000Y-90600000D03*
%TO.P,DS1,2,GND*%
%TO.N,GND*%
X113460000Y-90600000D03*
D11*
%TO.P,DS1,1,VDD*%
%TO.N,Net-(DS1-VDD)*%
X110920000Y-90600000D03*
%TD*%
D12*
%TO.P,U2,6,B-*%
%TO.N,Bat-*%
X118995000Y-109635000D03*
%TO.P,U2,5,B+*%
%TO.N,Bat+*%
X118995000Y-118555000D03*
%TO.P,U2,4,OUT-*%
%TO.N,GND*%
X118995000Y-107095000D03*
%TO.P,U2,3,OUT+*%
%TO.N,+5VD*%
X118995000Y-121095000D03*
%TO.P,U2,2,IN-*%
%TO.N,unconnected-(U2-IN--Pad2)*%
X95995000Y-107095000D03*
%TO.P,U2,1,IN+*%
%TO.N,unconnected-(U2-IN+-Pad1)*%
X95995000Y-121095000D03*
%TD*%
D13*
%TO.P,R4,2*%
%TO.N,Net-(R4-Pad2)*%
X154825000Y-103000000D03*
%TO.P,R4,1*%
%TO.N,ENC_A*%
X153000000Y-103000000D03*
%TD*%
D14*
%TO.P,R3,2*%
%TO.N,Net-(R3-Pad2)*%
X149087500Y-103000000D03*
%TO.P,R3,1*%
%TO.N,ENC_B*%
X150912500Y-103000000D03*
%TD*%
%TO.P,R6,2*%
%TO.N,ADC0*%
X136087500Y-120000000D03*
%TO.P,R6,1*%
%TO.N,GND*%
X137912500Y-120000000D03*
%TD*%
D15*
%TO.P,C2,1*%
%TO.N,ADC0*%
X136050000Y-117000000D03*
%TO.P,C2,2*%
%TO.N,GND*%
X137950000Y-117000000D03*
%TD*%
D16*
%TO.P,Q1,3,C*%
%TO.N,+5VD*%
X112050000Y-114937500D03*
%TO.P,Q1,2,E*%
%TO.N,Net-(DS1-VDD)*%
X111100000Y-113062500D03*
%TO.P,Q1,1,B*%
%TO.N,OLED_PWR*%
X113000000Y-113062500D03*
%TD*%
D15*
%TO.P,C1,1*%
%TO.N,Net-(C1-Pad1)*%
X136050000Y-105000000D03*
%TO.P,C1,2*%
%TO.N,GND*%
X137950000Y-105000000D03*
%TD*%
D17*
%TO.P,U1,0,GPIO0*%
%TO.N,ADC0*%
X143120000Y-121620000D03*
%TO.P,U1,1,GPIO1*%
%TO.N,OLED_PWR*%
X145660000Y-121620000D03*
%TO.P,U1,2,GPIO2*%
%TO.N,unconnected-(U1-GPIO2-Pad2)*%
X148200000Y-121620000D03*
%TO.P,U1,3,GPIO3*%
%TO.N,unconnected-(U1-GPIO3-Pad3)*%
X150740000Y-121620000D03*
%TO.P,U1,3.3,3V3*%
%TO.N,+3.3V*%
X155820000Y-121620000D03*
%TO.P,U1,4,GPIO4*%
%TO.N,ENC_PUSH_BUTTON*%
X153280000Y-121620000D03*
%TO.P,U1,5,GPIO5*%
%TO.N,OLED_SDA*%
X160900000Y-106380000D03*
%TO.P,U1,5V,5V*%
%TO.N,+5VD*%
X160900000Y-121620000D03*
%TO.P,U1,6,GPIO6*%
%TO.N,OLED_SCK*%
X158360000Y-106380000D03*
%TO.P,U1,7,GPIO7*%
%TO.N,unconnected-(U1-GPIO7-Pad7)*%
X155820000Y-106380000D03*
%TO.P,U1,8,GPIO8*%
%TO.N,ENC_A*%
X153280000Y-106380000D03*
%TO.P,U1,9,GPIO9*%
%TO.N,ENC_B*%
X150740000Y-106380000D03*
%TO.P,U1,10,GPIO10*%
%TO.N,unconnected-(U1-GPIO10-Pad10)*%
X148200000Y-106380000D03*
%TO.P,U1,20,GPIO20*%
%TO.N,unconnected-(U1-GPIO20-Pad20)*%
X145660000Y-106380000D03*
%TO.P,U1,21,GPIO21*%
%TO.N,unconnected-(U1-GPIO21-Pad21)*%
X143120000Y-106380000D03*
%TO.P,U1,G,GND*%
%TO.N,GND*%
X158360000Y-121620000D03*
%TD*%
D18*
%TO.P,SW1,A,A*%
%TO.N,Net-(R4-Pad2)*%
X157500000Y-96500000D03*
D12*
%TO.P,SW1,B,B*%
%TO.N,Net-(R3-Pad2)*%
X157500000Y-91500000D03*
%TO.P,SW1,C,C*%
%TO.N,GND*%
X157500000Y-94000000D03*
D19*
%TO.P,SW1,MP*%
%TO.N,N/C*%
X150000000Y-99600000D03*
X150000000Y-88400000D03*
D12*
%TO.P,SW1,S1,S1*%
%TO.N,Net-(C1-Pad1)*%
X143000000Y-91500000D03*
%TO.P,SW1,S2,S2*%
%TO.N,GND*%
X143000000Y-96500000D03*
%TD*%
D13*
%TO.P,R2,1*%
%TO.N,Net-(C1-Pad1)*%
X136000000Y-111000000D03*
%TO.P,R2,2*%
%TO.N,ENC_PUSH_BUTTON*%
X137825000Y-111000000D03*
%TD*%
D14*
%TO.P,R1,1*%
%TO.N,+3.3V*%
X137912500Y-108000000D03*
%TO.P,R1,2*%
%TO.N,Net-(C1-Pad1)*%
X136087500Y-108000000D03*
%TD*%
D20*
%TO.P,J1,1,1*%
%TO.N,Bat-*%
X98787500Y-100000000D03*
D21*
%TO.P,J1,2,2*%
%TO.N,Bat+*%
X98787500Y-102000000D03*
%TD*%
D13*
%TO.P,R5,1*%
%TO.N,ADC0*%
X136087500Y-114000000D03*
%TO.P,R5,2*%
%TO.N,+5VD*%
X137912500Y-114000000D03*
%TD*%
D22*
%TO.N,+5VD*%
X142000000Y-120000000D03*
%TO.N,GND*%
X141000000Y-119000000D03*
X140000000Y-106000000D03*
%TD*%
D23*
%TO.N,Net-(DS1-VDD)*%
X111100000Y-90780000D02*
X111100000Y-113062500D01*
%TO.N,GND*%
X118995000Y-107095000D02*
X119000000Y-107090000D01*
X119000000Y-107090000D02*
X119000000Y-105000000D01*
X114500000Y-104000000D02*
X113460000Y-102960000D01*
X119000000Y-105000000D02*
X118000000Y-104000000D01*
X118000000Y-104000000D02*
X114500000Y-104000000D01*
X113460000Y-102960000D02*
X113460000Y-90600000D01*
%TO.N,+5VD*%
X118995000Y-121095000D02*
X114095000Y-121095000D01*
X114095000Y-121095000D02*
X112000000Y-119000000D01*
X112000000Y-119000000D02*
X112050000Y-118950000D01*
X112050000Y-118950000D02*
X112050000Y-114937500D01*
X142000000Y-120000000D02*
X142000000Y-115000000D01*
X142000000Y-115000000D02*
X141000000Y-114000000D01*
X141000000Y-114000000D02*
X137912500Y-114000000D01*
%TO.N,GND*%
X141000000Y-119000000D02*
X140000000Y-120000000D01*
X140000000Y-120000000D02*
X137912500Y-120000000D01*
X140000000Y-106000000D02*
X139000000Y-105000000D01*
X139000000Y-105000000D02*
X137950000Y-105000000D01*
%TO.N,Net-(C1-Pad1)*%
X143000000Y-91500000D02*
X140500000Y-91500000D01*
X140500000Y-91500000D02*
X136050000Y-95950000D01*
X136050000Y-95950000D02*
X136050000Y-105000000D01*
%TO.N,GND*%
X143000000Y-96500000D02*
X140500000Y-96500000D01*
X140500000Y-96500000D02*
X137950000Y-99050000D01*
X137950000Y-99050000D02*
X137950000Y-105000000D01*
%TO.N,ENC_B*%
X150912500Y-103000000D02*
X150912500Y-106207500D01*
X150912500Y-106207500D02*
X150740000Y-106380000D01*
%TO.N,ENC_A*%
X153000000Y-103000000D02*
X153000000Y-106100000D01*
X153000000Y-106100000D02*
X153280000Y-106380000D01*
%TO.N,Net-(R4-Pad2)*%
X156000000Y-103000000D02*
X158000000Y-101000000D01*
X154825000Y-103000000D02*
X156000000Y-103000000D01*
X158000000Y-101000000D02*
X157500000Y-100500000D01*
X157500000Y-100500000D02*
X157500000Y-96500000D01*
%TO.N,Net-(R3-Pad2)*%
X149087500Y-103000000D02*
X148000000Y-103000000D01*
X154500000Y-91500000D02*
X157500000Y-91500000D01*
X148000000Y-103000000D02*
X146000000Y-101000000D01*
X146000000Y-99000000D02*
X148000000Y-97000000D01*
X146000000Y-101000000D02*
X146000000Y-99000000D01*
X148000000Y-97000000D02*
X151000000Y-97000000D01*
X151000000Y-97000000D02*
X152649000Y-95351000D01*
X152649000Y-95351000D02*
X152649000Y-93351000D01*
X152649000Y-93351000D02*
X154500000Y-91500000D01*
%TO.N,Net-(C1-Pad1)*%
X136087500Y-108000000D02*
X136087500Y-105037500D01*
X136087500Y-105037500D02*
X136050000Y-105000000D01*
X136000000Y-111000000D02*
X136000000Y-108087500D01*
X136000000Y-108087500D02*
X136087500Y-108000000D01*
%TO.N,+3.3V*%
X137912500Y-108000000D02*
X140000000Y-108000000D01*
X140000000Y-108000000D02*
X141000000Y-109000000D01*
X141000000Y-109000000D02*
X150000000Y-109000000D01*
X150000000Y-109000000D02*
X155820000Y-114820000D01*
X155820000Y-114820000D02*
X155820000Y-121620000D01*
%TO.N,ENC_PUSH_BUTTON*%
X137825000Y-111000000D02*
X149000000Y-111000000D01*
X149000000Y-111000000D02*
X153280000Y-115280000D01*
X153280000Y-115280000D02*
X153280000Y-121620000D01*
%TO.N,ADC0*%
X136050000Y-117000000D02*
X136050000Y-114037500D01*
X136050000Y-114037500D02*
X136087500Y-114000000D01*
%TO.N,GND*%
X137912500Y-120000000D02*
X137912500Y-117037500D01*
X137912500Y-117037500D02*
X137950000Y-117000000D01*
%TO.N,ADC0*%
X136087500Y-120000000D02*
X136087500Y-117037500D01*
X136087500Y-117037500D02*
X136050000Y-117000000D01*
X136087500Y-120000000D02*
X136087500Y-121087500D01*
X136087500Y-121087500D02*
X137000000Y-122000000D01*
X137000000Y-122000000D02*
X142740000Y-122000000D01*
X142740000Y-122000000D02*
X143120000Y-121620000D01*
%TO.N,OLED_PWR*%
X113000000Y-113062500D02*
X113000000Y-112000000D01*
X113000000Y-112000000D02*
X114000000Y-111000000D01*
X114000000Y-111000000D02*
X115000000Y-111000000D01*
X115000000Y-111000000D02*
X116000000Y-112000000D01*
X116000000Y-112000000D02*
X116000000Y-114000000D01*
X118000000Y-116000000D02*
X123000000Y-116000000D01*
X116000000Y-114000000D02*
X118000000Y-116000000D01*
X123000000Y-116000000D02*
X125000000Y-118000000D01*
X125000000Y-118000000D02*
X125000000Y-122000000D01*
X125000000Y-122000000D02*
X126749000Y-123749000D01*
X126749000Y-123749000D02*
X144251000Y-123749000D01*
X144251000Y-123749000D02*
X145660000Y-122340000D01*
X145660000Y-122340000D02*
X145660000Y-121620000D01*
%TO.N,Net-(DS1-VDD)*%
X111100000Y-90780000D02*
X110920000Y-90600000D01*
%TD*%
%TA.AperFunction,Conductor*%
%TO.N,GND*%
G36*
X156194408Y-92270185D02*
G01*
X156227685Y-92301613D01*
X156355483Y-92477510D01*
X156522490Y-92644517D01*
X156578739Y-92685384D01*
X156621403Y-92740713D01*
X156626095Y-92772542D01*
X157370591Y-93517037D01*
X157307007Y-93534075D01*
X157192993Y-93599901D01*
X157099901Y-93692993D01*
X157034075Y-93807007D01*
X157017037Y-93870591D01*
X156277340Y-93130894D01*
X156217084Y-93213830D01*
X156109897Y-93424197D01*
X156036932Y-93648756D01*
X156035987Y-93652695D01*
X156001191Y-93713284D01*
X155939162Y-93745442D01*
X155869594Y-93738960D01*
X155814574Y-93695895D01*
X155800855Y-93671189D01*
X155791561Y-93648752D01*
X155771327Y-93599901D01*
X155730943Y-93502405D01*
X155615975Y-93330342D01*
X155469657Y-93184024D01*
X155383626Y-93126541D01*
X155297598Y-93069059D01*
X155252790Y-93050499D01*
X155106420Y-92989870D01*
X155106412Y-92989868D01*
X154903469Y-92949500D01*
X154903465Y-92949500D01*
X154411229Y-92949500D01*
X154344190Y-92929815D01*
X154298435Y-92877011D01*
X154288491Y-92807853D01*
X154317516Y-92744297D01*
X154323548Y-92737819D01*
X154774548Y-92286819D01*
X154835871Y-92253334D01*
X154862229Y-92250500D01*
X156127369Y-92250500D01*
X156194408Y-92270185D01*
G37*
%TD.AperFunction*%
%TA.AperFunction,Conductor*%
G36*
X147903270Y-87020185D02*
G01*
X147949025Y-87072989D01*
X147958969Y-87142147D01*
X147952413Y-87167833D01*
X147905908Y-87292517D01*
X147899501Y-87352116D01*
X147899501Y-87352123D01*
X147899500Y-87352135D01*
X147899500Y-89447870D01*
X147899501Y-89447876D01*
X147905908Y-89507483D01*
X147956202Y-89642328D01*
X147956206Y-89642335D01*
X148042452Y-89757544D01*
X148042455Y-89757547D01*
X148157664Y-89843793D01*
X148157671Y-89843797D01*
X148292517Y-89894091D01*
X148292516Y-89894091D01*
X148299444Y-89894835D01*
X148352127Y-89900500D01*
X151647872Y-89900499D01*
X151707483Y-89894091D01*
X151842331Y-89843796D01*
X151957546Y-89757546D01*
X152043796Y-89642331D01*
X152094091Y-89507483D01*
X152100500Y-89447873D01*
X152100499Y-87352128D01*
X152094091Y-87292517D01*
X152047587Y-87167833D01*
X152042603Y-87098141D01*
X152076088Y-87036818D01*
X152137411Y-87003334D01*
X152163769Y-87000500D01*
X163375500Y-87000500D01*
X163442539Y-87020185D01*
X163488294Y-87072989D01*
X163499500Y-87124500D01*
X163499500Y-123875500D01*
X163479815Y-123942539D01*
X163427011Y-123988294D01*
X163375500Y-123999500D01*
X145361230Y-123999500D01*
X145294191Y-123979815D01*
X145248436Y-123927011D01*
X145238492Y-123857853D01*
X145267517Y-123794297D01*
X145273549Y-123787819D01*
X146242948Y-122818420D01*
X146242952Y-122818416D01*
X146316426Y-122708452D01*
X146325084Y-122695495D01*
X146375838Y-122572962D01*
X146376638Y-122571194D01*
X146392156Y-122553145D01*
X146416750Y-122521951D01*
X146425136Y-122515859D01*
X146555859Y-122385136D01*
X146560795Y-122378343D01*
X146577394Y-122355495D01*
X146664523Y-122235572D01*
X146748452Y-122070852D01*
X146805580Y-121895029D01*
X146807527Y-121882737D01*
X146837456Y-121819602D01*
X146896768Y-121782671D01*
X146966630Y-121783669D01*
X147024863Y-121822279D01*
X147052473Y-121882737D01*
X147054420Y-121895030D01*
X147111546Y-122070849D01*
X147111547Y-122070852D01*
X147195479Y-122235575D01*
X147304135Y-122385129D01*
X147304139Y-122385134D01*
X147434865Y-122515860D01*
X147434870Y-122515864D01*
X147527210Y-122582952D01*
X147584428Y-122624523D01*
X147692106Y-122679388D01*
X147749147Y-122708452D01*
X147749150Y-122708453D01*
X147924969Y-122765580D01*
X148107560Y-122794500D01*
X148107565Y-122794500D01*
X148292440Y-122794500D01*
X148475030Y-122765580D01*
X148650849Y-122708453D01*
X148650852Y-122708452D01*
X148651767Y-122707986D01*
X148815572Y-122624523D01*
X148965136Y-122515859D01*
X149095859Y-122385136D01*
X149204523Y-122235572D01*
X149288452Y-122070852D01*
X149345580Y-121895029D01*
X149347527Y-121882737D01*
X149377456Y-121819602D01*
X149436768Y-121782671D01*
X149506630Y-121783669D01*
X149564863Y-121822279D01*
X149592473Y-121882737D01*
X149594420Y-121895030D01*
X149651546Y-122070849D01*
X149651547Y-122070852D01*
X149735479Y-122235575D01*
X149844135Y-122385129D01*
X149844139Y-122385134D01*
X149974865Y-122515860D01*
X149974870Y-122515864D01*
X150067210Y-122582952D01*
X150124428Y-122624523D01*
X150232106Y-122679388D01*
X150289147Y-122708452D01*
X150289150Y-122708453D01*
X150464969Y-122765580D01*
X150647560Y-122794500D01*
X150647565Y-122794500D01*
X150832440Y-122794500D01*
X151015030Y-122765580D01*
X151190849Y-122708453D01*
X151190852Y-122708452D01*
X151191767Y-122707986D01*
X151355572Y-122624523D01*
X151505136Y-122515859D01*
X151635859Y-122385136D01*
X151744523Y-122235572D01*
X151828452Y-122070852D01*
X151885580Y-121895029D01*
X151887527Y-121882737D01*
X151917456Y-121819602D01*
X151976768Y-121782671D01*
X152046630Y-121783669D01*
X152104863Y-121822279D01*
X152132473Y-121882737D01*
X152134420Y-121895030D01*
X152191546Y-122070849D01*
X152191547Y-122070852D01*
X152275479Y-122235575D01*
X152384135Y-122385129D01*
X152384139Y-122385134D01*
X152514865Y-122515860D01*
X152514870Y-122515864D01*
X152607210Y-122582952D01*
X152664428Y-122624523D01*
X152772106Y-122679388D01*
X152829147Y-122708452D01*
X152829150Y-122708453D01*
X153004969Y-122765580D01*
X153187560Y-122794500D01*
X153187565Y-122794500D01*
X153372440Y-122794500D01*
X153555030Y-122765580D01*
X153730849Y-122708453D01*
X153730852Y-122708452D01*
X153731767Y-122707986D01*
X153895572Y-122624523D01*
X154045136Y-122515859D01*
X154175859Y-122385136D01*
X154284523Y-122235572D01*
X154368452Y-122070852D01*
X154425580Y-121895029D01*
X154427527Y-121882737D01*
X154457456Y-121819602D01*
X154516768Y-121782671D01*
X154586630Y-121783669D01*
X154644863Y-121822279D01*
X154672473Y-121882737D01*
X154674420Y-121895030D01*
X154731546Y-122070849D01*
X154731547Y-122070852D01*
X154815479Y-122235575D01*
X154924135Y-122385129D01*
X154924139Y-122385134D01*
X155054865Y-122515860D01*
X155054870Y-122515864D01*
X155147210Y-122582952D01*
X155204428Y-122624523D01*
X155312106Y-122679388D01*
X155369147Y-122708452D01*
X155369150Y-122708453D01*
X155544969Y-122765580D01*
X155727560Y-122794500D01*
X155727565Y-122794500D01*
X155912440Y-122794500D01*
X156095030Y-122765580D01*
X156270849Y-122708453D01*
X156270852Y-122708452D01*
X156271767Y-122707986D01*
X156435572Y-122624523D01*
X156585136Y-122515859D01*
X156715859Y-122385136D01*
X156824523Y-122235572D01*
X156908452Y-122070852D01*
X156965580Y-121895029D01*
X156967780Y-121881137D01*
X156997708Y-121818005D01*
X157057019Y-121781073D01*
X157126882Y-121782069D01*
X157185115Y-121820678D01*
X157212726Y-121881136D01*
X157214907Y-121894910D01*
X157272014Y-122070664D01*
X157355900Y-122235303D01*
X157355903Y-122235307D01*
X157370730Y-122255715D01*
X157370730Y-122255716D01*
X157942356Y-121684090D01*
X157968622Y-121782114D01*
X158023916Y-121877886D01*
X158102114Y-121956084D01*
X158197886Y-122011378D01*
X158295909Y-122037643D01*
X157724283Y-122609268D01*
X157724283Y-122609269D01*
X157744686Y-122624092D01*
X157909338Y-122707986D01*
X158085091Y-122765092D01*
X158267605Y-122794000D01*
X158452395Y-122794000D01*
X158634908Y-122765092D01*
X158810661Y-122707986D01*
X158975310Y-122624094D01*
X158995715Y-122609268D01*
X158995716Y-122609268D01*
X158424090Y-122037642D01*
X158522114Y-122011378D01*
X158617886Y-121956084D01*
X158696084Y-121877886D01*
X158751378Y-121782114D01*
X158777643Y-121684090D01*
X159349268Y-122255716D01*
X159349268Y-122255715D01*
X159364094Y-122235310D01*
X159447986Y-122070661D01*
X159505091Y-121894911D01*
X159507272Y-121881143D01*
X159537199Y-121818007D01*
X159596509Y-121781073D01*
X159666372Y-121782068D01*
X159724606Y-121820676D01*
X159752219Y-121881133D01*
X159752220Y-121881140D01*
X159754420Y-121895029D01*
X159754420Y-121895031D01*
X159754421Y-121895033D01*
X159811546Y-122070849D01*
X159811547Y-122070852D01*
X159895479Y-122235575D01*
X160004135Y-122385129D01*
X160004139Y-122385134D01*
X160134865Y-122515860D01*
X160134870Y-122515864D01*
X160227210Y-122582952D01*
X160284428Y-122624523D01*
X160392106Y-122679388D01*
X160449147Y-122708452D01*
X160449150Y-122708453D01*
X160624969Y-122765580D01*
X160807560Y-122794500D01*
X160807565Y-122794500D01*
X160992440Y-122794500D01*
X161175030Y-122765580D01*
X161350849Y-122708453D01*
X161350852Y-122708452D01*
X161351767Y-122707986D01*
X161515572Y-122624523D01*
X161665136Y-122515859D01*
X161795859Y-122385136D01*
X161904523Y-122235572D01*
X161988452Y-122070852D01*
X162007776Y-122011378D01*
X162045580Y-121895030D01*
X162074500Y-121712440D01*
X162074500Y-121527559D01*
X162045580Y-121344969D01*
X161988453Y-121169150D01*
X161988452Y-121169147D01*
X161957221Y-121107853D01*
X161904523Y-121004428D01*
X161884524Y-120976902D01*
X161795864Y-120854870D01*
X161795860Y-120854865D01*
X161665134Y-120724139D01*
X161665129Y-120724135D01*
X161515575Y-120615479D01*
X161515574Y-120615478D01*
X161515572Y-120615477D01*
X161462799Y-120588588D01*
X161350852Y-120531547D01*
X161350849Y-120531546D01*
X161175030Y-120474419D01*
X160992440Y-120445500D01*
X160992435Y-120445500D01*
X160807565Y-120445500D01*
X160807560Y-120445500D01*
X160624969Y-120474419D01*
X160449150Y-120531546D01*
X160449147Y-120531547D01*
X160284424Y-120615479D01*
X160134870Y-120724135D01*
X160134865Y-120724139D01*
X160004139Y-120854865D01*
X160004135Y-120854870D01*
X159895479Y-121004424D01*
X159811547Y-121169147D01*
X159811546Y-121169150D01*
X159754419Y-121344971D01*
X159752218Y-121358867D01*
X159722286Y-121422000D01*
X159662973Y-121458928D01*
X159593110Y-121457927D01*
X159534879Y-121419315D01*
X159507272Y-121358857D01*
X159505091Y-121345087D01*
X159447986Y-121169338D01*
X159364092Y-121004686D01*
X159349269Y-120984283D01*
X158777642Y-121555909D01*
X158751378Y-121457886D01*
X158696084Y-121362114D01*
X158617886Y-121283916D01*
X158522114Y-121228622D01*
X158424090Y-121202356D01*
X158995716Y-120630730D01*
X158975307Y-120615903D01*
X158975303Y-120615900D01*
X158810664Y-120532014D01*
X158634908Y-120474907D01*
X158452395Y-120446000D01*
X158267605Y-120446000D01*
X158085091Y-120474907D01*
X157909338Y-120532013D01*
X157744692Y-120615903D01*
X157744688Y-120615906D01*
X157724283Y-120630729D01*
X157724283Y-120630730D01*
X158295910Y-121202356D01*
X158197886Y-121228622D01*
X158102114Y-121283916D01*
X158023916Y-121362114D01*
X157968622Y-121457886D01*
X157942356Y-121555909D01*
X157370730Y-120984283D01*
X157370729Y-120984283D01*
X157355906Y-121004688D01*
X157355903Y-121004692D01*
X157272013Y-121169338D01*
X157214908Y-121345088D01*
X157212726Y-121358864D01*
X157182795Y-121421998D01*
X157123483Y-121458928D01*
X157053620Y-121457928D01*
X156995388Y-121419317D01*
X156967780Y-121358860D01*
X156965580Y-121344970D01*
X156908453Y-121169150D01*
X156908452Y-121169147D01*
X156877221Y-121107853D01*
X156824523Y-121004428D01*
X156814404Y-120990501D01*
X156715865Y-120854871D01*
X156715861Y-120854867D01*
X156715859Y-120854864D01*
X156626664Y-120765669D01*
X156626664Y-120765668D01*
X156606819Y-120745823D01*
X156573334Y-120684500D01*
X156570500Y-120658142D01*
X156570500Y-114746079D01*
X156541659Y-114601092D01*
X156541658Y-114601091D01*
X156541658Y-114601087D01*
X156523953Y-114558343D01*
X156485087Y-114464511D01*
X156485080Y-114464498D01*
X156437302Y-114392994D01*
X156402952Y-114341584D01*
X153478417Y-111417049D01*
X150478421Y-108417052D01*
X150478414Y-108417046D01*
X150404729Y-108367812D01*
X150404729Y-108367813D01*
X150355491Y-108334913D01*
X150218917Y-108278343D01*
X150218907Y-108278340D01*
X150073920Y-108249500D01*
X150073918Y-108249500D01*
X141362229Y-108249500D01*
X141295190Y-108229815D01*
X141274548Y-108213181D01*
X140478421Y-107417052D01*
X140478420Y-107417051D01*
X140448716Y-107397204D01*
X140401779Y-107365842D01*
X140401778Y-107365841D01*
X140355501Y-107334919D01*
X140355488Y-107334912D01*
X140218917Y-107278343D01*
X140218907Y-107278340D01*
X140073920Y-107249500D01*
X140073918Y-107249500D01*
X138940638Y-107249500D01*
X138873599Y-107229815D01*
X138835099Y-107190597D01*
X138767712Y-107081344D01*
X138643656Y-106957288D01*
X138494334Y-106865186D01*
X138327797Y-106810001D01*
X138327795Y-106810000D01*
X138225010Y-106799500D01*
X137599998Y-106799500D01*
X137599980Y-106799501D01*
X137497203Y-106810000D01*
X137497200Y-106810001D01*
X137330668Y-106865185D01*
X137330663Y-106865187D01*
X137181342Y-106957289D01*
X137087681Y-107050951D01*
X137079735Y-107055289D01*
X137074310Y-107062537D01*
X137049550Y-107071771D01*
X137026358Y-107084436D01*
X137017328Y-107083790D01*
X137008846Y-107086954D01*
X136983025Y-107081337D01*
X136956666Y-107079452D01*
X136947612Y-107073633D01*
X136940573Y-107072102D01*
X136912319Y-107050951D01*
X136874319Y-107012951D01*
X136840834Y-106951628D01*
X136838000Y-106925270D01*
X136838000Y-106287559D01*
X141945500Y-106287559D01*
X141945500Y-106472440D01*
X141974419Y-106655030D01*
X142031546Y-106830849D01*
X142031547Y-106830852D01*
X142067803Y-106902007D01*
X142113814Y-106992309D01*
X142115479Y-106995575D01*
X142224135Y-107145129D01*
X142224139Y-107145134D01*
X142354865Y-107275860D01*
X142354870Y-107275864D01*
X142478714Y-107365841D01*
X142504428Y-107384523D01*
X142612106Y-107439388D01*
X142669147Y-107468452D01*
X142669150Y-107468453D01*
X142844969Y-107525580D01*
X143027560Y-107554500D01*
X143027565Y-107554500D01*
X143212440Y-107554500D01*
X143395030Y-107525580D01*
X143570849Y-107468453D01*
X143570852Y-107468452D01*
X143735572Y-107384523D01*
X143885136Y-107275859D01*
X144015859Y-107145136D01*
X144124523Y-106995572D01*
X144208452Y-106830852D01*
X144265580Y-106655029D01*
X144267527Y-106642737D01*
X144297456Y-106579602D01*
X144356768Y-106542671D01*
X144426630Y-106543669D01*
X144484863Y-106582279D01*
X144512473Y-106642737D01*
X144514420Y-106655030D01*
X144571546Y-106830849D01*
X144571547Y-106830852D01*
X144607803Y-106902007D01*
X144653814Y-106992309D01*
X144655479Y-106995575D01*
X144764135Y-107145129D01*
X144764139Y-107145134D01*
X144894865Y-107275860D01*
X144894870Y-107275864D01*
X145018714Y-107365841D01*
X145044428Y-107384523D01*
X145152106Y-107439388D01*
X145209147Y-107468452D01*
X145209150Y-107468453D01*
X145384969Y-107525580D01*
X145567560Y-107554500D01*
X145567565Y-107554500D01*
X145752440Y-107554500D01*
X145935030Y-107525580D01*
X146110849Y-107468453D01*
X146110852Y-107468452D01*
X146275572Y-107384523D01*
X146425136Y-107275859D01*
X146555859Y-107145136D01*
X146664523Y-106995572D01*
X146748452Y-106830852D01*
X146805580Y-106655029D01*
X146807527Y-106642737D01*
X146837456Y-106579602D01*
X146896768Y-106542671D01*
X146966630Y-106543669D01*
X147024863Y-106582279D01*
X147052473Y-106642737D01*
X147054420Y-106655030D01*
X147111546Y-106830849D01*
X147111547Y-106830852D01*
X147147803Y-106902007D01*
X147193814Y-106992309D01*
X147195479Y-106995575D01*
X147304135Y-107145129D01*
X147304139Y-107145134D01*
X147434865Y-107275860D01*
X147434870Y-107275864D01*
X147558714Y-107365841D01*
X147584428Y-107384523D01*
X147692106Y-107439388D01*
X147749147Y-107468452D01*
X147749150Y-107468453D01*
X147924969Y-107525580D01*
X148107560Y-107554500D01*
X148107565Y-107554500D01*
X148292440Y-107554500D01*
X148475030Y-107525580D01*
X148650849Y-107468453D01*
X148650852Y-107468452D01*
X148815572Y-107384523D01*
X148965136Y-107275859D01*
X149095859Y-107145136D01*
X149204523Y-106995572D01*
X149288452Y-106830852D01*
X149345580Y-106655029D01*
X149347527Y-106642737D01*
X149377456Y-106579602D01*
X149436768Y-106542671D01*
X149506630Y-106543669D01*
X149564863Y-106582279D01*
X149592473Y-106642737D01*
X149594420Y-106655030D01*
X149651546Y-106830849D01*
X149651547Y-106830852D01*
X149687803Y-106902007D01*
X149733814Y-106992309D01*
X149735479Y-106995575D01*
X149844135Y-107145129D01*
X149844139Y-107145134D01*
X149974865Y-107275860D01*
X149974870Y-107275864D01*
X150098714Y-107365841D01*
X150124428Y-107384523D01*
X150232106Y-107439388D01*
X150289147Y-107468452D01*
X150289150Y-107468453D01*
X150464969Y-107525580D01*
X150647560Y-107554500D01*
X150647565Y-107554500D01*
X150832440Y-107554500D01*
X151015030Y-107525580D01*
X151190849Y-107468453D01*
X151190852Y-107468452D01*
X151355572Y-107384523D01*
X151505136Y-107275859D01*
X151635859Y-107145136D01*
X151744523Y-106995572D01*
X151828452Y-106830852D01*
X151885580Y-106655029D01*
X151887527Y-106642737D01*
X151917456Y-106579602D01*
X151976768Y-106542671D01*
X152046630Y-106543669D01*
X152104863Y-106582279D01*
X152132473Y-106642737D01*
X152134420Y-106655030D01*
X152191546Y-106830849D01*
X152191547Y-106830852D01*
X152227803Y-106902007D01*
X152273814Y-106992309D01*
X152275479Y-106995575D01*
X152384135Y-107145129D01*
X152384139Y-107145134D01*
X152514865Y-107275860D01*
X152514870Y-107275864D01*
X152638714Y-107365841D01*
X152664428Y-107384523D01*
X152772106Y-107439388D01*
X152829147Y-107468452D01*
X152829150Y-107468453D01*
X153004969Y-107525580D01*
X153187560Y-107554500D01*
X153187565Y-107554500D01*
X153372440Y-107554500D01*
X153555030Y-107525580D01*
X153730849Y-107468453D01*
X153730852Y-107468452D01*
X153895572Y-107384523D01*
X154045136Y-107275859D01*
X154175859Y-107145136D01*
X154284523Y-106995572D01*
X154368452Y-106830852D01*
X154425580Y-106655029D01*
X154427527Y-106642737D01*
X154457456Y-106579602D01*
X154516768Y-106542671D01*
X154586630Y-106543669D01*
X154644863Y-106582279D01*
X154672473Y-106642737D01*
X154674420Y-106655030D01*
X154731546Y-106830849D01*
X154731547Y-106830852D01*
X154767803Y-106902007D01*
X154813814Y-106992309D01*
X154815479Y-106995575D01*
X154924135Y-107145129D01*
X154924139Y-107145134D01*
X155054865Y-107275860D01*
X155054870Y-107275864D01*
X155178714Y-107365841D01*
X155204428Y-107384523D01*
X155312106Y-107439388D01*
X155369147Y-107468452D01*
X155369150Y-107468453D01*
X155544969Y-107525580D01*
X155727560Y-107554500D01*
X155727565Y-107554500D01*
X155912440Y-107554500D01*
X156095030Y-107525580D01*
X156270849Y-107468453D01*
X156270852Y-107468452D01*
X156435572Y-107384523D01*
X156585136Y-107275859D01*
X156715859Y-107145136D01*
X156824523Y-106995572D01*
X156908452Y-106830852D01*
X156965580Y-106655029D01*
X156967527Y-106642737D01*
X156997456Y-106579602D01*
X157056768Y-106542671D01*
X157126630Y-106543669D01*
X157184863Y-106582279D01*
X157212473Y-106642737D01*
X157214420Y-106655030D01*
X157271546Y-106830849D01*
X157271547Y-106830852D01*
X157307803Y-106902007D01*
X157353814Y-106992309D01*
X157355479Y-106995575D01*
X157464135Y-107145129D01*
X157464139Y-107145134D01*
X157594865Y-107275860D01*
X157594870Y-107275864D01*
X157718714Y-107365841D01*
X157744428Y-107384523D01*
X157852106Y-107439388D01*
X157909147Y-107468452D01*
X157909150Y-107468453D01*
X158084969Y-107525580D01*
X158267560Y-107554500D01*
X158267565Y-107554500D01*
X158452440Y-107554500D01*
X158635030Y-107525580D01*
X158810849Y-107468453D01*
X158810852Y-107468452D01*
X158975572Y-107384523D01*
X159125136Y-107275859D01*
X159255859Y-107145136D01*
X159364523Y-106995572D01*
X159448452Y-106830852D01*
X159505580Y-106655029D01*
X159507527Y-106642737D01*
X159537456Y-106579602D01*
X159596768Y-106542671D01*
X159666630Y-106543669D01*
X159724863Y-106582279D01*
X159752473Y-106642737D01*
X159754420Y-106655030D01*
X159811546Y-106830849D01*
X159811547Y-106830852D01*
X159847803Y-106902007D01*
X159893814Y-106992309D01*
X159895479Y-106995575D01*
X160004135Y-107145129D01*
X160004139Y-107145134D01*
X160134865Y-107275860D01*
X160134870Y-107275864D01*
X160258714Y-107365841D01*
X160284428Y-107384523D01*
X160392106Y-107439388D01*
X160449147Y-107468452D01*
X160449150Y-107468453D01*
X160624969Y-107525580D01*
X160807560Y-107554500D01*
X160807565Y-107554500D01*
X160992440Y-107554500D01*
X161175030Y-107525580D01*
X161350849Y-107468453D01*
X161350852Y-107468452D01*
X161515572Y-107384523D01*
X161665136Y-107275859D01*
X161795859Y-107145136D01*
X161904523Y-106995572D01*
X161988452Y-106830852D01*
X161995227Y-106810000D01*
X162045580Y-106655030D01*
X162074500Y-106472440D01*
X162074500Y-106287559D01*
X162045580Y-106104969D01*
X161988453Y-105929150D01*
X161988452Y-105929147D01*
X161959388Y-105872106D01*
X161904523Y-105764428D01*
X161890639Y-105745318D01*
X161795864Y-105614870D01*
X161795860Y-105614865D01*
X161665134Y-105484139D01*
X161665129Y-105484135D01*
X161515575Y-105375479D01*
X161515574Y-105375478D01*
X161515572Y-105375477D01*
X161438202Y-105336055D01*
X161350852Y-105291547D01*
X161350849Y-105291546D01*
X161175030Y-105234419D01*
X160992440Y-105205500D01*
X160992435Y-105205500D01*
X160807565Y-105205500D01*
X160807560Y-105205500D01*
X160624969Y-105234419D01*
X160449150Y-105291546D01*
X160449147Y-105291547D01*
X160284424Y-105375479D01*
X160134870Y-105484135D01*
X160134865Y-105484139D01*
X160004139Y-105614865D01*
X160004135Y-105614870D01*
X159895479Y-105764424D01*
X159811547Y-105929147D01*
X159811546Y-105929150D01*
X159754420Y-106104969D01*
X159752473Y-106117263D01*
X159722543Y-106180397D01*
X159663231Y-106217328D01*
X159593369Y-106216330D01*
X159535136Y-106177719D01*
X159507527Y-106117263D01*
X159507192Y-106115150D01*
X159505580Y-106104971D01*
X159453167Y-105943659D01*
X159448453Y-105929150D01*
X159448452Y-105929147D01*
X159419388Y-105872106D01*
X159364523Y-105764428D01*
X159350639Y-105745318D01*
X159255864Y-105614870D01*
X159255860Y-105614865D01*
X159125134Y-105484139D01*
X159125129Y-105484135D01*
X158975575Y-105375479D01*
X158975574Y-105375478D01*
X158975572Y-105375477D01*
X158898202Y-105336055D01*
X158810852Y-105291547D01*
X158810849Y-105291546D01*
X158635030Y-105234419D01*
X158452440Y-105205500D01*
X158452435Y-105205500D01*
X158267565Y-105205500D01*
X158267560Y-105205500D01*
X158084969Y-105234419D01*
X157909150Y-105291546D01*
X157909147Y-105291547D01*
X157744424Y-105375479D01*
X157594870Y-105484135D01*
X157594865Y-105484139D01*
X157464139Y-105614865D01*
X157464135Y-105614870D01*
X157355479Y-105764424D01*
X157271547Y-105929147D01*
X157271546Y-105929150D01*
X157214420Y-106104969D01*
X157212473Y-106117263D01*
X157182543Y-106180397D01*
X157123231Y-106217328D01*
X157053369Y-106216330D01*
X156995136Y-106177719D01*
X156967527Y-106117263D01*
X156967192Y-106115150D01*
X156965580Y-106104971D01*
X156913167Y-105943659D01*
X156908453Y-105929150D01*
X156908452Y-105929147D01*
X156879388Y-105872106D01*
X156824523Y-105764428D01*
X156810639Y-105745318D01*
X156715864Y-105614870D01*
X156715860Y-105614865D01*
X156585134Y-105484139D01*
X156585129Y-105484135D01*
X156435575Y-105375479D01*
X156435574Y-105375478D01*
X156435572Y-105375477D01*
X156358202Y-105336055D01*
X156270852Y-105291547D01*
X156270849Y-105291546D01*
X156095030Y-105234419D01*
X155912440Y-105205500D01*
X155912435Y-105205500D01*
X155727565Y-105205500D01*
X155727560Y-105205500D01*
X155544969Y-105234419D01*
X155369150Y-105291546D01*
X155369147Y-105291547D01*
X155204424Y-105375479D01*
X155054870Y-105484135D01*
X155054865Y-105484139D01*
X154924139Y-105614865D01*
X154924135Y-105614870D01*
X154815479Y-105764424D01*
X154731547Y-105929147D01*
X154731546Y-105929150D01*
X154674420Y-106104969D01*
X154672473Y-106117263D01*
X154642543Y-106180397D01*
X154583231Y-106217328D01*
X154513369Y-106216330D01*
X154455136Y-106177719D01*
X154427527Y-106117263D01*
X154427192Y-106115150D01*
X154425580Y-106104971D01*
X154373167Y-105943659D01*
X154368453Y-105929150D01*
X154368452Y-105929147D01*
X154339388Y-105872106D01*
X154284523Y-105764428D01*
X154270639Y-105745318D01*
X154175864Y-105614870D01*
X154175860Y-105614865D01*
X154045134Y-105484139D01*
X154045129Y-105484135D01*
X153895573Y-105375477D01*
X153818204Y-105336055D01*
X153767409Y-105288081D01*
X153750500Y-105225571D01*
X153750500Y-104074730D01*
X153759144Y-104045289D01*
X153765668Y-104015303D01*
X153769422Y-104010287D01*
X153770185Y-104007691D01*
X153786819Y-103987049D01*
X153824819Y-103949049D01*
X153886142Y-103915564D01*
X153955834Y-103920548D01*
X154000181Y-103949049D01*
X154093844Y-104042712D01*
X154243166Y-104134814D01*
X154409703Y-104189999D01*
X154512491Y-104200500D01*
X155137508Y-104200499D01*
X155137516Y-104200498D01*
X155137519Y-104200498D01*
X155193802Y-104194748D01*
X155240297Y-104189999D01*
X155406834Y-104134814D01*
X155556156Y-104042712D01*
X155680212Y-103918656D01*
X155747599Y-103809402D01*
X155799547Y-103762679D01*
X155853138Y-103750500D01*
X156073920Y-103750500D01*
X156171462Y-103731096D01*
X156218913Y-103721658D01*
X156355495Y-103665084D01*
X156404729Y-103632186D01*
X156478416Y-103582952D01*
X158478413Y-101582953D01*
X158478416Y-101582952D01*
X158582952Y-101478416D01*
X158665084Y-101355495D01*
X158721658Y-101218913D01*
X158740670Y-101123335D01*
X158750500Y-101073920D01*
X158750500Y-100926080D01*
X158721659Y-100781093D01*
X158721658Y-100781092D01*
X158721658Y-100781088D01*
X158665084Y-100644506D01*
X158582952Y-100521584D01*
X158582947Y-100521579D01*
X158582947Y-100521578D01*
X158286819Y-100225450D01*
X158253334Y-100164127D01*
X158250500Y-100137769D01*
X158250500Y-98124499D01*
X158270185Y-98057460D01*
X158322989Y-98011705D01*
X158374500Y-98000499D01*
X158547871Y-98000499D01*
X158547872Y-98000499D01*
X158607483Y-97994091D01*
X158742331Y-97943796D01*
X158857546Y-97857546D01*
X158943796Y-97742331D01*
X158994091Y-97607483D01*
X159000500Y-97547873D01*
X159000499Y-95452128D01*
X158994091Y-95392517D01*
X158943796Y-95257669D01*
X158943795Y-95257668D01*
X158943793Y-95257664D01*
X158857547Y-95142455D01*
X158739400Y-95054009D01*
X158697530Y-94998075D01*
X158692546Y-94928383D01*
X158713394Y-94881857D01*
X158782914Y-94786171D01*
X158890102Y-94575802D01*
X158963065Y-94351247D01*
X159000000Y-94118052D01*
X159000000Y-93881947D01*
X158963065Y-93648752D01*
X158890102Y-93424197D01*
X158782914Y-93213828D01*
X158722658Y-93130894D01*
X158722658Y-93130893D01*
X157982962Y-93870589D01*
X157965925Y-93807007D01*
X157900099Y-93692993D01*
X157807007Y-93599901D01*
X157692993Y-93534075D01*
X157629409Y-93517037D01*
X158375716Y-92770729D01*
X158384891Y-92727054D01*
X158421257Y-92685386D01*
X158477510Y-92644517D01*
X158644517Y-92477510D01*
X158783343Y-92286433D01*
X158890568Y-92075992D01*
X158963553Y-91851368D01*
X158968149Y-91822349D01*
X159000500Y-91618097D01*
X159000500Y-91381902D01*
X158963553Y-91148631D01*
X158921581Y-91019455D01*
X158890568Y-90924008D01*
X158890566Y-90924005D01*
X158890566Y-90924003D01*
X158834002Y-90812991D01*
X158783343Y-90713567D01*
X158644517Y-90522490D01*
X158477510Y-90355483D01*
X158286433Y-90216657D01*
X158075996Y-90109433D01*
X157851368Y-90036446D01*
X157618097Y-89999500D01*
X157618092Y-89999500D01*
X157381908Y-89999500D01*
X157381903Y-89999500D01*
X157148631Y-90036446D01*
X156924003Y-90109433D01*
X156713566Y-90216657D01*
X156608500Y-90292993D01*
X156522490Y-90355483D01*
X156522488Y-90355485D01*
X156522487Y-90355485D01*
X156355485Y-90522487D01*
X156355485Y-90522488D01*
X156355483Y-90522490D01*
X156299169Y-90600000D01*
X156227687Y-90698386D01*
X156172357Y-90741051D01*
X156127369Y-90749500D01*
X154426080Y-90749500D01*
X154281092Y-90778340D01*
X154281082Y-90778343D01*
X154144511Y-90834912D01*
X154144498Y-90834919D01*
X154021584Y-90917048D01*
X154021580Y-90917051D01*
X152066050Y-92872580D01*
X152066044Y-92872588D01*
X152016812Y-92946268D01*
X152016813Y-92946269D01*
X151983921Y-92995496D01*
X151983914Y-92995508D01*
X151927342Y-93132086D01*
X151927340Y-93132092D01*
X151898500Y-93277079D01*
X151898500Y-94988770D01*
X151878815Y-95055809D01*
X151862181Y-95076451D01*
X150725451Y-96213181D01*
X150664128Y-96246666D01*
X150637770Y-96249500D01*
X147926080Y-96249500D01*
X147781092Y-96278340D01*
X147781082Y-96278343D01*
X147644507Y-96334914D01*
X147544916Y-96401459D01*
X147544915Y-96401460D01*
X147521581Y-96417050D01*
X145417049Y-98521582D01*
X145417043Y-98521589D01*
X145396638Y-98552128D01*
X145396639Y-98552129D01*
X145334914Y-98644508D01*
X145278343Y-98781082D01*
X145278340Y-98781092D01*
X145249500Y-98926079D01*
X145249500Y-98926082D01*
X145249500Y-101073918D01*
X145249500Y-101073920D01*
X145249499Y-101073920D01*
X145278340Y-101218907D01*
X145278343Y-101218917D01*
X145334914Y-101355491D01*
X145334916Y-101355495D01*
X145352550Y-101381887D01*
X145361251Y-101394909D01*
X145417049Y-101478418D01*
X145417052Y-101478421D01*
X147417049Y-103478416D01*
X147521583Y-103582950D01*
X147521585Y-103582952D01*
X147644498Y-103665080D01*
X147644511Y-103665087D01*
X147781082Y-103721656D01*
X147781087Y-103721658D01*
X147781091Y-103721658D01*
X147781092Y-103721659D01*
X147926079Y-103750500D01*
X147926082Y-103750500D01*
X147926083Y-103750500D01*
X148059362Y-103750500D01*
X148126401Y-103770185D01*
X148164899Y-103809401D01*
X148232288Y-103918656D01*
X148356344Y-104042712D01*
X148505666Y-104134814D01*
X148672203Y-104189999D01*
X148774991Y-104200500D01*
X149400008Y-104200499D01*
X149400016Y-104200498D01*
X149400019Y-104200498D01*
X149456302Y-104194748D01*
X149502797Y-104189999D01*
X149669334Y-104134814D01*
X149818656Y-104042712D01*
X149912319Y-103949049D01*
X149920264Y-103944710D01*
X149925690Y-103937463D01*
X149950449Y-103928228D01*
X149973642Y-103915564D01*
X149982671Y-103916209D01*
X149991154Y-103913046D01*
X150016974Y-103918662D01*
X150043334Y-103920548D01*
X150052387Y-103926366D01*
X150059427Y-103927898D01*
X150087681Y-103949049D01*
X150125681Y-103987049D01*
X150159166Y-104048372D01*
X150162000Y-104074730D01*
X150162000Y-105284997D01*
X150142315Y-105352036D01*
X150110885Y-105385315D01*
X149974870Y-105484135D01*
X149974865Y-105484139D01*
X149844139Y-105614865D01*
X149844135Y-105614870D01*
X149735479Y-105764424D01*
X149651547Y-105929147D01*
X149651546Y-105929150D01*
X149594420Y-106104969D01*
X149592473Y-106117263D01*
X149562543Y-106180397D01*
X149503231Y-106217328D01*
X149433369Y-106216330D01*
X149375136Y-106177719D01*
X149347527Y-106117263D01*
X149347192Y-106115150D01*
X149345580Y-106104971D01*
X149293167Y-105943659D01*
X149288453Y-105929150D01*
X149288452Y-105929147D01*
X149259388Y-105872106D01*
X149204523Y-105764428D01*
X149190639Y-105745318D01*
X149095864Y-105614870D01*
X149095860Y-105614865D01*
X148965134Y-105484139D01*
X148965129Y-105484135D01*
X148815575Y-105375479D01*
X148815574Y-105375478D01*
X148815572Y-105375477D01*
X148738202Y-105336055D01*
X148650852Y-105291547D01*
X148650849Y-105291546D01*
X148475030Y-105234419D01*
X148292440Y-105205500D01*
X148292435Y-105205500D01*
X148107565Y-105205500D01*
X148107560Y-105205500D01*
X147924969Y-105234419D01*
X147749150Y-105291546D01*
X147749147Y-105291547D01*
X147584424Y-105375479D01*
X147434870Y-105484135D01*
X147434865Y-105484139D01*
X147304139Y-105614865D01*
X147304135Y-105614870D01*
X147195479Y-105764424D01*
X147111547Y-105929147D01*
X147111546Y-105929150D01*
X147054420Y-106104969D01*
X147052473Y-106117263D01*
X147022543Y-106180397D01*
X146963231Y-106217328D01*
X146893369Y-106216330D01*
X146835136Y-106177719D01*
X146807527Y-106117263D01*
X146807192Y-106115150D01*
X146805580Y-106104971D01*
X146753167Y-105943659D01*
X146748453Y-105929150D01*
X146748452Y-105929147D01*
X146719388Y-105872106D01*
X146664523Y-105764428D01*
X146650639Y-105745318D01*
X146555864Y-105614870D01*
X146555860Y-105614865D01*
X146425134Y-105484139D01*
X146425129Y-105484135D01*
X146275575Y-105375479D01*
X146275574Y-105375478D01*
X146275572Y-105375477D01*
X146198202Y-105336055D01*
X146110852Y-105291547D01*
X146110849Y-105291546D01*
X145935030Y-105234419D01*
X145752440Y-105205500D01*
X145752435Y-105205500D01*
X145567565Y-105205500D01*
X145567560Y-105205500D01*
X145384969Y-105234419D01*
X145209150Y-105291546D01*
X145209147Y-105291547D01*
X145044424Y-105375479D01*
X144894870Y-105484135D01*
X144894865Y-105484139D01*
X144764139Y-105614865D01*
X144764135Y-105614870D01*
X144655479Y-105764424D01*
X144571547Y-105929147D01*
X144571546Y-105929150D01*
X144514420Y-106104969D01*
X144512473Y-106117263D01*
X144482543Y-106180397D01*
X144423231Y-106217328D01*
X144353369Y-106216330D01*
X144295136Y-106177719D01*
X144267527Y-106117263D01*
X144267192Y-106115150D01*
X144265580Y-106104971D01*
X144213167Y-105943659D01*
X144208453Y-105929150D01*
X144208452Y-105929147D01*
X144179388Y-105872106D01*
X144124523Y-105764428D01*
X144110639Y-105745318D01*
X144015864Y-105614870D01*
X144015860Y-105614865D01*
X143885134Y-105484139D01*
X143885129Y-105484135D01*
X143735575Y-105375479D01*
X143735574Y-105375478D01*
X143735572Y-105375477D01*
X143658202Y-105336055D01*
X143570852Y-105291547D01*
X143570849Y-105291546D01*
X143395030Y-105234419D01*
X143212440Y-105205500D01*
X143212435Y-105205500D01*
X143027565Y-105205500D01*
X143027560Y-105205500D01*
X142844969Y-105234419D01*
X142669150Y-105291546D01*
X142669147Y-105291547D01*
X142504424Y-105375479D01*
X142354870Y-105484135D01*
X142354865Y-105484139D01*
X142224139Y-105614865D01*
X142224135Y-105614870D01*
X142115479Y-105764424D01*
X142031547Y-105929147D01*
X142031546Y-105929150D01*
X141974419Y-106104969D01*
X141945500Y-106287559D01*
X136838000Y-106287559D01*
X136838000Y-106049730D01*
X136857685Y-105982691D01*
X136874319Y-105962049D01*
X136892712Y-105943656D01*
X136894752Y-105940347D01*
X136896745Y-105938555D01*
X136897193Y-105937989D01*
X136897289Y-105938065D01*
X136946694Y-105893623D01*
X137015656Y-105882395D01*
X137079740Y-105910234D01*
X137105829Y-105940339D01*
X137107681Y-105943341D01*
X137107683Y-105943344D01*
X137231654Y-106067315D01*
X137380875Y-106159356D01*
X137380880Y-106159358D01*
X137547302Y-106214505D01*
X137547309Y-106214506D01*
X137650019Y-106224999D01*
X138200000Y-106224999D01*
X138249972Y-106224999D01*
X138249986Y-106224998D01*
X138352697Y-106214505D01*
X138502132Y-106164987D01*
X138502133Y-106164987D01*
X138519121Y-106159357D01*
X138519124Y-106159356D01*
X138668345Y-106067315D01*
X138792315Y-105943345D01*
X138884356Y-105794124D01*
X138884358Y-105794119D01*
X138939505Y-105627697D01*
X138939506Y-105627690D01*
X138949999Y-105524986D01*
X138950000Y-105524973D01*
X138950000Y-105250000D01*
X138200000Y-105250000D01*
X138200000Y-106224999D01*
X137650019Y-106224999D01*
X137699999Y-106224998D01*
X137700000Y-106224998D01*
X137700000Y-104750000D01*
X138200000Y-104750000D01*
X138949999Y-104750000D01*
X138949999Y-104475028D01*
X138949998Y-104475013D01*
X138939505Y-104372302D01*
X138884358Y-104205880D01*
X138884356Y-104205875D01*
X138792315Y-104056654D01*
X138668345Y-103932684D01*
X138519124Y-103840643D01*
X138519119Y-103840641D01*
X138352697Y-103785494D01*
X138352690Y-103785493D01*
X138249986Y-103775000D01*
X138200000Y-103775000D01*
X138200000Y-104750000D01*
X137700000Y-104750000D01*
X137700000Y-103775000D01*
X137699999Y-103774999D01*
X137650029Y-103775000D01*
X137650011Y-103775001D01*
X137547302Y-103785494D01*
X137380880Y-103840641D01*
X137380875Y-103840643D01*
X137231654Y-103932684D01*
X137107683Y-104056655D01*
X137107679Y-104056660D01*
X137105826Y-104059665D01*
X137104018Y-104061290D01*
X137103202Y-104062323D01*
X137103025Y-104062183D01*
X137053874Y-104106385D01*
X136984911Y-104117601D01*
X136920831Y-104089752D01*
X136909341Y-104078843D01*
X136901112Y-104069963D01*
X136892712Y-104056344D01*
X136835140Y-103998772D01*
X136833548Y-103997054D01*
X136818985Y-103967791D01*
X136803334Y-103939128D01*
X136802951Y-103935572D01*
X136802419Y-103934502D01*
X136802630Y-103932580D01*
X136800500Y-103912770D01*
X136800500Y-96381947D01*
X141500000Y-96381947D01*
X141500000Y-96618052D01*
X141536934Y-96851247D01*
X141609897Y-97075802D01*
X141717087Y-97286174D01*
X141777338Y-97369104D01*
X141777340Y-97369105D01*
X142517037Y-96629408D01*
X142534075Y-96692993D01*
X142599901Y-96807007D01*
X142692993Y-96900099D01*
X142807007Y-96965925D01*
X142870590Y-96982962D01*
X142130893Y-97722658D01*
X142213828Y-97782914D01*
X142424197Y-97890102D01*
X142648752Y-97963065D01*
X142648751Y-97963065D01*
X142881948Y-98000000D01*
X143118052Y-98000000D01*
X143351247Y-97963065D01*
X143575802Y-97890102D01*
X143786163Y-97782918D01*
X143786169Y-97782914D01*
X143869104Y-97722658D01*
X143869105Y-97722658D01*
X143129408Y-96982962D01*
X143192993Y-96965925D01*
X143307007Y-96900099D01*
X143400099Y-96807007D01*
X143465925Y-96692993D01*
X143482962Y-96629409D01*
X144222658Y-97369105D01*
X144222658Y-97369104D01*
X144282914Y-97286169D01*
X144282918Y-97286163D01*
X144390102Y-97075802D01*
X144463065Y-96851247D01*
X144500000Y-96618052D01*
X144500000Y-96381947D01*
X144463065Y-96148752D01*
X144390102Y-95924197D01*
X144282914Y-95713828D01*
X144222658Y-95630894D01*
X144222658Y-95630893D01*
X143482962Y-96370590D01*
X143465925Y-96307007D01*
X143400099Y-96192993D01*
X143307007Y-96099901D01*
X143192993Y-96034075D01*
X143129409Y-96017037D01*
X143869105Y-95277340D01*
X143869104Y-95277338D01*
X143786174Y-95217087D01*
X143575802Y-95109897D01*
X143351247Y-95036934D01*
X143351248Y-95036934D01*
X143118052Y-95000000D01*
X142881948Y-95000000D01*
X142648752Y-95036934D01*
X142424197Y-95109897D01*
X142213830Y-95217084D01*
X142130894Y-95277340D01*
X142870591Y-96017037D01*
X142807007Y-96034075D01*
X142692993Y-96099901D01*
X142599901Y-96192993D01*
X142534075Y-96307007D01*
X142517037Y-96370591D01*
X141777340Y-95630894D01*
X141717084Y-95713830D01*
X141609897Y-95924197D01*
X141536934Y-96148752D01*
X141500000Y-96381947D01*
X136800500Y-96381947D01*
X136800500Y-96312229D01*
X136820185Y-96245190D01*
X136836819Y-96224548D01*
X139163719Y-93897648D01*
X148699500Y-93897648D01*
X148699500Y-94102352D01*
X148701915Y-94117597D01*
X148731522Y-94304534D01*
X148794781Y-94499223D01*
X148887715Y-94681613D01*
X149008028Y-94847213D01*
X149152786Y-94991971D01*
X149307749Y-95104556D01*
X149318390Y-95112287D01*
X149434607Y-95171503D01*
X149500776Y-95205218D01*
X149500778Y-95205218D01*
X149500781Y-95205220D01*
X149605137Y-95239127D01*
X149695465Y-95268477D01*
X149796557Y-95284488D01*
X149897648Y-95300500D01*
X149897649Y-95300500D01*
X150102351Y-95300500D01*
X150102352Y-95300500D01*
X150304534Y-95268477D01*
X150499219Y-95205220D01*
X150681610Y-95112287D01*
X150822217Y-95010131D01*
X150847213Y-94991971D01*
X150847215Y-94991968D01*
X150847219Y-94991966D01*
X150991966Y-94847219D01*
X150991968Y-94847215D01*
X150991971Y-94847213D01*
X151044732Y-94774590D01*
X151112287Y-94681610D01*
X151205220Y-94499219D01*
X151268477Y-94304534D01*
X151300500Y-94102352D01*
X151300500Y-93897648D01*
X151268477Y-93695466D01*
X151267864Y-93693580D01*
X151216038Y-93534075D01*
X151205220Y-93500781D01*
X151205218Y-93500778D01*
X151205218Y-93500776D01*
X151118378Y-93330345D01*
X151112287Y-93318390D01*
X151082273Y-93277079D01*
X150991971Y-93152786D01*
X150847213Y-93008028D01*
X150681613Y-92887715D01*
X150681612Y-92887714D01*
X150681610Y-92887713D01*
X150624653Y-92858691D01*
X150499223Y-92794781D01*
X150304534Y-92731522D01*
X150129995Y-92703878D01*
X150102352Y-92699500D01*
X149897648Y-92699500D01*
X149873329Y-92703351D01*
X149695465Y-92731522D01*
X149500776Y-92794781D01*
X149318386Y-92887715D01*
X149152786Y-93008028D01*
X149008028Y-93152786D01*
X148887715Y-93318386D01*
X148794781Y-93500776D01*
X148731522Y-93695465D01*
X148723607Y-93745442D01*
X148699500Y-93897648D01*
X139163719Y-93897648D01*
X140774548Y-92286819D01*
X140835871Y-92253334D01*
X140862229Y-92250500D01*
X141627369Y-92250500D01*
X141694408Y-92270185D01*
X141727685Y-92301613D01*
X141855483Y-92477510D01*
X142022490Y-92644517D01*
X142213567Y-92783343D01*
X142261671Y-92807853D01*
X142424003Y-92890566D01*
X142424005Y-92890566D01*
X142424008Y-92890568D01*
X142544412Y-92929689D01*
X142648631Y-92963553D01*
X142881903Y-93000500D01*
X142881908Y-93000500D01*
X143118097Y-93000500D01*
X143351368Y-92963553D01*
X143358742Y-92961157D01*
X143575992Y-92890568D01*
X143786433Y-92783343D01*
X143977510Y-92644517D01*
X144144517Y-92477510D01*
X144283343Y-92286433D01*
X144390568Y-92075992D01*
X144463553Y-91851368D01*
X144468149Y-91822349D01*
X144500500Y-91618097D01*
X144500500Y-91381902D01*
X144463553Y-91148631D01*
X144421581Y-91019455D01*
X144390568Y-90924008D01*
X144390566Y-90924005D01*
X144390566Y-90924003D01*
X144334002Y-90812991D01*
X144283343Y-90713567D01*
X144144517Y-90522490D01*
X143977510Y-90355483D01*
X143786433Y-90216657D01*
X143575996Y-90109433D01*
X143351368Y-90036446D01*
X143118097Y-89999500D01*
X143118092Y-89999500D01*
X142881908Y-89999500D01*
X142881903Y-89999500D01*
X142648631Y-90036446D01*
X142424003Y-90109433D01*
X142213566Y-90216657D01*
X142108500Y-90292993D01*
X142022490Y-90355483D01*
X142022488Y-90355485D01*
X142022487Y-90355485D01*
X141855485Y-90522487D01*
X141855485Y-90522488D01*
X141855483Y-90522490D01*
X141799169Y-90600000D01*
X141727687Y-90698386D01*
X141672357Y-90741051D01*
X141627369Y-90749500D01*
X140426080Y-90749500D01*
X140281092Y-90778340D01*
X140281082Y-90778343D01*
X140144511Y-90834912D01*
X140144498Y-90834919D01*
X140021584Y-90917048D01*
X140021580Y-90917051D01*
X135467045Y-95471586D01*
X135448395Y-95499501D01*
X135448394Y-95499502D01*
X135384916Y-95594503D01*
X135384914Y-95594506D01*
X135328343Y-95731082D01*
X135328340Y-95731092D01*
X135299500Y-95876079D01*
X135299500Y-103912770D01*
X135279815Y-103979809D01*
X135263181Y-104000451D01*
X135207289Y-104056342D01*
X135115187Y-104205663D01*
X135115185Y-104205668D01*
X135115115Y-104205880D01*
X135060001Y-104372203D01*
X135060001Y-104372204D01*
X135060000Y-104372204D01*
X135049500Y-104474983D01*
X135049500Y-105525001D01*
X135049501Y-105525019D01*
X135060000Y-105627796D01*
X135060001Y-105627799D01*
X135085549Y-105704897D01*
X135115186Y-105794334D01*
X135207096Y-105943345D01*
X135207289Y-105943657D01*
X135300681Y-106037049D01*
X135334166Y-106098372D01*
X135337000Y-106124730D01*
X135337000Y-106925270D01*
X135317315Y-106992309D01*
X135300681Y-107012951D01*
X135232289Y-107081342D01*
X135140187Y-107230663D01*
X135140185Y-107230668D01*
X135125210Y-107275859D01*
X135085001Y-107397203D01*
X135085001Y-107397204D01*
X135085000Y-107397204D01*
X135074500Y-107499983D01*
X135074500Y-108500001D01*
X135074501Y-108500019D01*
X135085000Y-108602796D01*
X135085001Y-108602799D01*
X135103124Y-108657490D01*
X135140186Y-108769334D01*
X135231039Y-108916631D01*
X135249500Y-108981727D01*
X135249500Y-109925270D01*
X135229815Y-109992309D01*
X135213181Y-110012951D01*
X135144789Y-110081342D01*
X135052687Y-110230663D01*
X135052685Y-110230668D01*
X135024849Y-110314670D01*
X134997501Y-110397203D01*
X134997501Y-110397204D01*
X134997500Y-110397204D01*
X134987000Y-110499983D01*
X134987000Y-111500001D01*
X134987001Y-111500019D01*
X134997500Y-111602796D01*
X134997501Y-111602799D01*
X135046445Y-111750500D01*
X135052686Y-111769334D01*
X135144788Y-111918656D01*
X135268844Y-112042712D01*
X135418166Y-112134814D01*
X135584703Y-112189999D01*
X135687491Y-112200500D01*
X136312508Y-112200499D01*
X136312516Y-112200498D01*
X136312519Y-112200498D01*
X136389149Y-112192670D01*
X136415297Y-112189999D01*
X136581834Y-112134814D01*
X136731156Y-112042712D01*
X136824819Y-111949049D01*
X136886142Y-111915564D01*
X136955834Y-111920548D01*
X137000181Y-111949049D01*
X137093844Y-112042712D01*
X137243166Y-112134814D01*
X137409703Y-112189999D01*
X137512491Y-112200500D01*
X138137508Y-112200499D01*
X138137516Y-112200498D01*
X138137519Y-112200498D01*
X138214149Y-112192670D01*
X138240297Y-112189999D01*
X138406834Y-112134814D01*
X138556156Y-112042712D01*
X138680212Y-111918656D01*
X138747599Y-111809402D01*
X138799547Y-111762679D01*
X138853138Y-111750500D01*
X148637770Y-111750500D01*
X148704809Y-111770185D01*
X148725451Y-111786819D01*
X152493181Y-115554549D01*
X152526666Y-115615872D01*
X152529500Y-115642230D01*
X152529500Y-120658142D01*
X152509815Y-120725181D01*
X152493182Y-120745823D01*
X152384134Y-120854871D01*
X152275479Y-121004424D01*
X152191547Y-121169147D01*
X152191546Y-121169150D01*
X152134420Y-121344969D01*
X152132473Y-121357263D01*
X152102543Y-121420397D01*
X152043231Y-121457328D01*
X151973369Y-121456330D01*
X151915136Y-121417719D01*
X151887527Y-121357263D01*
X151887192Y-121355150D01*
X151885580Y-121344971D01*
X151839855Y-121204242D01*
X151828453Y-121169150D01*
X151828452Y-121169147D01*
X151797221Y-121107853D01*
X151744523Y-121004428D01*
X151724524Y-120976902D01*
X151635864Y-120854870D01*
X151635860Y-120854865D01*
X151505134Y-120724139D01*
X151505129Y-120724135D01*
X151355575Y-120615479D01*
X151355574Y-120615478D01*
X151355572Y-120615477D01*
X151302799Y-120588588D01*
X151190852Y-120531547D01*
X151190849Y-120531546D01*
X151015030Y-120474419D01*
X150832440Y-120445500D01*
X150832435Y-120445500D01*
X150647565Y-120445500D01*
X150647560Y-120445500D01*
X150464969Y-120474419D01*
X150289150Y-120531546D01*
X150289147Y-120531547D01*
X150124424Y-120615479D01*
X149974870Y-120724135D01*
X149974865Y-120724139D01*
X149844139Y-120854865D01*
X149844135Y-120854870D01*
X149735479Y-121004424D01*
X149651547Y-121169147D01*
X149651546Y-121169150D01*
X149594420Y-121344969D01*
X149592473Y-121357263D01*
X149562543Y-121420397D01*
X149503231Y-121457328D01*
X149433369Y-121456330D01*
X149375136Y-121417719D01*
X149347527Y-121357263D01*
X149347192Y-121355150D01*
X149345580Y-121344971D01*
X149299855Y-121204242D01*
X149288453Y-121169150D01*
X149288452Y-121169147D01*
X149257221Y-121107853D01*
X149204523Y-121004428D01*
X149184524Y-120976902D01*
X149095864Y-120854870D01*
X149095860Y-120854865D01*
X148965134Y-120724139D01*
X148965129Y-120724135D01*
X148815575Y-120615479D01*
X148815574Y-120615478D01*
X148815572Y-120615477D01*
X148762799Y-120588588D01*
X148650852Y-120531547D01*
X148650849Y-120531546D01*
X148475030Y-120474419D01*
X148292440Y-120445500D01*
X148292435Y-120445500D01*
X148107565Y-120445500D01*
X148107560Y-120445500D01*
X147924969Y-120474419D01*
X147749150Y-120531546D01*
X147749147Y-120531547D01*
X147584424Y-120615479D01*
X147434870Y-120724135D01*
X147434865Y-120724139D01*
X147304139Y-120854865D01*
X147304135Y-120854870D01*
X147195479Y-121004424D01*
X147111547Y-121169147D01*
X147111546Y-121169150D01*
X147054420Y-121344969D01*
X147052473Y-121357263D01*
X147022543Y-121420397D01*
X146963231Y-121457328D01*
X146893369Y-121456330D01*
X146835136Y-121417719D01*
X146807527Y-121357263D01*
X146807192Y-121355150D01*
X146805580Y-121344971D01*
X146759855Y-121204242D01*
X146748453Y-121169150D01*
X146748452Y-121169147D01*
X146717221Y-121107853D01*
X146664523Y-121004428D01*
X146644524Y-120976902D01*
X146555864Y-120854870D01*
X146555860Y-120854865D01*
X146425134Y-120724139D01*
X146425129Y-120724135D01*
X146275575Y-120615479D01*
X146275574Y-120615478D01*
X146275572Y-120615477D01*
X146222799Y-120588588D01*
X146110852Y-120531547D01*
X146110849Y-120531546D01*
X145935030Y-120474419D01*
X145752440Y-120445500D01*
X145752435Y-120445500D01*
X145567565Y-120445500D01*
X145567560Y-120445500D01*
X145384969Y-120474419D01*
X145209150Y-120531546D01*
X145209147Y-120531547D01*
X145044424Y-120615479D01*
X144894870Y-120724135D01*
X144894865Y-120724139D01*
X144764139Y-120854865D01*
X144764135Y-120854870D01*
X144655479Y-121004424D01*
X144571547Y-121169147D01*
X144571546Y-121169150D01*
X144514420Y-121344969D01*
X144512473Y-121357263D01*
X144482543Y-121420397D01*
X144423231Y-121457328D01*
X144353369Y-121456330D01*
X144295136Y-121417719D01*
X144267527Y-121357263D01*
X144267192Y-121355150D01*
X144265580Y-121344971D01*
X144219855Y-121204242D01*
X144208453Y-121169150D01*
X144208452Y-121169147D01*
X144177221Y-121107853D01*
X144124523Y-121004428D01*
X144104524Y-120976902D01*
X144015864Y-120854870D01*
X144015860Y-120854865D01*
X143885134Y-120724139D01*
X143885129Y-120724135D01*
X143735575Y-120615479D01*
X143735574Y-120615478D01*
X143735572Y-120615477D01*
X143682799Y-120588588D01*
X143570852Y-120531547D01*
X143570849Y-120531546D01*
X143395030Y-120474419D01*
X143212440Y-120445500D01*
X143212435Y-120445500D01*
X143027565Y-120445500D01*
X143027560Y-120445500D01*
X142876346Y-120469450D01*
X142807053Y-120460495D01*
X142753601Y-120415499D01*
X142732961Y-120348748D01*
X142742386Y-120299528D01*
X142769737Y-120233497D01*
X142800500Y-120078842D01*
X142800500Y-119921158D01*
X142800500Y-119921155D01*
X142800499Y-119921153D01*
X142769739Y-119766511D01*
X142769738Y-119766508D01*
X142769737Y-119766503D01*
X142759937Y-119742844D01*
X142750500Y-119695396D01*
X142750500Y-114926081D01*
X142750499Y-114926080D01*
X142738068Y-114863582D01*
X142721659Y-114781088D01*
X142665615Y-114645789D01*
X142665301Y-114644831D01*
X142665084Y-114644506D01*
X142665084Y-114644505D01*
X142607512Y-114558342D01*
X142582952Y-114521585D01*
X142582949Y-114521582D01*
X142582947Y-114521579D01*
X141478421Y-113417052D01*
X141478414Y-113417046D01*
X141404729Y-113367812D01*
X141404729Y-113367813D01*
X141355491Y-113334913D01*
X141218917Y-113278343D01*
X141218907Y-113278340D01*
X141073920Y-113249500D01*
X141073918Y-113249500D01*
X138940638Y-113249500D01*
X138873599Y-113229815D01*
X138835099Y-113190597D01*
X138767712Y-113081344D01*
X138643656Y-112957288D01*
X138494334Y-112865186D01*
X138327797Y-112810001D01*
X138327795Y-112810000D01*
X138225010Y-112799500D01*
X137599998Y-112799500D01*
X137599980Y-112799501D01*
X137497203Y-112810000D01*
X137497200Y-112810001D01*
X137330668Y-112865185D01*
X137330663Y-112865187D01*
X137181342Y-112957289D01*
X137087681Y-113050951D01*
X137026358Y-113084436D01*
X136956666Y-113079452D01*
X136912319Y-113050951D01*
X136818657Y-112957289D01*
X136818656Y-112957288D01*
X136669334Y-112865186D01*
X136502797Y-112810001D01*
X136502795Y-112810000D01*
X136400010Y-112799500D01*
X135774998Y-112799500D01*
X135774980Y-112799501D01*
X135672203Y-112810000D01*
X135672200Y-112810001D01*
X135505668Y-112865185D01*
X135505663Y-112865187D01*
X135356342Y-112957289D01*
X135232289Y-113081342D01*
X135140187Y-113230663D01*
X135140186Y-113230666D01*
X135085001Y-113397203D01*
X135085001Y-113397204D01*
X135085000Y-113397204D01*
X135074500Y-113499983D01*
X135074500Y-114500001D01*
X135074501Y-114500019D01*
X135085000Y-114602796D01*
X135085001Y-114602799D01*
X135140185Y-114769331D01*
X135140187Y-114769336D01*
X135232289Y-114918657D01*
X135263181Y-114949549D01*
X135296666Y-115010872D01*
X135299500Y-115037230D01*
X135299500Y-115912770D01*
X135279815Y-115979809D01*
X135263181Y-116000451D01*
X135207289Y-116056342D01*
X135115187Y-116205663D01*
X135115185Y-116205668D01*
X135115115Y-116205880D01*
X135060001Y-116372203D01*
X135060001Y-116372204D01*
X135060000Y-116372204D01*
X135049500Y-116474983D01*
X135049500Y-117525001D01*
X135049501Y-117525019D01*
X135060000Y-117627796D01*
X135060001Y-117627799D01*
X135065535Y-117644498D01*
X135115186Y-117794334D01*
X135207096Y-117943345D01*
X135207289Y-117943657D01*
X135300681Y-118037049D01*
X135334166Y-118098372D01*
X135337000Y-118124730D01*
X135337000Y-118925270D01*
X135317315Y-118992309D01*
X135300681Y-119012951D01*
X135232289Y-119081342D01*
X135140187Y-119230663D01*
X135140185Y-119230668D01*
X135112349Y-119314670D01*
X135085001Y-119397203D01*
X135085001Y-119397204D01*
X135085000Y-119397204D01*
X135074500Y-119499983D01*
X135074500Y-120500001D01*
X135074501Y-120500019D01*
X135085000Y-120602796D01*
X135085001Y-120602799D01*
X135140185Y-120769331D01*
X135140187Y-120769336D01*
X135140435Y-120769738D01*
X135232096Y-120918345D01*
X135232289Y-120918657D01*
X135300681Y-120987049D01*
X135334166Y-121048372D01*
X135337000Y-121074730D01*
X135337000Y-121161418D01*
X135337000Y-121161420D01*
X135336999Y-121161420D01*
X135365840Y-121306407D01*
X135365843Y-121306417D01*
X135422414Y-121442992D01*
X135455312Y-121492227D01*
X135455313Y-121492230D01*
X135504546Y-121565914D01*
X135504552Y-121565921D01*
X136521584Y-122582952D01*
X136521586Y-122582954D01*
X136540364Y-122595500D01*
X136583801Y-122624523D01*
X136644505Y-122665084D01*
X136644506Y-122665084D01*
X136644507Y-122665085D01*
X136778402Y-122720546D01*
X136781087Y-122721658D01*
X136781091Y-122721658D01*
X136781092Y-122721659D01*
X136926079Y-122750500D01*
X136932142Y-122751097D01*
X136996930Y-122777257D01*
X137037290Y-122834290D01*
X137040408Y-122904090D01*
X137005294Y-122964496D01*
X136943097Y-122996328D01*
X136919990Y-122998500D01*
X127111229Y-122998500D01*
X127044190Y-122978815D01*
X127023548Y-122962181D01*
X125786819Y-121725451D01*
X125753334Y-121664128D01*
X125750500Y-121637770D01*
X125750500Y-120885258D01*
X128729500Y-120885258D01*
X128729500Y-121114741D01*
X128751774Y-121283916D01*
X128759452Y-121342238D01*
X128790451Y-121457928D01*
X128818842Y-121563887D01*
X128906650Y-121775876D01*
X128906657Y-121775890D01*
X129021392Y-121974617D01*
X129161081Y-122156661D01*
X129161089Y-122156670D01*
X129323330Y-122318911D01*
X129323338Y-122318918D01*
X129505382Y-122458607D01*
X129505385Y-122458608D01*
X129505388Y-122458611D01*
X129704112Y-122573344D01*
X129704117Y-122573346D01*
X129704123Y-122573349D01*
X129757601Y-122595500D01*
X129916113Y-122661158D01*
X130137762Y-122720548D01*
X130365266Y-122750500D01*
X130365273Y-122750500D01*
X130594727Y-122750500D01*
X130594734Y-122750500D01*
X130822238Y-122720548D01*
X131043887Y-122661158D01*
X131255888Y-122573344D01*
X131454612Y-122458611D01*
X131636661Y-122318919D01*
X131636665Y-122318914D01*
X131636670Y-122318911D01*
X131798911Y-122156670D01*
X131798914Y-122156665D01*
X131798919Y-122156661D01*
X131938611Y-121974612D01*
X132053344Y-121775888D01*
X132141158Y-121563887D01*
X132200548Y-121342238D01*
X132230500Y-121114734D01*
X132230500Y-120885266D01*
X132200548Y-120657762D01*
X132141158Y-120436113D01*
X132065075Y-120252433D01*
X132053349Y-120224123D01*
X132053346Y-120224117D01*
X132053344Y-120224112D01*
X131938611Y-120025388D01*
X131938608Y-120025385D01*
X131938607Y-120025382D01*
X131798918Y-119843338D01*
X131798911Y-119843330D01*
X131636670Y-119681089D01*
X131636661Y-119681081D01*
X131454617Y-119541392D01*
X131439236Y-119532512D01*
X131255888Y-119426656D01*
X131255876Y-119426650D01*
X131043887Y-119338842D01*
X130822238Y-119279452D01*
X130784215Y-119274446D01*
X130594741Y-119249500D01*
X130594734Y-119249500D01*
X130365266Y-119249500D01*
X130365258Y-119249500D01*
X130148715Y-119278009D01*
X130137762Y-119279452D01*
X130044076Y-119304554D01*
X129916112Y-119338842D01*
X129704123Y-119426650D01*
X129704109Y-119426657D01*
X129505382Y-119541392D01*
X129323338Y-119681081D01*
X129161081Y-119843338D01*
X129021392Y-120025382D01*
X128906657Y-120224109D01*
X128906650Y-120224123D01*
X128818842Y-120436112D01*
X128793146Y-120532013D01*
X128766696Y-120630729D01*
X128759453Y-120657759D01*
X128759451Y-120657770D01*
X128729500Y-120885258D01*
X125750500Y-120885258D01*
X125750500Y-117926079D01*
X125721659Y-117781092D01*
X125721658Y-117781091D01*
X125721658Y-117781087D01*
X125716472Y-117768566D01*
X125665087Y-117644511D01*
X125665080Y-117644498D01*
X125582952Y-117521585D01*
X125582951Y-117521584D01*
X125478416Y-117417049D01*
X125115867Y-117054500D01*
X123478421Y-115417052D01*
X123478414Y-115417046D01*
X123404729Y-115367812D01*
X123404729Y-115367813D01*
X123355491Y-115334913D01*
X123218917Y-115278343D01*
X123218907Y-115278340D01*
X123073920Y-115249500D01*
X123073918Y-115249500D01*
X118362229Y-115249500D01*
X118295190Y-115229815D01*
X118274548Y-115213181D01*
X116786819Y-113725451D01*
X116753334Y-113664128D01*
X116750500Y-113637770D01*
X116750500Y-111926079D01*
X116732037Y-111833263D01*
X116730294Y-111824500D01*
X116721659Y-111781088D01*
X116666156Y-111647094D01*
X116665415Y-111645000D01*
X116582954Y-111521588D01*
X116582953Y-111521587D01*
X116582951Y-111521584D01*
X116478416Y-111417049D01*
X115478421Y-110417052D01*
X115478414Y-110417046D01*
X115404729Y-110367812D01*
X115404729Y-110367813D01*
X115355491Y-110334913D01*
X115218917Y-110278343D01*
X115218907Y-110278340D01*
X115073920Y-110249500D01*
X115073918Y-110249500D01*
X113926082Y-110249500D01*
X113926076Y-110249500D01*
X113897242Y-110255234D01*
X113897243Y-110255235D01*
X113781093Y-110278339D01*
X113781083Y-110278342D01*
X113701081Y-110311479D01*
X113701082Y-110311480D01*
X113644505Y-110334915D01*
X113562372Y-110389795D01*
X113521585Y-110417047D01*
X113521581Y-110417050D01*
X112417048Y-111521583D01*
X112417045Y-111521588D01*
X112376045Y-111582951D01*
X112334919Y-111644499D01*
X112334912Y-111644511D01*
X112278343Y-111781082D01*
X112278340Y-111781092D01*
X112249500Y-111926079D01*
X112249500Y-112192670D01*
X112246949Y-112201355D01*
X112248238Y-112210317D01*
X112244576Y-112227265D01*
X112202402Y-112372426D01*
X112202401Y-112372432D01*
X112199500Y-112409298D01*
X112199500Y-113575500D01*
X112196949Y-113584185D01*
X112198238Y-113593147D01*
X112187259Y-113617187D01*
X112179815Y-113642539D01*
X112172974Y-113648466D01*
X112169213Y-113656703D01*
X112146978Y-113670992D01*
X112127011Y-113688294D01*
X112116496Y-113690581D01*
X112110435Y-113694477D01*
X112075500Y-113699500D01*
X112024500Y-113699500D01*
X111957461Y-113679815D01*
X111911706Y-113627011D01*
X111900500Y-113575500D01*
X111900500Y-112409313D01*
X111900499Y-112409298D01*
X111897598Y-112372432D01*
X111897597Y-112372426D01*
X111855424Y-112227265D01*
X111850500Y-112192670D01*
X111850500Y-109516902D01*
X117494500Y-109516902D01*
X117494500Y-109753097D01*
X117531446Y-109986368D01*
X117604433Y-110210996D01*
X117699311Y-110397203D01*
X117711657Y-110421433D01*
X117850483Y-110612510D01*
X118017490Y-110779517D01*
X118208567Y-110918343D01*
X118307991Y-110969002D01*
X118419003Y-111025566D01*
X118419005Y-111025566D01*
X118419008Y-111025568D01*
X118539412Y-111064689D01*
X118643631Y-111098553D01*
X118876903Y-111135500D01*
X118876908Y-111135500D01*
X119113097Y-111135500D01*
X119346368Y-111098553D01*
X119570992Y-111025568D01*
X119781433Y-110918343D01*
X119972510Y-110779517D01*
X120139517Y-110612510D01*
X120278343Y-110421433D01*
X120385568Y-110210992D01*
X120458553Y-109986368D01*
X120477746Y-109865187D01*
X120495500Y-109753097D01*
X120495500Y-109516902D01*
X120458553Y-109283631D01*
X120410198Y-109134812D01*
X120385568Y-109059008D01*
X120385566Y-109059005D01*
X120385566Y-109059003D01*
X120315019Y-108920548D01*
X120278343Y-108848567D01*
X120139517Y-108657490D01*
X119972510Y-108490483D01*
X119913282Y-108447451D01*
X119870617Y-108392122D01*
X119862550Y-108337404D01*
X119864104Y-108317657D01*
X119124408Y-107577962D01*
X119187993Y-107560925D01*
X119302007Y-107495099D01*
X119395099Y-107402007D01*
X119460925Y-107287993D01*
X119477962Y-107224408D01*
X120217658Y-107964105D01*
X120217658Y-107964104D01*
X120277914Y-107881169D01*
X120277918Y-107881163D01*
X120385102Y-107670802D01*
X120458065Y-107446247D01*
X120495000Y-107213052D01*
X120495000Y-106976947D01*
X120458065Y-106743752D01*
X120385102Y-106519197D01*
X120277914Y-106308828D01*
X120217658Y-106225894D01*
X120217658Y-106225893D01*
X119477962Y-106965590D01*
X119460925Y-106902007D01*
X119395099Y-106787993D01*
X119302007Y-106694901D01*
X119187993Y-106629075D01*
X119124409Y-106612037D01*
X119864105Y-105872340D01*
X119864104Y-105872338D01*
X119781174Y-105812087D01*
X119570802Y-105704897D01*
X119346247Y-105631934D01*
X119346248Y-105631934D01*
X119113052Y-105595000D01*
X118876948Y-105595000D01*
X118643752Y-105631934D01*
X118419197Y-105704897D01*
X118208830Y-105812084D01*
X118125894Y-105872340D01*
X118865591Y-106612037D01*
X118802007Y-106629075D01*
X118687993Y-106694901D01*
X118594901Y-106787993D01*
X118529075Y-106902007D01*
X118512037Y-106965591D01*
X117772340Y-106225894D01*
X117712084Y-106308830D01*
X117604897Y-106519197D01*
X117531934Y-106743752D01*
X117495000Y-106976947D01*
X117495000Y-107213052D01*
X117531934Y-107446247D01*
X117604897Y-107670802D01*
X117712087Y-107881174D01*
X117772338Y-107964104D01*
X117772340Y-107964105D01*
X118512037Y-107224408D01*
X118529075Y-107287993D01*
X118594901Y-107402007D01*
X118687993Y-107495099D01*
X118802007Y-107560925D01*
X118865590Y-107577962D01*
X118125893Y-108317658D01*
X118127448Y-108337405D01*
X118113084Y-108405783D01*
X118076717Y-108447451D01*
X118017490Y-108490482D01*
X117850485Y-108657487D01*
X117850485Y-108657488D01*
X117850483Y-108657490D01*
X117790862Y-108739550D01*
X117711657Y-108848566D01*
X117604433Y-109059003D01*
X117531446Y-109283631D01*
X117494500Y-109516902D01*
X111850500Y-109516902D01*
X111850500Y-91907315D01*
X111870185Y-91840276D01*
X111909588Y-91803589D01*
X111909231Y-91803112D01*
X111913675Y-91799784D01*
X111915076Y-91798481D01*
X111916323Y-91797798D01*
X111916331Y-91797796D01*
X112031546Y-91711546D01*
X112117796Y-91596331D01*
X112132511Y-91556879D01*
X112132858Y-91555949D01*
X112168091Y-91461482D01*
X112174500Y-91401873D01*
X112174499Y-91345723D01*
X112194182Y-91278687D01*
X112246986Y-91232931D01*
X112316144Y-91222987D01*
X112379700Y-91252011D01*
X112398817Y-91272839D01*
X112413457Y-91292988D01*
X112413457Y-91292989D01*
X112977037Y-90729409D01*
X112994075Y-90792993D01*
X113059901Y-90907007D01*
X113152993Y-91000099D01*
X113267007Y-91065925D01*
X113330590Y-91082962D01*
X112767009Y-91646541D01*
X112767010Y-91646542D01*
X112802755Y-91672512D01*
X112802768Y-91672520D01*
X112978626Y-91762126D01*
X113166353Y-91823123D01*
X113361303Y-91854000D01*
X113558697Y-91854000D01*
X113753646Y-91823123D01*
X113941373Y-91762126D01*
X114117241Y-91672516D01*
X114152988Y-91646543D01*
X114152988Y-91646541D01*
X113589410Y-91082962D01*
X113652993Y-91065925D01*
X113767007Y-91000099D01*
X113860099Y-90907007D01*
X113925925Y-90792993D01*
X113942962Y-90729409D01*
X114506541Y-91292988D01*
X114506543Y-91292988D01*
X114532516Y-91257241D01*
X114619235Y-91087046D01*
X114667210Y-91036250D01*
X114735031Y-91019455D01*
X114801165Y-91041992D01*
X114840202Y-91087042D01*
X114909470Y-91222987D01*
X114927058Y-91257505D01*
X115043115Y-91417246D01*
X115182753Y-91556884D01*
X115300223Y-91642229D01*
X115342499Y-91672944D01*
X115518439Y-91762591D01*
X115628898Y-91798481D01*
X115706236Y-91823610D01*
X115901264Y-91854500D01*
X115901269Y-91854500D01*
X116098736Y-91854500D01*
X116293763Y-91823610D01*
X116297644Y-91822349D01*
X116481561Y-91762591D01*
X116657501Y-91672944D01*
X116762955Y-91596328D01*
X116817246Y-91556884D01*
X116817248Y-91556881D01*
X116817252Y-91556879D01*
X116956879Y-91417252D01*
X116956881Y-91417248D01*
X116956884Y-91417246D01*
X117072941Y-91257505D01*
X117072942Y-91257504D01*
X117072944Y-91257501D01*
X117159517Y-91087593D01*
X117207490Y-91036800D01*
X117275311Y-91020005D01*
X117341446Y-91042542D01*
X117380482Y-91087593D01*
X117411584Y-91148632D01*
X117467058Y-91257505D01*
X117583115Y-91417246D01*
X117722753Y-91556884D01*
X117840223Y-91642229D01*
X117882499Y-91672944D01*
X118058439Y-91762591D01*
X118168898Y-91798481D01*
X118246236Y-91823610D01*
X118441264Y-91854500D01*
X118441269Y-91854500D01*
X118638736Y-91854500D01*
X118833763Y-91823610D01*
X118837644Y-91822349D01*
X119021561Y-91762591D01*
X119197501Y-91672944D01*
X119302955Y-91596328D01*
X119357246Y-91556884D01*
X119357248Y-91556881D01*
X119357252Y-91556879D01*
X119496879Y-91417252D01*
X119496881Y-91417248D01*
X119496884Y-91417246D01*
X119548845Y-91345727D01*
X119612944Y-91257501D01*
X119649754Y-91185258D01*
X128729500Y-91185258D01*
X128729500Y-91414741D01*
X128748214Y-91556879D01*
X128759452Y-91642238D01*
X128808050Y-91823610D01*
X128818842Y-91863887D01*
X128906650Y-92075876D01*
X128906657Y-92075890D01*
X129021392Y-92274617D01*
X129161081Y-92456661D01*
X129161089Y-92456670D01*
X129323330Y-92618911D01*
X129323338Y-92618918D01*
X129505382Y-92758607D01*
X129505385Y-92758608D01*
X129505388Y-92758611D01*
X129704112Y-92873344D01*
X129704117Y-92873346D01*
X129704123Y-92873349D01*
X129745689Y-92890566D01*
X129916113Y-92961158D01*
X130137762Y-93020548D01*
X130365266Y-93050500D01*
X130365273Y-93050500D01*
X130594727Y-93050500D01*
X130594734Y-93050500D01*
X130822238Y-93020548D01*
X131043887Y-92961158D01*
X131255888Y-92873344D01*
X131454612Y-92758611D01*
X131636661Y-92618919D01*
X131636665Y-92618914D01*
X131636670Y-92618911D01*
X131798911Y-92456670D01*
X131798914Y-92456665D01*
X131798919Y-92456661D01*
X131938611Y-92274612D01*
X132053344Y-92075888D01*
X132141158Y-91863887D01*
X132200548Y-91642238D01*
X132230500Y-91414734D01*
X132230500Y-91185266D01*
X132200548Y-90957762D01*
X132141158Y-90736113D01*
X132053344Y-90524112D01*
X131938611Y-90325388D01*
X131938608Y-90325385D01*
X131938607Y-90325382D01*
X131827468Y-90180544D01*
X131798919Y-90143339D01*
X131798918Y-90143338D01*
X131798911Y-90143330D01*
X131636670Y-89981089D01*
X131636661Y-89981081D01*
X131454617Y-89841392D01*
X131379681Y-89798128D01*
X131353051Y-89782753D01*
X131255890Y-89726657D01*
X131255876Y-89726650D01*
X131043887Y-89638842D01*
X130822238Y-89579452D01*
X130784215Y-89574446D01*
X130594741Y-89549500D01*
X130594734Y-89549500D01*
X130365266Y-89549500D01*
X130365258Y-89549500D01*
X130148715Y-89578009D01*
X130137762Y-89579452D01*
X130047401Y-89603664D01*
X129916112Y-89638842D01*
X129704123Y-89726650D01*
X129704109Y-89726657D01*
X129505382Y-89841392D01*
X129323338Y-89981081D01*
X129161081Y-90143338D01*
X129021392Y-90325382D01*
X128906657Y-90524109D01*
X128906650Y-90524123D01*
X128818842Y-90736112D01*
X128759453Y-90957759D01*
X128759451Y-90957770D01*
X128729500Y-91185258D01*
X119649754Y-91185258D01*
X119702591Y-91081561D01*
X119763610Y-90893763D01*
X119772930Y-90834919D01*
X119794500Y-90698736D01*
X119794500Y-90501263D01*
X119763610Y-90306236D01*
X119710681Y-90143338D01*
X119702591Y-90118439D01*
X119612944Y-89942499D01*
X119582430Y-89900500D01*
X119496884Y-89782753D01*
X119357246Y-89643115D01*
X119197504Y-89527058D01*
X119197503Y-89527057D01*
X119197501Y-89527056D01*
X119021561Y-89437409D01*
X119021558Y-89437408D01*
X118833763Y-89376389D01*
X118638736Y-89345500D01*
X118638731Y-89345500D01*
X118441269Y-89345500D01*
X118441264Y-89345500D01*
X118246236Y-89376389D01*
X118058441Y-89437408D01*
X118058439Y-89437408D01*
X118058439Y-89437409D01*
X118037897Y-89447876D01*
X117882495Y-89527058D01*
X117722753Y-89643115D01*
X117583115Y-89782753D01*
X117467058Y-89942495D01*
X117467056Y-89942499D01*
X117381999Y-90109432D01*
X117380485Y-90112403D01*
X117332510Y-90163199D01*
X117264689Y-90179994D01*
X117198554Y-90157456D01*
X117159515Y-90112403D01*
X117158002Y-90109433D01*
X117072944Y-89942499D01*
X117042430Y-89900500D01*
X116956884Y-89782753D01*
X116817246Y-89643115D01*
X116657504Y-89527058D01*
X116657503Y-89527057D01*
X116657501Y-89527056D01*
X116481561Y-89437409D01*
X116481558Y-89437408D01*
X116293763Y-89376389D01*
X116098736Y-89345500D01*
X116098731Y-89345500D01*
X115901269Y-89345500D01*
X115901264Y-89345500D01*
X115706236Y-89376389D01*
X115518441Y-89437408D01*
X115518439Y-89437408D01*
X115518439Y-89437409D01*
X115497897Y-89447876D01*
X115342495Y-89527058D01*
X115182753Y-89643115D01*
X115043115Y-89782753D01*
X114927058Y-89942495D01*
X114927056Y-89942499D01*
X114840203Y-90112954D01*
X114792230Y-90163749D01*
X114724409Y-90180544D01*
X114658274Y-90158006D01*
X114619235Y-90112953D01*
X114532520Y-89942768D01*
X114532512Y-89942755D01*
X114506542Y-89907010D01*
X114506541Y-89907009D01*
X113942962Y-90470589D01*
X113925925Y-90407007D01*
X113860099Y-90292993D01*
X113767007Y-90199901D01*
X113652993Y-90134075D01*
X113589409Y-90117037D01*
X114152989Y-89553457D01*
X114117239Y-89527483D01*
X113941373Y-89437873D01*
X113753646Y-89376876D01*
X113558697Y-89346000D01*
X113361303Y-89346000D01*
X113166353Y-89376876D01*
X112978626Y-89437873D01*
X112802762Y-89527482D01*
X112802760Y-89527483D01*
X112767010Y-89553456D01*
X112767010Y-89553457D01*
X113330591Y-90117037D01*
X113267007Y-90134075D01*
X113152993Y-90199901D01*
X113059901Y-90292993D01*
X112994075Y-90407007D01*
X112977037Y-90470590D01*
X112413457Y-89907010D01*
X112413456Y-89907010D01*
X112398818Y-89927159D01*
X112343489Y-89969826D01*
X112273875Y-89975806D01*
X112212080Y-89943200D01*
X112177722Y-89882362D01*
X112174499Y-89854275D01*
X112174499Y-89798129D01*
X112174498Y-89798123D01*
X112174497Y-89798116D01*
X112168091Y-89738517D01*
X112132511Y-89643121D01*
X112117797Y-89603671D01*
X112117793Y-89603664D01*
X112031547Y-89488455D01*
X112031544Y-89488452D01*
X111916335Y-89402206D01*
X111916328Y-89402202D01*
X111781482Y-89351908D01*
X111781483Y-89351908D01*
X111721883Y-89345501D01*
X111721881Y-89345500D01*
X111721873Y-89345500D01*
X111721864Y-89345500D01*
X110118129Y-89345500D01*
X110118123Y-89345501D01*
X110058516Y-89351908D01*
X109923671Y-89402202D01*
X109923664Y-89402206D01*
X109808455Y-89488452D01*
X109808452Y-89488455D01*
X109722206Y-89603664D01*
X109722202Y-89603671D01*
X109671908Y-89738517D01*
X109667153Y-89782748D01*
X109665501Y-89798123D01*
X109665500Y-89798135D01*
X109665500Y-91401870D01*
X109665501Y-91401876D01*
X109671908Y-91461483D01*
X109722202Y-91596328D01*
X109722206Y-91596335D01*
X109808452Y-91711544D01*
X109808455Y-91711547D01*
X109923664Y-91797793D01*
X109923671Y-91797797D01*
X109968618Y-91814561D01*
X110058517Y-91848091D01*
X110118127Y-91854500D01*
X110225500Y-91854499D01*
X110292539Y-91874183D01*
X110338294Y-91926987D01*
X110349500Y-91978499D01*
X110349500Y-112192670D01*
X110344576Y-112227265D01*
X110302402Y-112372426D01*
X110302401Y-112372432D01*
X110299500Y-112409298D01*
X110299500Y-113715701D01*
X110302401Y-113752567D01*
X110302402Y-113752573D01*
X110348254Y-113910393D01*
X110348255Y-113910396D01*
X110431917Y-114051862D01*
X110431923Y-114051870D01*
X110548129Y-114168076D01*
X110548133Y-114168079D01*
X110548135Y-114168081D01*
X110689602Y-114251744D01*
X110731224Y-114263836D01*
X110847426Y-114297597D01*
X110847429Y-114297597D01*
X110847431Y-114297598D01*
X110884306Y-114300500D01*
X111125500Y-114300500D01*
X111192539Y-114320185D01*
X111238294Y-114372989D01*
X111249500Y-114424500D01*
X111249500Y-115590701D01*
X111252401Y-115627567D01*
X111252402Y-115627573D01*
X111294576Y-115772733D01*
X111299500Y-115807328D01*
X111299500Y-118705343D01*
X111290062Y-118752794D01*
X111278341Y-118781091D01*
X111278340Y-118781094D01*
X111249500Y-118926080D01*
X111249500Y-118926083D01*
X111249500Y-119073917D01*
X111249500Y-119073919D01*
X111249499Y-119073919D01*
X111278340Y-119218906D01*
X111278342Y-119218912D01*
X111329091Y-119341433D01*
X111334916Y-119355494D01*
X111417048Y-119478416D01*
X111417051Y-119478419D01*
X111417052Y-119478420D01*
X111417052Y-119478421D01*
X113616580Y-121677948D01*
X113616584Y-121677951D01*
X113739498Y-121760080D01*
X113739511Y-121760087D01*
X113796444Y-121783669D01*
X113876087Y-121816658D01*
X113876091Y-121816658D01*
X113876092Y-121816659D01*
X114021079Y-121845500D01*
X114021082Y-121845500D01*
X114168917Y-121845500D01*
X117622369Y-121845500D01*
X117689408Y-121865185D01*
X117722685Y-121896613D01*
X117850483Y-122072510D01*
X118017490Y-122239517D01*
X118208567Y-122378343D01*
X118307991Y-122429002D01*
X118419003Y-122485566D01*
X118419005Y-122485566D01*
X118419008Y-122485568D01*
X118512228Y-122515857D01*
X118643631Y-122558553D01*
X118876903Y-122595500D01*
X118876908Y-122595500D01*
X119113097Y-122595500D01*
X119346368Y-122558553D01*
X119386510Y-122545510D01*
X119570992Y-122485568D01*
X119781433Y-122378343D01*
X119972510Y-122239517D01*
X120139517Y-122072510D01*
X120278343Y-121881433D01*
X120385568Y-121670992D01*
X120458553Y-121446368D01*
X120459088Y-121442992D01*
X120495500Y-121213097D01*
X120495500Y-120976902D01*
X120458553Y-120743631D01*
X120389794Y-120532014D01*
X120385568Y-120519008D01*
X120385566Y-120519005D01*
X120385566Y-120519003D01*
X120314325Y-120379185D01*
X120278343Y-120308567D01*
X120139517Y-120117490D01*
X119972510Y-119950483D01*
X119937872Y-119925317D01*
X119895207Y-119869989D01*
X119889228Y-119800375D01*
X119921833Y-119738580D01*
X119937873Y-119724682D01*
X119972510Y-119699517D01*
X120139517Y-119532510D01*
X120278343Y-119341433D01*
X120385568Y-119130992D01*
X120458553Y-118906368D01*
X120465003Y-118865643D01*
X120495500Y-118673097D01*
X120495500Y-118436902D01*
X120458553Y-118203631D01*
X120391858Y-117998368D01*
X120385568Y-117979008D01*
X120385566Y-117979005D01*
X120385566Y-117979003D01*
X120291362Y-117794119D01*
X120278343Y-117768567D01*
X120139517Y-117577490D01*
X119972510Y-117410483D01*
X119781433Y-117271657D01*
X119738929Y-117250000D01*
X119570996Y-117164433D01*
X119346368Y-117091446D01*
X119113097Y-117054500D01*
X119113092Y-117054500D01*
X118876908Y-117054500D01*
X118876903Y-117054500D01*
X118643631Y-117091446D01*
X118419003Y-117164433D01*
X118208566Y-117271657D01*
X118099550Y-117350862D01*
X118017490Y-117410483D01*
X118017488Y-117410485D01*
X118017487Y-117410485D01*
X117850485Y-117577487D01*
X117850485Y-117577488D01*
X117850483Y-117577490D01*
X117813933Y-117627797D01*
X117711657Y-117768566D01*
X117604433Y-117979003D01*
X117531446Y-118203631D01*
X117494500Y-118436902D01*
X117494500Y-118673097D01*
X117531446Y-118906368D01*
X117604433Y-119130996D01*
X117710337Y-119338842D01*
X117711657Y-119341433D01*
X117850483Y-119532510D01*
X118017490Y-119699517D01*
X118052127Y-119724683D01*
X118094792Y-119780013D01*
X118100771Y-119849626D01*
X118068165Y-119911421D01*
X118052130Y-119925315D01*
X118034365Y-119938222D01*
X118017488Y-119950484D01*
X117850485Y-120117487D01*
X117850485Y-120117488D01*
X117850483Y-120117490D01*
X117722687Y-120293386D01*
X117667357Y-120336051D01*
X117622369Y-120344500D01*
X114457229Y-120344500D01*
X114390190Y-120324815D01*
X114369548Y-120308181D01*
X112836819Y-118775451D01*
X112803334Y-118714128D01*
X112800500Y-118687770D01*
X112800500Y-115807328D01*
X112805424Y-115772733D01*
X112847597Y-115627573D01*
X112847598Y-115627567D01*
X112850500Y-115590694D01*
X112850500Y-114424500D01*
X112870185Y-114357461D01*
X112922989Y-114311706D01*
X112974500Y-114300500D01*
X113215686Y-114300500D01*
X113215694Y-114300500D01*
X113252569Y-114297598D01*
X113252571Y-114297597D01*
X113252573Y-114297597D01*
X113294191Y-114285505D01*
X113410398Y-114251744D01*
X113551865Y-114168081D01*
X113668081Y-114051865D01*
X113751744Y-113910398D01*
X113797598Y-113752569D01*
X113800500Y-113715694D01*
X113800500Y-112409306D01*
X113797598Y-112372431D01*
X113793595Y-112358653D01*
X113793794Y-112288784D01*
X113824988Y-112236378D01*
X114274548Y-111786819D01*
X114335871Y-111753334D01*
X114362229Y-111750500D01*
X114637770Y-111750500D01*
X114704809Y-111770185D01*
X114725451Y-111786819D01*
X115213181Y-112274548D01*
X115246666Y-112335871D01*
X115249500Y-112362229D01*
X115249500Y-114073918D01*
X115249500Y-114073920D01*
X115249499Y-114073920D01*
X115278340Y-114218907D01*
X115278343Y-114218917D01*
X115334912Y-114355488D01*
X115334920Y-114355502D01*
X115359970Y-114392991D01*
X115359971Y-114392994D01*
X115417046Y-114478414D01*
X115417052Y-114478421D01*
X117417049Y-116478416D01*
X117521584Y-116582951D01*
X117521585Y-116582952D01*
X117644498Y-116665080D01*
X117644511Y-116665087D01*
X117781082Y-116721656D01*
X117781087Y-116721658D01*
X117781091Y-116721658D01*
X117781092Y-116721659D01*
X117926079Y-116750500D01*
X117926082Y-116750500D01*
X117926083Y-116750500D01*
X118073917Y-116750500D01*
X122637770Y-116750500D01*
X122704809Y-116770185D01*
X122725451Y-116786819D01*
X124213181Y-118274548D01*
X124246666Y-118335871D01*
X124249500Y-118362229D01*
X124249500Y-122073918D01*
X124249500Y-122073920D01*
X124249499Y-122073920D01*
X124278340Y-122218907D01*
X124278343Y-122218917D01*
X124334914Y-122355492D01*
X124334915Y-122355494D01*
X124334916Y-122355495D01*
X124354721Y-122385136D01*
X124367812Y-122404727D01*
X124367813Y-122404730D01*
X124417046Y-122478414D01*
X124417052Y-122478421D01*
X125726452Y-123787819D01*
X125759937Y-123849142D01*
X125754953Y-123918833D01*
X125713082Y-123974767D01*
X125647617Y-123999184D01*
X125638771Y-123999500D01*
X94624500Y-123999500D01*
X94557461Y-123979815D01*
X94511706Y-123927011D01*
X94500500Y-123875500D01*
X94500500Y-121972433D01*
X94520185Y-121905394D01*
X94572989Y-121859639D01*
X94642147Y-121849695D01*
X94705703Y-121878720D01*
X94724816Y-121899545D01*
X94850483Y-122072510D01*
X95017490Y-122239517D01*
X95208567Y-122378343D01*
X95307991Y-122429002D01*
X95419003Y-122485566D01*
X95419005Y-122485566D01*
X95419008Y-122485568D01*
X95512228Y-122515857D01*
X95643631Y-122558553D01*
X95876903Y-122595500D01*
X95876908Y-122595500D01*
X96113097Y-122595500D01*
X96346368Y-122558553D01*
X96386510Y-122545510D01*
X96570992Y-122485568D01*
X96781433Y-122378343D01*
X96972510Y-122239517D01*
X97139517Y-122072510D01*
X97271561Y-121890766D01*
X97326891Y-121848101D01*
X97396504Y-121842122D01*
X97458299Y-121874728D01*
X97479266Y-121901652D01*
X97521392Y-121974617D01*
X97661081Y-122156661D01*
X97661089Y-122156670D01*
X97823330Y-122318911D01*
X97823338Y-122318918D01*
X98005382Y-122458607D01*
X98005385Y-122458608D01*
X98005388Y-122458611D01*
X98204112Y-122573344D01*
X98204117Y-122573346D01*
X98204123Y-122573349D01*
X98257601Y-122595500D01*
X98416113Y-122661158D01*
X98637762Y-122720548D01*
X98865266Y-122750500D01*
X98865273Y-122750500D01*
X99094727Y-122750500D01*
X99094734Y-122750500D01*
X99322238Y-122720548D01*
X99543887Y-122661158D01*
X99755888Y-122573344D01*
X99954612Y-122458611D01*
X100136661Y-122318919D01*
X100136665Y-122318914D01*
X100136670Y-122318911D01*
X100298911Y-122156670D01*
X100298914Y-122156665D01*
X100298919Y-122156661D01*
X100438611Y-121974612D01*
X100553344Y-121775888D01*
X100641158Y-121563887D01*
X100700548Y-121342238D01*
X100730500Y-121114734D01*
X100730500Y-120885266D01*
X100700548Y-120657762D01*
X100641158Y-120436113D01*
X100565075Y-120252433D01*
X100553349Y-120224123D01*
X100553346Y-120224117D01*
X100553344Y-120224112D01*
X100438611Y-120025388D01*
X100438608Y-120025385D01*
X100438607Y-120025382D01*
X100298918Y-119843338D01*
X100298911Y-119843330D01*
X100136670Y-119681089D01*
X100136661Y-119681081D01*
X99954617Y-119541392D01*
X99939236Y-119532512D01*
X99755888Y-119426656D01*
X99755876Y-119426650D01*
X99543887Y-119338842D01*
X99322238Y-119279452D01*
X99284215Y-119274446D01*
X99094741Y-119249500D01*
X99094734Y-119249500D01*
X98865266Y-119249500D01*
X98865258Y-119249500D01*
X98648715Y-119278009D01*
X98637762Y-119279452D01*
X98544076Y-119304554D01*
X98416112Y-119338842D01*
X98204123Y-119426650D01*
X98204109Y-119426657D01*
X98005382Y-119541392D01*
X97823338Y-119681081D01*
X97661081Y-119843338D01*
X97521392Y-120025382D01*
X97418142Y-120204217D01*
X97367575Y-120252433D01*
X97298968Y-120265655D01*
X97234103Y-120239687D01*
X97210437Y-120215103D01*
X97202528Y-120204217D01*
X97139517Y-120117490D01*
X96972510Y-119950483D01*
X96781433Y-119811657D01*
X96759291Y-119800375D01*
X96570996Y-119704433D01*
X96346368Y-119631446D01*
X96113097Y-119594500D01*
X96113092Y-119594500D01*
X95876908Y-119594500D01*
X95876903Y-119594500D01*
X95643631Y-119631446D01*
X95419003Y-119704433D01*
X95208566Y-119811657D01*
X95156307Y-119849626D01*
X95017490Y-119950483D01*
X95017488Y-119950485D01*
X95017487Y-119950485D01*
X94850485Y-120117487D01*
X94850485Y-120117488D01*
X94850483Y-120117490D01*
X94806875Y-120177511D01*
X94724818Y-120290452D01*
X94669488Y-120333117D01*
X94599874Y-120339096D01*
X94538079Y-120306490D01*
X94503722Y-120245651D01*
X94500500Y-120217566D01*
X94500500Y-107972433D01*
X94520185Y-107905394D01*
X94572989Y-107859639D01*
X94642147Y-107849695D01*
X94705703Y-107878720D01*
X94724816Y-107899545D01*
X94850483Y-108072510D01*
X95017490Y-108239517D01*
X95208567Y-108378343D01*
X95262421Y-108405783D01*
X95419003Y-108485566D01*
X95419005Y-108485566D01*
X95419008Y-108485568D01*
X95539412Y-108524689D01*
X95643631Y-108558553D01*
X95876903Y-108595500D01*
X95876908Y-108595500D01*
X96113097Y-108595500D01*
X96346368Y-108558553D01*
X96570992Y-108485568D01*
X96781433Y-108378343D01*
X96972510Y-108239517D01*
X97139517Y-108072510D01*
X97278343Y-107881433D01*
X97385568Y-107670992D01*
X97458553Y-107446368D01*
X97476205Y-107334919D01*
X97495500Y-107213097D01*
X97495500Y-106976902D01*
X97458553Y-106743631D01*
X97393581Y-106543669D01*
X97385568Y-106519008D01*
X97385566Y-106519005D01*
X97385566Y-106519003D01*
X97293898Y-106339096D01*
X97278343Y-106308567D01*
X97139517Y-106117490D01*
X96972510Y-105950483D01*
X96781433Y-105811657D01*
X96730370Y-105785639D01*
X96570996Y-105704433D01*
X96346368Y-105631446D01*
X96113097Y-105594500D01*
X96113092Y-105594500D01*
X95876908Y-105594500D01*
X95876903Y-105594500D01*
X95643631Y-105631446D01*
X95419003Y-105704433D01*
X95208566Y-105811657D01*
X95125047Y-105872338D01*
X95017490Y-105950483D01*
X95017488Y-105950485D01*
X95017487Y-105950485D01*
X94850485Y-106117487D01*
X94850485Y-106117488D01*
X94850483Y-106117490D01*
X94806724Y-106177719D01*
X94724818Y-106290452D01*
X94669488Y-106333117D01*
X94599874Y-106339096D01*
X94538079Y-106306490D01*
X94503722Y-106245651D01*
X94500500Y-106217566D01*
X94500500Y-99298135D01*
X97633000Y-99298135D01*
X97633000Y-100701870D01*
X97633001Y-100701876D01*
X97639408Y-100761483D01*
X97689702Y-100896328D01*
X97689706Y-100896335D01*
X97775952Y-101011544D01*
X97775955Y-101011547D01*
X97874132Y-101085043D01*
X97916003Y-101140977D01*
X97920987Y-101210668D01*
X97900139Y-101257194D01*
X97800085Y-101394906D01*
X97717583Y-101556825D01*
X97717581Y-101556828D01*
X97661428Y-101729649D01*
X97661428Y-101729652D01*
X97639961Y-101865187D01*
X97633000Y-101909139D01*
X97633000Y-102090861D01*
X97636932Y-102115685D01*
X97661428Y-102270347D01*
X97661428Y-102270350D01*
X97717581Y-102443171D01*
X97717583Y-102443174D01*
X97800083Y-102605090D01*
X97906897Y-102752106D01*
X98035394Y-102880603D01*
X98182410Y-102987417D01*
X98344326Y-103069917D01*
X98344328Y-103069918D01*
X98505529Y-103122294D01*
X98517154Y-103126072D01*
X98696639Y-103154500D01*
X98696640Y-103154500D01*
X98878360Y-103154500D01*
X98878361Y-103154500D01*
X99057846Y-103126072D01*
X99057849Y-103126071D01*
X99057850Y-103126071D01*
X99230671Y-103069918D01*
X99230671Y-103069917D01*
X99230674Y-103069917D01*
X99392590Y-102987417D01*
X99539606Y-102880603D01*
X99668103Y-102752106D01*
X99774917Y-102605090D01*
X99857417Y-102443174D01*
X99913572Y-102270346D01*
X99942000Y-102090861D01*
X99942000Y-101909139D01*
X99913572Y-101729654D01*
X99913571Y-101729650D01*
X99913571Y-101729649D01*
X99857418Y-101556828D01*
X99857416Y-101556825D01*
X99817468Y-101478421D01*
X99774917Y-101394910D01*
X99674859Y-101257193D01*
X99651380Y-101191389D01*
X99667205Y-101123335D01*
X99700864Y-101085044D01*
X99799046Y-101011546D01*
X99885296Y-100896331D01*
X99935591Y-100761483D01*
X99942000Y-100701873D01*
X99941999Y-99298128D01*
X99935591Y-99238517D01*
X99885296Y-99103669D01*
X99885295Y-99103668D01*
X99885293Y-99103664D01*
X99799047Y-98988455D01*
X99799044Y-98988452D01*
X99683835Y-98902206D01*
X99683828Y-98902202D01*
X99548982Y-98851908D01*
X99548983Y-98851908D01*
X99489383Y-98845501D01*
X99489381Y-98845500D01*
X99489373Y-98845500D01*
X99489364Y-98845500D01*
X98085629Y-98845500D01*
X98085623Y-98845501D01*
X98026016Y-98851908D01*
X97891171Y-98902202D01*
X97891164Y-98902206D01*
X97775955Y-98988452D01*
X97775952Y-98988455D01*
X97689706Y-99103664D01*
X97689702Y-99103671D01*
X97639408Y-99238517D01*
X97635535Y-99274548D01*
X97633001Y-99298123D01*
X97633000Y-99298135D01*
X94500500Y-99298135D01*
X94500500Y-91185258D01*
X97229500Y-91185258D01*
X97229500Y-91414741D01*
X97248214Y-91556879D01*
X97259452Y-91642238D01*
X97308050Y-91823610D01*
X97318842Y-91863887D01*
X97406650Y-92075876D01*
X97406657Y-92075890D01*
X97521392Y-92274617D01*
X97661081Y-92456661D01*
X97661089Y-92456670D01*
X97823330Y-92618911D01*
X97823338Y-92618918D01*
X98005382Y-92758607D01*
X98005385Y-92758608D01*
X98005388Y-92758611D01*
X98204112Y-92873344D01*
X98204117Y-92873346D01*
X98204123Y-92873349D01*
X98245689Y-92890566D01*
X98416113Y-92961158D01*
X98637762Y-93020548D01*
X98865266Y-93050500D01*
X98865273Y-93050500D01*
X99094727Y-93050500D01*
X99094734Y-93050500D01*
X99322238Y-93020548D01*
X99543887Y-92961158D01*
X99755888Y-92873344D01*
X99954612Y-92758611D01*
X100136661Y-92618919D01*
X100136665Y-92618914D01*
X100136670Y-92618911D01*
X100298911Y-92456670D01*
X100298914Y-92456665D01*
X100298919Y-92456661D01*
X100438611Y-92274612D01*
X100553344Y-92075888D01*
X100641158Y-91863887D01*
X100700548Y-91642238D01*
X100730500Y-91414734D01*
X100730500Y-91185266D01*
X100700548Y-90957762D01*
X100641158Y-90736113D01*
X100553344Y-90524112D01*
X100438611Y-90325388D01*
X100438608Y-90325385D01*
X100438607Y-90325382D01*
X100327468Y-90180544D01*
X100298919Y-90143339D01*
X100298918Y-90143338D01*
X100298911Y-90143330D01*
X100136670Y-89981089D01*
X100136661Y-89981081D01*
X99954617Y-89841392D01*
X99879681Y-89798128D01*
X99853051Y-89782753D01*
X99755890Y-89726657D01*
X99755876Y-89726650D01*
X99543887Y-89638842D01*
X99322238Y-89579452D01*
X99284215Y-89574446D01*
X99094741Y-89549500D01*
X99094734Y-89549500D01*
X98865266Y-89549500D01*
X98865258Y-89549500D01*
X98648715Y-89578009D01*
X98637762Y-89579452D01*
X98547401Y-89603664D01*
X98416112Y-89638842D01*
X98204123Y-89726650D01*
X98204109Y-89726657D01*
X98005382Y-89841392D01*
X97823338Y-89981081D01*
X97661081Y-90143338D01*
X97521392Y-90325382D01*
X97406657Y-90524109D01*
X97406650Y-90524123D01*
X97318842Y-90736112D01*
X97259453Y-90957759D01*
X97259451Y-90957770D01*
X97229500Y-91185258D01*
X94500500Y-91185258D01*
X94500500Y-87124500D01*
X94520185Y-87057461D01*
X94572989Y-87011706D01*
X94624500Y-87000500D01*
X147836231Y-87000500D01*
X147903270Y-87020185D01*
G37*
%TD.AperFunction*%
%TA.AperFunction,Conductor*%
G36*
X140704809Y-114770185D02*
G01*
X140725451Y-114786819D01*
X141213181Y-115274548D01*
X141246666Y-115335871D01*
X141249500Y-115362229D01*
X141249500Y-119695396D01*
X141240062Y-119742844D01*
X141237099Y-119750000D01*
X141230262Y-119766506D01*
X141230260Y-119766511D01*
X141199500Y-119921153D01*
X141199500Y-120078846D01*
X141230261Y-120233489D01*
X141230264Y-120233501D01*
X141290602Y-120379172D01*
X141290609Y-120379185D01*
X141378210Y-120510288D01*
X141378213Y-120510292D01*
X141489707Y-120621786D01*
X141489711Y-120621789D01*
X141620814Y-120709390D01*
X141620827Y-120709397D01*
X141756679Y-120765668D01*
X141766503Y-120769737D01*
X141921153Y-120800499D01*
X141921156Y-120800500D01*
X142020275Y-120800500D01*
X142087314Y-120820185D01*
X142133069Y-120872989D01*
X142143013Y-120942147D01*
X142130213Y-120981856D01*
X142125976Y-120989977D01*
X142115477Y-121004428D01*
X142031548Y-121169148D01*
X142029975Y-121173988D01*
X142025349Y-121182856D01*
X142004757Y-121204242D01*
X141986136Y-121227353D01*
X141980793Y-121229131D01*
X141976888Y-121233188D01*
X141948008Y-121240045D01*
X141919843Y-121249421D01*
X141915411Y-121249500D01*
X138735523Y-121249500D01*
X138668484Y-121229815D01*
X138622729Y-121177011D01*
X138612785Y-121107853D01*
X138641810Y-121044297D01*
X138647842Y-121037819D01*
X138767315Y-120918345D01*
X138859356Y-120769124D01*
X138859358Y-120769119D01*
X138914505Y-120602697D01*
X138914506Y-120602690D01*
X138924999Y-120499986D01*
X138925000Y-120499973D01*
X138925000Y-120250000D01*
X138036500Y-120250000D01*
X137969461Y-120230315D01*
X137923706Y-120177511D01*
X137912500Y-120126000D01*
X137912500Y-120000000D01*
X137786500Y-120000000D01*
X137719461Y-119980315D01*
X137673706Y-119927511D01*
X137662500Y-119876000D01*
X137662500Y-119750000D01*
X138162500Y-119750000D01*
X138924999Y-119750000D01*
X138924999Y-119500028D01*
X138924998Y-119500013D01*
X138914505Y-119397302D01*
X138859358Y-119230880D01*
X138859356Y-119230875D01*
X138767315Y-119081654D01*
X138643345Y-118957684D01*
X138494124Y-118865643D01*
X138494119Y-118865641D01*
X138327697Y-118810494D01*
X138327690Y-118810493D01*
X138224986Y-118800000D01*
X138162500Y-118800000D01*
X138162500Y-119750000D01*
X137662500Y-119750000D01*
X137662500Y-118800000D01*
X137662499Y-118799999D01*
X137600028Y-118800000D01*
X137600011Y-118800001D01*
X137497302Y-118810494D01*
X137330880Y-118865641D01*
X137330875Y-118865643D01*
X137181657Y-118957682D01*
X137088034Y-119051305D01*
X137080087Y-119055643D01*
X137074663Y-119062890D01*
X137049903Y-119072124D01*
X137026710Y-119084789D01*
X137017681Y-119084143D01*
X137009199Y-119087307D01*
X136983378Y-119081690D01*
X136957019Y-119079805D01*
X136947965Y-119073986D01*
X136940926Y-119072455D01*
X136912672Y-119051304D01*
X136874319Y-119012951D01*
X136840834Y-118951628D01*
X136838000Y-118925270D01*
X136838000Y-118049730D01*
X136857685Y-117982691D01*
X136874319Y-117962049D01*
X136892712Y-117943656D01*
X136894752Y-117940347D01*
X136896745Y-117938555D01*
X136897193Y-117937989D01*
X136897289Y-117938065D01*
X136946694Y-117893623D01*
X137015656Y-117882395D01*
X137079740Y-117910234D01*
X137105829Y-117940339D01*
X137107681Y-117943341D01*
X137107683Y-117943344D01*
X137231654Y-118067315D01*
X137380875Y-118159356D01*
X137380880Y-118159358D01*
X137547302Y-118214505D01*
X137547309Y-118214506D01*
X137650019Y-118224999D01*
X138200000Y-118224999D01*
X138249972Y-118224999D01*
X138249986Y-118224998D01*
X138352697Y-118214505D01*
X138519119Y-118159358D01*
X138519124Y-118159356D01*
X138668345Y-118067315D01*
X138792315Y-117943345D01*
X138884356Y-117794124D01*
X138884358Y-117794119D01*
X138939505Y-117627697D01*
X138939506Y-117627690D01*
X138949999Y-117524986D01*
X138950000Y-117524973D01*
X138950000Y-117250000D01*
X138200000Y-117250000D01*
X138200000Y-118224999D01*
X137650019Y-118224999D01*
X137699999Y-118224998D01*
X137700000Y-118224998D01*
X137700000Y-116750000D01*
X138200000Y-116750000D01*
X138949999Y-116750000D01*
X138949999Y-116475028D01*
X138949998Y-116475013D01*
X138939505Y-116372302D01*
X138884358Y-116205880D01*
X138884356Y-116205875D01*
X138792315Y-116056654D01*
X138668345Y-115932684D01*
X138519124Y-115840643D01*
X138519119Y-115840641D01*
X138352697Y-115785494D01*
X138352690Y-115785493D01*
X138249986Y-115775000D01*
X138200000Y-115775000D01*
X138200000Y-116750000D01*
X137700000Y-116750000D01*
X137700000Y-115775000D01*
X137699999Y-115774999D01*
X137650029Y-115775000D01*
X137650011Y-115775001D01*
X137547302Y-115785494D01*
X137380880Y-115840641D01*
X137380875Y-115840643D01*
X137231654Y-115932684D01*
X137107683Y-116056655D01*
X137107679Y-116056660D01*
X137105826Y-116059665D01*
X137104018Y-116061290D01*
X137103202Y-116062323D01*
X137103025Y-116062183D01*
X137053874Y-116106385D01*
X136984911Y-116117601D01*
X136920831Y-116089752D01*
X136909341Y-116078843D01*
X136901112Y-116069963D01*
X136892712Y-116056344D01*
X136835140Y-115998772D01*
X136833548Y-115997054D01*
X136818985Y-115967791D01*
X136803334Y-115939128D01*
X136802951Y-115935572D01*
X136802419Y-115934502D01*
X136802630Y-115932580D01*
X136800500Y-115912770D01*
X136800500Y-115112230D01*
X136820185Y-115045191D01*
X136836819Y-115024549D01*
X136912319Y-114949049D01*
X136973642Y-114915564D01*
X137043334Y-114920548D01*
X137087681Y-114949049D01*
X137181344Y-115042712D01*
X137330666Y-115134814D01*
X137497203Y-115189999D01*
X137599991Y-115200500D01*
X138225008Y-115200499D01*
X138225016Y-115200498D01*
X138225019Y-115200498D01*
X138281302Y-115194748D01*
X138327797Y-115189999D01*
X138494334Y-115134814D01*
X138643656Y-115042712D01*
X138767712Y-114918656D01*
X138835099Y-114809402D01*
X138887047Y-114762679D01*
X138940638Y-114750500D01*
X140637770Y-114750500D01*
X140704809Y-114770185D01*
G37*
%TD.AperFunction*%
%TD*%
M02*
