%TF.GenerationSoftware,KiCad,Pcbnew,9.0.7-9.0.7~ubuntu24.04.1*%
%TF.CreationDate,2026-02-02T00:49:15+01:00*%
%TF.ProjectId,HArem,48417265-6d2e-46b6-9963-61645f706362,rev?*%
%TF.SameCoordinates,Original*%
%TF.FileFunction,Copper,L2,Bot*%
%TF.FilePolarity,Positive*%
%FSLAX46Y46*%
G04 Gerber Fmt 4.6, Leading zero omitted, Abs format (unit mm)*
G04 Created by KiCad (PCBNEW 9.0.7-9.0.7~ubuntu24.04.1) date 2026-02-02 00:49:15*
%MOMM*%
%LPD*%
G01*
G04 APERTURE LIST*
%TA.AperFunction,ComponentPad*%
%ADD10C,1.508000*%
%TD*%
%TA.AperFunction,ComponentPad*%
%ADD11R,1.508000X1.508000*%
%TD*%
%TA.AperFunction,ComponentPad*%
%ADD12C,2.000000*%
%TD*%
%TA.AperFunction,ComponentPad*%
%ADD13C,1.348000*%
%TD*%
%TA.AperFunction,ComponentPad*%
%ADD14R,2.000000X2.000000*%
%TD*%
%TA.AperFunction,ComponentPad*%
%ADD15R,3.200000X2.000000*%
%TD*%
%TA.AperFunction,ComponentPad*%
%ADD16R,1.308000X1.308000*%
%TD*%
%TA.AperFunction,ComponentPad*%
%ADD17C,1.308000*%
%TD*%
%TA.AperFunction,ViaPad*%
%ADD18C,0.600000*%
%TD*%
%TA.AperFunction,Conductor*%
%ADD19C,0.500000*%
%TD*%
G04 APERTURE END LIST*
D10*
%TO.P,DS1,4,SDA*%
%TO.N,OLED_SDA*%
X118540000Y-90600000D03*
%TO.P,DS1,3,SCK*%
%TO.N,OLED_SCK*%
X116000000Y-90600000D03*
%TO.P,DS1,2,GND*%
%TO.N,GND*%
X113460000Y-90600000D03*
D11*
%TO.P,DS1,1,VDD*%
%TO.N,Net-(DS1-VDD)*%
X110920000Y-90600000D03*
%TD*%
D12*
%TO.P,U2,6,B-*%
%TO.N,Bat-*%
X118995000Y-109635000D03*
%TO.P,U2,5,B+*%
%TO.N,Bat+*%
X118995000Y-118555000D03*
%TO.P,U2,4,OUT-*%
%TO.N,GND*%
X118995000Y-107095000D03*
%TO.P,U2,3,OUT+*%
%TO.N,+5VD*%
X118995000Y-121095000D03*
%TO.P,U2,2,IN-*%
%TO.N,unconnected-(U2-IN--Pad2)*%
X95995000Y-107095000D03*
%TO.P,U2,1,IN+*%
%TO.N,unconnected-(U2-IN+-Pad1)*%
X95995000Y-121095000D03*
%TD*%
D13*
%TO.P,U1,0,GPIO0*%
%TO.N,ADC0*%
X143120000Y-121620000D03*
%TO.P,U1,1,GPIO1*%
%TO.N,OLED_PWR*%
X145660000Y-121620000D03*
%TO.P,U1,2,GPIO2*%
%TO.N,unconnected-(U1-GPIO2-Pad2)*%
X148200000Y-121620000D03*
%TO.P,U1,3,GPIO3*%
%TO.N,unconnected-(U1-GPIO3-Pad3)*%
X150740000Y-121620000D03*
%TO.P,U1,3.3,3V3*%
%TO.N,+3.3V*%
X155820000Y-121620000D03*
%TO.P,U1,4,GPIO4*%
%TO.N,ENC_PUSH_BUTTON*%
X153280000Y-121620000D03*
%TO.P,U1,5,GPIO5*%
%TO.N,OLED_SDA*%
X160900000Y-106380000D03*
%TO.P,U1,5V,5V*%
%TO.N,+5VD*%
X160900000Y-121620000D03*
%TO.P,U1,6,GPIO6*%
%TO.N,OLED_SCK*%
X158360000Y-106380000D03*
%TO.P,U1,7,GPIO7*%
%TO.N,unconnected-(U1-GPIO7-Pad7)*%
X155820000Y-106380000D03*
%TO.P,U1,8,GPIO8*%
%TO.N,ENC_A*%
X153280000Y-106380000D03*
%TO.P,U1,9,GPIO9*%
%TO.N,ENC_B*%
X150740000Y-106380000D03*
%TO.P,U1,10,GPIO10*%
%TO.N,unconnected-(U1-GPIO10-Pad10)*%
X148200000Y-106380000D03*
%TO.P,U1,20,GPIO20*%
%TO.N,unconnected-(U1-GPIO20-Pad20)*%
X145660000Y-106380000D03*
%TO.P,U1,21,GPIO21*%
%TO.N,unconnected-(U1-GPIO21-Pad21)*%
X143120000Y-106380000D03*
%TO.P,U1,G,GND*%
%TO.N,GND*%
X158360000Y-121620000D03*
%TD*%
D14*
%TO.P,SW1,A,A*%
%TO.N,Net-(R4-Pad2)*%
X157500000Y-96500000D03*
D12*
%TO.P,SW1,B,B*%
%TO.N,Net-(R3-Pad2)*%
X157500000Y-91500000D03*
%TO.P,SW1,C,C*%
%TO.N,GND*%
X157500000Y-94000000D03*
D15*
%TO.P,SW1,MP*%
%TO.N,N/C*%
X150000000Y-99600000D03*
X150000000Y-88400000D03*
D12*
%TO.P,SW1,S1,S1*%
%TO.N,Net-(C1-Pad1)*%
X143000000Y-91500000D03*
%TO.P,SW1,S2,S2*%
%TO.N,GND*%
X143000000Y-96500000D03*
%TD*%
D16*
%TO.P,J1,1,1*%
%TO.N,Bat-*%
X98787500Y-100000000D03*
D17*
%TO.P,J1,2,2*%
%TO.N,Bat+*%
X98787500Y-102000000D03*
%TD*%
D18*
%TO.N,+5VD*%
X142000000Y-120000000D03*
%TO.N,GND*%
X141000000Y-119000000D03*
X140000000Y-106000000D03*
%TD*%
D19*
%TO.N,GND*%
X118995000Y-107095000D02*
X122095000Y-107095000D01*
X122095000Y-107095000D02*
X124000000Y-109000000D01*
%TO.N,Bat-*%
X118995000Y-109635000D02*
X113635000Y-109635000D01*
X113635000Y-109635000D02*
X112000000Y-108000000D01*
X112000000Y-108000000D02*
X112000000Y-101000000D01*
X112000000Y-101000000D02*
X111000000Y-100000000D01*
X111000000Y-100000000D02*
X98787500Y-100000000D01*
%TO.N,+5VD*%
X118995000Y-121095000D02*
X123095000Y-121095000D01*
X123095000Y-121095000D02*
X125749000Y-123749000D01*
X125749000Y-123749000D02*
X137000000Y-123749000D01*
%TO.N,Bat+*%
X98787500Y-102000000D02*
X109000000Y-102000000D01*
X109000000Y-102000000D02*
X110000000Y-103000000D01*
X110000000Y-103000000D02*
X110000000Y-117000000D01*
X110000000Y-117000000D02*
X111555000Y-118555000D01*
X111555000Y-118555000D02*
X118995000Y-118555000D01*
%TO.N,+5VD*%
X138251000Y-123749000D02*
X142000000Y-120000000D01*
X137000000Y-123749000D02*
X138251000Y-123749000D01*
%TO.N,GND*%
X141000000Y-119000000D02*
X157000000Y-119000000D01*
X141000000Y-119000000D02*
X142000000Y-119000000D01*
X140000000Y-108000000D02*
X140000000Y-106000000D01*
X124000000Y-109000000D02*
X134000000Y-119000000D01*
X139000000Y-109000000D02*
X140000000Y-108000000D01*
X124000000Y-109000000D02*
X139000000Y-109000000D01*
X134000000Y-119000000D02*
X141000000Y-119000000D01*
X157000000Y-119000000D02*
X158360000Y-120360000D01*
X158360000Y-120360000D02*
X158360000Y-121620000D01*
%TO.N,OLED_SDA*%
X118540000Y-90600000D02*
X118540000Y-98540000D01*
X159000000Y-102000000D02*
X160900000Y-103900000D01*
X118540000Y-98540000D02*
X121000000Y-101000000D01*
X121000000Y-101000000D02*
X147000000Y-101000000D01*
X147000000Y-101000000D02*
X148000000Y-102000000D01*
X148000000Y-102000000D02*
X159000000Y-102000000D01*
X160900000Y-103900000D02*
X160900000Y-106380000D01*
%TO.N,OLED_SCK*%
X116000000Y-90600000D02*
X116000000Y-99000000D01*
X116000000Y-99000000D02*
X120000000Y-103000000D01*
X120000000Y-103000000D02*
X157000000Y-103000000D01*
X157000000Y-103000000D02*
X158360000Y-104360000D01*
X158360000Y-104360000D02*
X158360000Y-106380000D01*
%TO.N,GND*%
X156500000Y-93000000D02*
X156000000Y-93000000D01*
X147051000Y-92449000D02*
X143000000Y-96500000D01*
X157500000Y-94000000D02*
X156500000Y-93000000D01*
X156000000Y-93000000D02*
X155449000Y-92449000D01*
X155449000Y-92449000D02*
X147051000Y-92449000D01*
%TO.N,+5VD*%
X160900000Y-122900000D02*
X160900000Y-121620000D01*
X137000000Y-123749000D02*
X160251000Y-123749000D01*
X160251000Y-123749000D02*
X161000000Y-123000000D01*
X161000000Y-123000000D02*
X160900000Y-122900000D01*
%TD*%
%TA.AperFunction,Conductor*%
%TO.N,GND*%
G36*
X147865674Y-87009145D02*
G01*
X147895657Y-87015668D01*
X147898887Y-87018898D01*
X147903270Y-87020185D01*
X147923362Y-87043372D01*
X147945063Y-87065073D01*
X147946034Y-87069537D01*
X147949025Y-87072989D01*
X147953392Y-87103360D01*
X147959915Y-87133346D01*
X147958583Y-87139466D01*
X147958969Y-87142147D01*
X147952413Y-87167833D01*
X147905908Y-87292517D01*
X147899501Y-87352116D01*
X147899501Y-87352123D01*
X147899500Y-87352135D01*
X147899500Y-89447870D01*
X147899501Y-89447876D01*
X147905908Y-89507483D01*
X147956202Y-89642328D01*
X147956206Y-89642335D01*
X148042452Y-89757544D01*
X148042455Y-89757547D01*
X148157664Y-89843793D01*
X148157671Y-89843797D01*
X148292517Y-89894091D01*
X148292516Y-89894091D01*
X148299444Y-89894835D01*
X148352127Y-89900500D01*
X151647872Y-89900499D01*
X151707483Y-89894091D01*
X151842331Y-89843796D01*
X151957546Y-89757546D01*
X152043796Y-89642331D01*
X152094091Y-89507483D01*
X152100500Y-89447873D01*
X152100499Y-87352128D01*
X152094091Y-87292517D01*
X152047587Y-87167833D01*
X152042603Y-87098141D01*
X152076088Y-87036818D01*
X152137411Y-87003334D01*
X152163769Y-87000500D01*
X163375500Y-87000500D01*
X163442539Y-87020185D01*
X163488294Y-87072989D01*
X163499500Y-87124500D01*
X163499500Y-123875500D01*
X163479815Y-123942539D01*
X163427011Y-123988294D01*
X163375500Y-123999500D01*
X161361230Y-123999500D01*
X161294191Y-123979815D01*
X161248436Y-123927011D01*
X161238492Y-123857853D01*
X161267517Y-123794297D01*
X161273549Y-123787819D01*
X161582947Y-123478421D01*
X161582952Y-123478416D01*
X161665084Y-123355494D01*
X161721658Y-123218912D01*
X161750500Y-123073917D01*
X161750500Y-122926083D01*
X161750500Y-122926080D01*
X161721659Y-122781092D01*
X161721658Y-122781091D01*
X161721658Y-122781087D01*
X161708988Y-122750500D01*
X161696582Y-122720548D01*
X161662753Y-122638878D01*
X161663614Y-122638520D01*
X161661630Y-122630598D01*
X161655523Y-122621095D01*
X161650500Y-122586160D01*
X161650500Y-122581857D01*
X161670185Y-122514818D01*
X161686819Y-122494176D01*
X161722388Y-122458607D01*
X161795859Y-122385136D01*
X161904523Y-122235572D01*
X161988452Y-122070852D01*
X162007776Y-122011378D01*
X162045580Y-121895030D01*
X162074500Y-121712440D01*
X162074500Y-121527559D01*
X162045580Y-121344969D01*
X161988453Y-121169150D01*
X161988452Y-121169147D01*
X161959388Y-121112106D01*
X161904523Y-121004428D01*
X161817952Y-120885272D01*
X161795864Y-120854870D01*
X161795860Y-120854865D01*
X161665134Y-120724139D01*
X161665129Y-120724135D01*
X161515575Y-120615479D01*
X161515574Y-120615478D01*
X161515572Y-120615477D01*
X161462799Y-120588588D01*
X161350852Y-120531547D01*
X161350849Y-120531546D01*
X161175030Y-120474419D01*
X160992440Y-120445500D01*
X160992435Y-120445500D01*
X160807565Y-120445500D01*
X160807560Y-120445500D01*
X160624969Y-120474419D01*
X160449150Y-120531546D01*
X160449147Y-120531547D01*
X160284424Y-120615479D01*
X160134870Y-120724135D01*
X160134865Y-120724139D01*
X160004139Y-120854865D01*
X160004135Y-120854870D01*
X159895479Y-121004424D01*
X159811547Y-121169147D01*
X159811546Y-121169150D01*
X159754419Y-121344971D01*
X159752218Y-121358867D01*
X159722286Y-121422000D01*
X159662973Y-121458928D01*
X159593110Y-121457927D01*
X159534879Y-121419315D01*
X159507272Y-121358857D01*
X159505091Y-121345087D01*
X159447986Y-121169338D01*
X159364092Y-121004686D01*
X159349269Y-120984283D01*
X159349268Y-120984283D01*
X158777642Y-121555909D01*
X158751378Y-121457886D01*
X158696084Y-121362114D01*
X158617886Y-121283916D01*
X158522114Y-121228622D01*
X158424090Y-121202356D01*
X158995716Y-120630730D01*
X158975307Y-120615903D01*
X158975303Y-120615900D01*
X158810664Y-120532014D01*
X158634908Y-120474907D01*
X158452395Y-120446000D01*
X158267605Y-120446000D01*
X158085091Y-120474907D01*
X157909338Y-120532013D01*
X157744692Y-120615903D01*
X157744688Y-120615906D01*
X157724283Y-120630729D01*
X157724283Y-120630730D01*
X158295910Y-121202356D01*
X158197886Y-121228622D01*
X158102114Y-121283916D01*
X158023916Y-121362114D01*
X157968622Y-121457886D01*
X157942356Y-121555909D01*
X157370730Y-120984283D01*
X157370729Y-120984283D01*
X157355906Y-121004688D01*
X157355903Y-121004692D01*
X157272013Y-121169338D01*
X157214908Y-121345088D01*
X157212726Y-121358864D01*
X157182795Y-121421998D01*
X157123483Y-121458928D01*
X157053620Y-121457928D01*
X156995388Y-121419317D01*
X156967780Y-121358860D01*
X156965580Y-121344970D01*
X156908453Y-121169150D01*
X156908452Y-121169147D01*
X156879388Y-121112106D01*
X156824523Y-121004428D01*
X156737952Y-120885272D01*
X156715864Y-120854870D01*
X156715860Y-120854865D01*
X156585134Y-120724139D01*
X156585129Y-120724135D01*
X156435575Y-120615479D01*
X156435574Y-120615478D01*
X156435572Y-120615477D01*
X156382799Y-120588588D01*
X156270852Y-120531547D01*
X156270849Y-120531546D01*
X156095030Y-120474419D01*
X155912440Y-120445500D01*
X155912435Y-120445500D01*
X155727565Y-120445500D01*
X155727560Y-120445500D01*
X155544969Y-120474419D01*
X155369150Y-120531546D01*
X155369147Y-120531547D01*
X155204424Y-120615479D01*
X155054870Y-120724135D01*
X155054865Y-120724139D01*
X154924139Y-120854865D01*
X154924135Y-120854870D01*
X154815479Y-121004424D01*
X154731547Y-121169147D01*
X154731546Y-121169150D01*
X154674420Y-121344969D01*
X154672473Y-121357263D01*
X154642543Y-121420397D01*
X154583231Y-121457328D01*
X154513369Y-121456330D01*
X154455136Y-121417719D01*
X154427527Y-121357263D01*
X154427192Y-121355150D01*
X154425580Y-121344971D01*
X154382730Y-121213092D01*
X154368453Y-121169150D01*
X154368452Y-121169147D01*
X154339388Y-121112106D01*
X154284523Y-121004428D01*
X154197952Y-120885272D01*
X154175864Y-120854870D01*
X154175860Y-120854865D01*
X154045134Y-120724139D01*
X154045129Y-120724135D01*
X153895575Y-120615479D01*
X153895574Y-120615478D01*
X153895572Y-120615477D01*
X153842799Y-120588588D01*
X153730852Y-120531547D01*
X153730849Y-120531546D01*
X153555030Y-120474419D01*
X153372440Y-120445500D01*
X153372435Y-120445500D01*
X153187565Y-120445500D01*
X153187560Y-120445500D01*
X153004969Y-120474419D01*
X152829150Y-120531546D01*
X152829147Y-120531547D01*
X152664424Y-120615479D01*
X152514870Y-120724135D01*
X152514865Y-120724139D01*
X152384139Y-120854865D01*
X152384135Y-120854870D01*
X152275479Y-121004424D01*
X152191547Y-121169147D01*
X152191546Y-121169150D01*
X152134420Y-121344969D01*
X152132473Y-121357263D01*
X152102543Y-121420397D01*
X152043231Y-121457328D01*
X151973369Y-121456330D01*
X151915136Y-121417719D01*
X151887527Y-121357263D01*
X151887192Y-121355150D01*
X151885580Y-121344971D01*
X151842730Y-121213092D01*
X151828453Y-121169150D01*
X151828452Y-121169147D01*
X151799388Y-121112106D01*
X151744523Y-121004428D01*
X151657952Y-120885272D01*
X151635864Y-120854870D01*
X151635860Y-120854865D01*
X151505134Y-120724139D01*
X151505129Y-120724135D01*
X151355575Y-120615479D01*
X151355574Y-120615478D01*
X151355572Y-120615477D01*
X151302799Y-120588588D01*
X151190852Y-120531547D01*
X151190849Y-120531546D01*
X151015030Y-120474419D01*
X150832440Y-120445500D01*
X150832435Y-120445500D01*
X150647565Y-120445500D01*
X150647560Y-120445500D01*
X150464969Y-120474419D01*
X150289150Y-120531546D01*
X150289147Y-120531547D01*
X150124424Y-120615479D01*
X149974870Y-120724135D01*
X149974865Y-120724139D01*
X149844139Y-120854865D01*
X149844135Y-120854870D01*
X149735479Y-121004424D01*
X149651547Y-121169147D01*
X149651546Y-121169150D01*
X149594420Y-121344969D01*
X149592473Y-121357263D01*
X149562543Y-121420397D01*
X149503231Y-121457328D01*
X149433369Y-121456330D01*
X149375136Y-121417719D01*
X149347527Y-121357263D01*
X149347192Y-121355150D01*
X149345580Y-121344971D01*
X149302730Y-121213092D01*
X149288453Y-121169150D01*
X149288452Y-121169147D01*
X149259388Y-121112106D01*
X149204523Y-121004428D01*
X149117952Y-120885272D01*
X149095864Y-120854870D01*
X149095860Y-120854865D01*
X148965134Y-120724139D01*
X148965129Y-120724135D01*
X148815575Y-120615479D01*
X148815574Y-120615478D01*
X148815572Y-120615477D01*
X148762799Y-120588588D01*
X148650852Y-120531547D01*
X148650849Y-120531546D01*
X148475030Y-120474419D01*
X148292440Y-120445500D01*
X148292435Y-120445500D01*
X148107565Y-120445500D01*
X148107560Y-120445500D01*
X147924969Y-120474419D01*
X147749150Y-120531546D01*
X147749147Y-120531547D01*
X147584424Y-120615479D01*
X147434870Y-120724135D01*
X147434865Y-120724139D01*
X147304139Y-120854865D01*
X147304135Y-120854870D01*
X147195479Y-121004424D01*
X147111547Y-121169147D01*
X147111546Y-121169150D01*
X147054420Y-121344969D01*
X147052473Y-121357263D01*
X147022543Y-121420397D01*
X146963231Y-121457328D01*
X146893369Y-121456330D01*
X146835136Y-121417719D01*
X146807527Y-121357263D01*
X146807192Y-121355150D01*
X146805580Y-121344971D01*
X146762730Y-121213092D01*
X146748453Y-121169150D01*
X146748452Y-121169147D01*
X146719388Y-121112106D01*
X146664523Y-121004428D01*
X146577952Y-120885272D01*
X146555864Y-120854870D01*
X146555860Y-120854865D01*
X146425134Y-120724139D01*
X146425129Y-120724135D01*
X146275575Y-120615479D01*
X146275574Y-120615478D01*
X146275572Y-120615477D01*
X146222799Y-120588588D01*
X146110852Y-120531547D01*
X146110849Y-120531546D01*
X145935030Y-120474419D01*
X145752440Y-120445500D01*
X145752435Y-120445500D01*
X145567565Y-120445500D01*
X145567560Y-120445500D01*
X145384969Y-120474419D01*
X145209150Y-120531546D01*
X145209147Y-120531547D01*
X145044424Y-120615479D01*
X144894870Y-120724135D01*
X144894865Y-120724139D01*
X144764139Y-120854865D01*
X144764135Y-120854870D01*
X144655479Y-121004424D01*
X144571547Y-121169147D01*
X144571546Y-121169150D01*
X144514420Y-121344969D01*
X144512473Y-121357263D01*
X144482543Y-121420397D01*
X144423231Y-121457328D01*
X144353369Y-121456330D01*
X144295136Y-121417719D01*
X144267527Y-121357263D01*
X144267192Y-121355150D01*
X144265580Y-121344971D01*
X144222730Y-121213092D01*
X144208453Y-121169150D01*
X144208452Y-121169147D01*
X144179388Y-121112106D01*
X144124523Y-121004428D01*
X144037952Y-120885272D01*
X144015864Y-120854870D01*
X144015860Y-120854865D01*
X143885134Y-120724139D01*
X143885129Y-120724135D01*
X143735575Y-120615479D01*
X143735574Y-120615478D01*
X143735572Y-120615477D01*
X143682799Y-120588588D01*
X143570852Y-120531547D01*
X143570849Y-120531546D01*
X143395030Y-120474419D01*
X143212440Y-120445500D01*
X143212435Y-120445500D01*
X143027565Y-120445500D01*
X143027560Y-120445500D01*
X142876346Y-120469450D01*
X142807053Y-120460495D01*
X142753601Y-120415499D01*
X142732961Y-120348748D01*
X142742386Y-120299528D01*
X142769737Y-120233497D01*
X142800500Y-120078842D01*
X142800500Y-119921158D01*
X142800500Y-119921155D01*
X142800499Y-119921153D01*
X142785021Y-119843339D01*
X142769737Y-119766503D01*
X142758171Y-119738580D01*
X142709397Y-119620827D01*
X142709390Y-119620814D01*
X142621789Y-119489711D01*
X142621786Y-119489707D01*
X142510292Y-119378213D01*
X142510288Y-119378210D01*
X142379185Y-119290609D01*
X142379172Y-119290602D01*
X142233501Y-119230264D01*
X142233489Y-119230261D01*
X142078845Y-119199500D01*
X142078842Y-119199500D01*
X141921158Y-119199500D01*
X141921155Y-119199500D01*
X141766510Y-119230261D01*
X141766498Y-119230264D01*
X141620827Y-119290602D01*
X141620814Y-119290609D01*
X141489711Y-119378210D01*
X141489707Y-119378213D01*
X141378213Y-119489707D01*
X141378207Y-119489715D01*
X141290607Y-119620818D01*
X141290605Y-119620822D01*
X141280805Y-119644480D01*
X141253927Y-119684704D01*
X137976451Y-122962181D01*
X137915128Y-122995666D01*
X137888770Y-122998500D01*
X126111230Y-122998500D01*
X126044191Y-122978815D01*
X126023549Y-122962181D01*
X123946627Y-120885258D01*
X128729500Y-120885258D01*
X128729500Y-121114741D01*
X128750568Y-121274758D01*
X128759452Y-121342238D01*
X128790451Y-121457928D01*
X128818842Y-121563887D01*
X128906650Y-121775876D01*
X128906657Y-121775890D01*
X129021392Y-121974617D01*
X129161081Y-122156661D01*
X129161089Y-122156670D01*
X129323330Y-122318911D01*
X129323338Y-122318918D01*
X129505382Y-122458607D01*
X129505385Y-122458608D01*
X129505388Y-122458611D01*
X129704112Y-122573344D01*
X129704117Y-122573346D01*
X129704123Y-122573349D01*
X129735052Y-122586160D01*
X129916113Y-122661158D01*
X130137762Y-122720548D01*
X130365266Y-122750500D01*
X130365273Y-122750500D01*
X130594727Y-122750500D01*
X130594734Y-122750500D01*
X130822238Y-122720548D01*
X131043887Y-122661158D01*
X131255888Y-122573344D01*
X131454612Y-122458611D01*
X131636661Y-122318919D01*
X131636665Y-122318914D01*
X131636670Y-122318911D01*
X131798911Y-122156670D01*
X131798914Y-122156665D01*
X131798919Y-122156661D01*
X131938611Y-121974612D01*
X132053344Y-121775888D01*
X132141158Y-121563887D01*
X132200548Y-121342238D01*
X132230500Y-121114734D01*
X132230500Y-120885266D01*
X132200548Y-120657762D01*
X132141158Y-120436113D01*
X132084581Y-120299524D01*
X132053349Y-120224123D01*
X132053346Y-120224117D01*
X132053344Y-120224112D01*
X131938611Y-120025388D01*
X131938608Y-120025385D01*
X131938607Y-120025382D01*
X131798918Y-119843338D01*
X131798911Y-119843330D01*
X131636670Y-119681089D01*
X131636661Y-119681081D01*
X131454617Y-119541392D01*
X131439236Y-119532512D01*
X131255888Y-119426656D01*
X131255876Y-119426650D01*
X131043887Y-119338842D01*
X130822238Y-119279452D01*
X130784215Y-119274446D01*
X130594741Y-119249500D01*
X130594734Y-119249500D01*
X130365266Y-119249500D01*
X130365258Y-119249500D01*
X130148715Y-119278009D01*
X130137762Y-119279452D01*
X130096123Y-119290609D01*
X129916112Y-119338842D01*
X129704123Y-119426650D01*
X129704109Y-119426657D01*
X129505382Y-119541392D01*
X129323338Y-119681081D01*
X129161081Y-119843338D01*
X129021392Y-120025382D01*
X128906657Y-120224109D01*
X128906650Y-120224123D01*
X128844842Y-120373343D01*
X128818842Y-120436113D01*
X128766695Y-120630730D01*
X128759453Y-120657759D01*
X128759451Y-120657770D01*
X128729500Y-120885258D01*
X123946627Y-120885258D01*
X123573421Y-120512052D01*
X123573420Y-120512051D01*
X123517100Y-120474420D01*
X123459769Y-120436113D01*
X123459767Y-120436111D01*
X123450499Y-120429918D01*
X123450490Y-120429913D01*
X123313917Y-120373343D01*
X123313907Y-120373340D01*
X123168920Y-120344500D01*
X123168918Y-120344500D01*
X120367631Y-120344500D01*
X120300592Y-120324815D01*
X120267313Y-120293386D01*
X120139517Y-120117490D01*
X119972510Y-119950483D01*
X119937872Y-119925317D01*
X119895207Y-119869989D01*
X119889228Y-119800375D01*
X119921833Y-119738580D01*
X119937873Y-119724682D01*
X119972510Y-119699517D01*
X120139517Y-119532510D01*
X120278343Y-119341433D01*
X120385568Y-119130992D01*
X120458553Y-118906368D01*
X120495500Y-118673097D01*
X120495500Y-118436902D01*
X120458553Y-118203631D01*
X120385566Y-117979003D01*
X120329002Y-117867991D01*
X120278343Y-117768567D01*
X120139517Y-117577490D01*
X119972510Y-117410483D01*
X119781433Y-117271657D01*
X119570996Y-117164433D01*
X119346368Y-117091446D01*
X119113097Y-117054500D01*
X119113092Y-117054500D01*
X118876908Y-117054500D01*
X118876903Y-117054500D01*
X118643631Y-117091446D01*
X118419003Y-117164433D01*
X118208566Y-117271657D01*
X118099550Y-117350862D01*
X118017490Y-117410483D01*
X118017488Y-117410485D01*
X118017487Y-117410485D01*
X117850485Y-117577487D01*
X117850485Y-117577488D01*
X117850483Y-117577490D01*
X117722687Y-117753386D01*
X117667357Y-117796051D01*
X117622369Y-117804500D01*
X111917229Y-117804500D01*
X111850190Y-117784815D01*
X111829548Y-117768181D01*
X110786819Y-116725451D01*
X110753334Y-116664128D01*
X110750500Y-116637770D01*
X110750500Y-102926081D01*
X110744763Y-102897242D01*
X110744763Y-102897240D01*
X110722799Y-102786819D01*
X110721659Y-102781088D01*
X110667408Y-102650117D01*
X110665764Y-102645522D01*
X110582954Y-102521588D01*
X110582953Y-102521587D01*
X110582951Y-102521584D01*
X110478416Y-102417049D01*
X110478415Y-102417048D01*
X110230200Y-102168833D01*
X109478421Y-101417052D01*
X109478414Y-101417046D01*
X109404729Y-101367812D01*
X109404729Y-101367813D01*
X109355491Y-101334913D01*
X109218917Y-101278343D01*
X109218907Y-101278340D01*
X109073920Y-101249500D01*
X109073918Y-101249500D01*
X99853737Y-101249500D01*
X99786698Y-101229815D01*
X99740943Y-101177011D01*
X99730999Y-101107853D01*
X99760024Y-101044297D01*
X99779426Y-101026234D01*
X99788846Y-101019181D01*
X99799046Y-101011546D01*
X99885296Y-100896331D01*
X99896648Y-100865894D01*
X99909601Y-100831167D01*
X99951472Y-100775233D01*
X100016936Y-100750816D01*
X100025783Y-100750500D01*
X110637770Y-100750500D01*
X110704809Y-100770185D01*
X110725451Y-100786819D01*
X111213181Y-101274548D01*
X111246666Y-101335871D01*
X111249500Y-101362229D01*
X111249500Y-108073918D01*
X111249500Y-108073920D01*
X111249499Y-108073920D01*
X111278340Y-108218907D01*
X111278343Y-108218917D01*
X111334913Y-108355490D01*
X111334916Y-108355495D01*
X111350180Y-108378338D01*
X111350181Y-108378343D01*
X111350183Y-108378343D01*
X111396358Y-108447451D01*
X111417051Y-108478420D01*
X111417052Y-108478421D01*
X113156580Y-110217948D01*
X113156584Y-110217951D01*
X113279498Y-110300080D01*
X113279511Y-110300087D01*
X113416082Y-110356656D01*
X113416087Y-110356658D01*
X113416091Y-110356658D01*
X113416092Y-110356659D01*
X113561079Y-110385500D01*
X113561082Y-110385500D01*
X113708917Y-110385500D01*
X117622369Y-110385500D01*
X117689408Y-110405185D01*
X117722685Y-110436613D01*
X117850483Y-110612510D01*
X118017490Y-110779517D01*
X118208567Y-110918343D01*
X118307991Y-110969002D01*
X118419003Y-111025566D01*
X118419005Y-111025566D01*
X118419008Y-111025568D01*
X118539412Y-111064689D01*
X118643631Y-111098553D01*
X118876903Y-111135500D01*
X118876908Y-111135500D01*
X119113097Y-111135500D01*
X119346368Y-111098553D01*
X119570992Y-111025568D01*
X119781433Y-110918343D01*
X119972510Y-110779517D01*
X120139517Y-110612510D01*
X120278343Y-110421433D01*
X120385568Y-110210992D01*
X120458553Y-109986368D01*
X120495500Y-109753097D01*
X120495500Y-109516902D01*
X120458553Y-109283631D01*
X120385566Y-109059003D01*
X120329002Y-108947991D01*
X120278343Y-108848567D01*
X120139517Y-108657490D01*
X119972510Y-108490483D01*
X119913282Y-108447451D01*
X119870617Y-108392122D01*
X119862550Y-108337404D01*
X119864104Y-108317657D01*
X119124408Y-107577962D01*
X119187993Y-107560925D01*
X119302007Y-107495099D01*
X119395099Y-107402007D01*
X119460925Y-107287993D01*
X119477962Y-107224408D01*
X120217658Y-107964105D01*
X120217658Y-107964104D01*
X120277914Y-107881169D01*
X120277918Y-107881163D01*
X120385102Y-107670802D01*
X120458065Y-107446247D01*
X120495000Y-107213052D01*
X120495000Y-106976947D01*
X120458065Y-106743752D01*
X120385102Y-106519197D01*
X120277914Y-106308828D01*
X120217658Y-106225894D01*
X120217658Y-106225893D01*
X119477962Y-106965590D01*
X119460925Y-106902007D01*
X119395099Y-106787993D01*
X119302007Y-106694901D01*
X119187993Y-106629075D01*
X119124409Y-106612037D01*
X119864105Y-105872340D01*
X119864104Y-105872338D01*
X119781174Y-105812087D01*
X119570802Y-105704897D01*
X119346247Y-105631934D01*
X119346248Y-105631934D01*
X119113052Y-105595000D01*
X118876948Y-105595000D01*
X118643752Y-105631934D01*
X118419197Y-105704897D01*
X118208830Y-105812084D01*
X118125894Y-105872340D01*
X118865591Y-106612037D01*
X118802007Y-106629075D01*
X118687993Y-106694901D01*
X118594901Y-106787993D01*
X118529075Y-106902007D01*
X118512037Y-106965591D01*
X117772340Y-106225894D01*
X117712084Y-106308830D01*
X117604897Y-106519197D01*
X117531934Y-106743752D01*
X117495000Y-106976947D01*
X117495000Y-107213052D01*
X117531934Y-107446247D01*
X117604897Y-107670802D01*
X117712087Y-107881174D01*
X117772338Y-107964104D01*
X117772340Y-107964105D01*
X118512037Y-107224408D01*
X118529075Y-107287993D01*
X118594901Y-107402007D01*
X118687993Y-107495099D01*
X118802007Y-107560925D01*
X118865590Y-107577962D01*
X118125893Y-108317658D01*
X118127448Y-108337405D01*
X118113084Y-108405783D01*
X118076717Y-108447451D01*
X118017490Y-108490482D01*
X117850485Y-108657487D01*
X117850485Y-108657488D01*
X117850483Y-108657490D01*
X117722687Y-108833386D01*
X117667357Y-108876051D01*
X117622369Y-108884500D01*
X113997229Y-108884500D01*
X113930190Y-108864815D01*
X113909548Y-108848181D01*
X112786819Y-107725451D01*
X112753334Y-107664128D01*
X112750500Y-107637770D01*
X112750500Y-100926081D01*
X112750499Y-100926080D01*
X112738528Y-100865894D01*
X112721659Y-100781088D01*
X112666479Y-100647873D01*
X112665084Y-100644505D01*
X112639228Y-100605809D01*
X112582954Y-100521588D01*
X112582953Y-100521587D01*
X112582951Y-100521584D01*
X112478416Y-100417049D01*
X112478415Y-100417048D01*
X112274548Y-100213181D01*
X111478421Y-99417052D01*
X111478414Y-99417046D01*
X111404729Y-99367812D01*
X111404729Y-99367813D01*
X111355491Y-99334913D01*
X111218917Y-99278343D01*
X111218907Y-99278340D01*
X111073920Y-99249500D01*
X111073918Y-99249500D01*
X100025783Y-99249500D01*
X99958744Y-99229815D01*
X99912989Y-99177011D01*
X99909601Y-99168833D01*
X99885297Y-99103671D01*
X99885293Y-99103664D01*
X99799047Y-98988455D01*
X99799044Y-98988452D01*
X99683835Y-98902206D01*
X99683828Y-98902202D01*
X99548982Y-98851908D01*
X99548983Y-98851908D01*
X99489383Y-98845501D01*
X99489381Y-98845500D01*
X99489373Y-98845500D01*
X99489364Y-98845500D01*
X98085629Y-98845500D01*
X98085623Y-98845501D01*
X98026016Y-98851908D01*
X97891171Y-98902202D01*
X97891164Y-98902206D01*
X97775955Y-98988452D01*
X97775952Y-98988455D01*
X97689706Y-99103664D01*
X97689702Y-99103671D01*
X97639408Y-99238517D01*
X97633001Y-99298116D01*
X97633000Y-99298135D01*
X97633000Y-100701870D01*
X97633001Y-100701876D01*
X97639408Y-100761483D01*
X97689702Y-100896328D01*
X97689706Y-100896335D01*
X97775952Y-101011544D01*
X97775955Y-101011547D01*
X97874132Y-101085043D01*
X97916003Y-101140977D01*
X97920987Y-101210668D01*
X97900139Y-101257194D01*
X97800085Y-101394906D01*
X97717583Y-101556825D01*
X97717581Y-101556828D01*
X97661428Y-101729649D01*
X97661428Y-101729652D01*
X97633000Y-101909139D01*
X97633000Y-102090860D01*
X97661428Y-102270347D01*
X97661428Y-102270350D01*
X97717581Y-102443171D01*
X97717583Y-102443174D01*
X97800083Y-102605090D01*
X97906897Y-102752106D01*
X98035394Y-102880603D01*
X98182410Y-102987417D01*
X98344326Y-103069917D01*
X98344328Y-103069918D01*
X98505529Y-103122294D01*
X98517154Y-103126072D01*
X98696639Y-103154500D01*
X98696640Y-103154500D01*
X98878360Y-103154500D01*
X98878361Y-103154500D01*
X99057846Y-103126072D01*
X99057849Y-103126071D01*
X99057850Y-103126071D01*
X99230671Y-103069918D01*
X99230671Y-103069917D01*
X99230674Y-103069917D01*
X99392590Y-102987417D01*
X99539606Y-102880603D01*
X99633391Y-102786818D01*
X99694715Y-102753334D01*
X99721072Y-102750500D01*
X108637770Y-102750500D01*
X108704809Y-102770185D01*
X108725451Y-102786819D01*
X109213181Y-103274548D01*
X109246666Y-103335871D01*
X109249500Y-103362229D01*
X109249500Y-117073918D01*
X109249500Y-117073920D01*
X109249499Y-117073920D01*
X109278340Y-117218907D01*
X109278343Y-117218917D01*
X109334914Y-117355492D01*
X109367812Y-117404727D01*
X109367813Y-117404730D01*
X109417046Y-117478414D01*
X109417052Y-117478421D01*
X110972049Y-119033416D01*
X111069625Y-119130992D01*
X111076585Y-119137952D01*
X111199498Y-119220080D01*
X111199511Y-119220087D01*
X111336082Y-119276656D01*
X111336087Y-119276658D01*
X111336091Y-119276658D01*
X111336092Y-119276659D01*
X111481079Y-119305500D01*
X111481082Y-119305500D01*
X111481083Y-119305500D01*
X111628917Y-119305500D01*
X117622369Y-119305500D01*
X117689408Y-119325185D01*
X117722685Y-119356613D01*
X117850483Y-119532510D01*
X118017490Y-119699517D01*
X118052127Y-119724683D01*
X118094792Y-119780013D01*
X118100771Y-119849626D01*
X118068165Y-119911421D01*
X118052130Y-119925315D01*
X118034365Y-119938222D01*
X118017488Y-119950484D01*
X117850485Y-120117487D01*
X117850485Y-120117488D01*
X117850483Y-120117490D01*
X117790862Y-120199550D01*
X117711657Y-120308566D01*
X117604433Y-120519003D01*
X117531446Y-120743631D01*
X117494500Y-120976902D01*
X117494500Y-121213097D01*
X117531446Y-121446368D01*
X117604433Y-121670996D01*
X117695486Y-121849695D01*
X117711657Y-121881433D01*
X117850483Y-122072510D01*
X118017490Y-122239517D01*
X118208567Y-122378343D01*
X118307991Y-122429002D01*
X118419003Y-122485566D01*
X118419005Y-122485566D01*
X118419008Y-122485568D01*
X118509030Y-122514818D01*
X118643631Y-122558553D01*
X118876903Y-122595500D01*
X118876908Y-122595500D01*
X119113097Y-122595500D01*
X119346368Y-122558553D01*
X119382164Y-122546922D01*
X119570992Y-122485568D01*
X119781433Y-122378343D01*
X119972510Y-122239517D01*
X120139517Y-122072510D01*
X120267313Y-121896613D01*
X120322643Y-121853949D01*
X120367631Y-121845500D01*
X122732770Y-121845500D01*
X122799809Y-121865185D01*
X122820451Y-121881819D01*
X124726451Y-123787819D01*
X124759936Y-123849142D01*
X124754952Y-123918834D01*
X124713080Y-123974767D01*
X124647616Y-123999184D01*
X124638770Y-123999500D01*
X94624500Y-123999500D01*
X94557461Y-123979815D01*
X94511706Y-123927011D01*
X94500500Y-123875500D01*
X94500500Y-121972433D01*
X94520185Y-121905394D01*
X94572989Y-121859639D01*
X94642147Y-121849695D01*
X94705703Y-121878720D01*
X94724816Y-121899545D01*
X94850483Y-122072510D01*
X95017490Y-122239517D01*
X95208567Y-122378343D01*
X95307991Y-122429002D01*
X95419003Y-122485566D01*
X95419005Y-122485566D01*
X95419008Y-122485568D01*
X95509030Y-122514818D01*
X95643631Y-122558553D01*
X95876903Y-122595500D01*
X95876908Y-122595500D01*
X96113097Y-122595500D01*
X96346368Y-122558553D01*
X96382164Y-122546922D01*
X96570992Y-122485568D01*
X96781433Y-122378343D01*
X96972510Y-122239517D01*
X97139517Y-122072510D01*
X97271561Y-121890766D01*
X97326891Y-121848101D01*
X97396504Y-121842122D01*
X97458299Y-121874728D01*
X97479266Y-121901652D01*
X97521392Y-121974617D01*
X97661081Y-122156661D01*
X97661089Y-122156670D01*
X97823330Y-122318911D01*
X97823338Y-122318918D01*
X98005382Y-122458607D01*
X98005385Y-122458608D01*
X98005388Y-122458611D01*
X98204112Y-122573344D01*
X98204117Y-122573346D01*
X98204123Y-122573349D01*
X98235052Y-122586160D01*
X98416113Y-122661158D01*
X98637762Y-122720548D01*
X98865266Y-122750500D01*
X98865273Y-122750500D01*
X99094727Y-122750500D01*
X99094734Y-122750500D01*
X99322238Y-122720548D01*
X99543887Y-122661158D01*
X99755888Y-122573344D01*
X99954612Y-122458611D01*
X100136661Y-122318919D01*
X100136665Y-122318914D01*
X100136670Y-122318911D01*
X100298911Y-122156670D01*
X100298914Y-122156665D01*
X100298919Y-122156661D01*
X100438611Y-121974612D01*
X100553344Y-121775888D01*
X100641158Y-121563887D01*
X100700548Y-121342238D01*
X100730500Y-121114734D01*
X100730500Y-120885266D01*
X100700548Y-120657762D01*
X100641158Y-120436113D01*
X100584581Y-120299524D01*
X100553349Y-120224123D01*
X100553346Y-120224117D01*
X100553344Y-120224112D01*
X100438611Y-120025388D01*
X100438608Y-120025385D01*
X100438607Y-120025382D01*
X100298918Y-119843338D01*
X100298911Y-119843330D01*
X100136670Y-119681089D01*
X100136661Y-119681081D01*
X99954617Y-119541392D01*
X99939236Y-119532512D01*
X99755888Y-119426656D01*
X99755876Y-119426650D01*
X99543887Y-119338842D01*
X99322238Y-119279452D01*
X99284215Y-119274446D01*
X99094741Y-119249500D01*
X99094734Y-119249500D01*
X98865266Y-119249500D01*
X98865258Y-119249500D01*
X98648715Y-119278009D01*
X98637762Y-119279452D01*
X98596123Y-119290609D01*
X98416112Y-119338842D01*
X98204123Y-119426650D01*
X98204109Y-119426657D01*
X98005382Y-119541392D01*
X97823338Y-119681081D01*
X97661081Y-119843338D01*
X97521392Y-120025382D01*
X97418142Y-120204217D01*
X97367575Y-120252433D01*
X97298968Y-120265655D01*
X97234103Y-120239687D01*
X97210437Y-120215103D01*
X97202528Y-120204217D01*
X97139517Y-120117490D01*
X96972510Y-119950483D01*
X96781433Y-119811657D01*
X96759291Y-119800375D01*
X96570996Y-119704433D01*
X96346368Y-119631446D01*
X96113097Y-119594500D01*
X96113092Y-119594500D01*
X95876908Y-119594500D01*
X95876903Y-119594500D01*
X95643631Y-119631446D01*
X95419003Y-119704433D01*
X95208566Y-119811657D01*
X95156307Y-119849626D01*
X95017490Y-119950483D01*
X95017488Y-119950485D01*
X95017487Y-119950485D01*
X94850485Y-120117487D01*
X94850485Y-120117488D01*
X94850483Y-120117490D01*
X94787472Y-120204217D01*
X94724818Y-120290452D01*
X94669488Y-120333117D01*
X94599874Y-120339096D01*
X94538079Y-120306490D01*
X94503722Y-120245651D01*
X94500500Y-120217566D01*
X94500500Y-107972433D01*
X94520185Y-107905394D01*
X94572989Y-107859639D01*
X94642147Y-107849695D01*
X94705703Y-107878720D01*
X94724816Y-107899545D01*
X94850483Y-108072510D01*
X95017490Y-108239517D01*
X95208567Y-108378343D01*
X95262421Y-108405783D01*
X95419003Y-108485566D01*
X95419005Y-108485566D01*
X95419008Y-108485568D01*
X95539412Y-108524689D01*
X95643631Y-108558553D01*
X95876903Y-108595500D01*
X95876908Y-108595500D01*
X96113097Y-108595500D01*
X96346368Y-108558553D01*
X96570992Y-108485568D01*
X96781433Y-108378343D01*
X96972510Y-108239517D01*
X97139517Y-108072510D01*
X97278343Y-107881433D01*
X97385568Y-107670992D01*
X97458553Y-107446368D01*
X97483637Y-107287993D01*
X97495500Y-107213097D01*
X97495500Y-106976902D01*
X97458553Y-106743631D01*
X97393581Y-106543669D01*
X97385568Y-106519008D01*
X97385566Y-106519005D01*
X97385566Y-106519003D01*
X97293898Y-106339096D01*
X97278343Y-106308567D01*
X97139517Y-106117490D01*
X96972510Y-105950483D01*
X96781433Y-105811657D01*
X96570996Y-105704433D01*
X96346368Y-105631446D01*
X96113097Y-105594500D01*
X96113092Y-105594500D01*
X95876908Y-105594500D01*
X95876903Y-105594500D01*
X95643631Y-105631446D01*
X95419003Y-105704433D01*
X95208566Y-105811657D01*
X95125047Y-105872338D01*
X95017490Y-105950483D01*
X95017488Y-105950485D01*
X95017487Y-105950485D01*
X94850485Y-106117487D01*
X94850485Y-106117488D01*
X94850483Y-106117490D01*
X94806724Y-106177719D01*
X94724818Y-106290452D01*
X94669488Y-106333117D01*
X94599874Y-106339096D01*
X94538079Y-106306490D01*
X94503722Y-106245651D01*
X94500500Y-106217566D01*
X94500500Y-91185258D01*
X97229500Y-91185258D01*
X97229500Y-91414741D01*
X97248214Y-91556877D01*
X97259452Y-91642238D01*
X97314610Y-91848091D01*
X97318842Y-91863887D01*
X97406650Y-92075876D01*
X97406657Y-92075890D01*
X97521392Y-92274617D01*
X97661081Y-92456661D01*
X97661089Y-92456670D01*
X97823330Y-92618911D01*
X97823338Y-92618918D01*
X98005382Y-92758607D01*
X98005385Y-92758608D01*
X98005388Y-92758611D01*
X98204112Y-92873344D01*
X98204117Y-92873346D01*
X98204123Y-92873349D01*
X98245689Y-92890566D01*
X98416113Y-92961158D01*
X98637762Y-93020548D01*
X98865266Y-93050500D01*
X98865273Y-93050500D01*
X99094727Y-93050500D01*
X99094734Y-93050500D01*
X99322238Y-93020548D01*
X99543887Y-92961158D01*
X99755888Y-92873344D01*
X99954612Y-92758611D01*
X100136661Y-92618919D01*
X100136665Y-92618914D01*
X100136670Y-92618911D01*
X100298911Y-92456670D01*
X100298914Y-92456665D01*
X100298919Y-92456661D01*
X100438611Y-92274612D01*
X100553344Y-92075888D01*
X100641158Y-91863887D01*
X100700548Y-91642238D01*
X100730500Y-91414734D01*
X100730500Y-91185266D01*
X100700548Y-90957762D01*
X100641158Y-90736113D01*
X100553344Y-90524112D01*
X100438611Y-90325388D01*
X100438608Y-90325385D01*
X100438607Y-90325382D01*
X100327468Y-90180544D01*
X100298919Y-90143339D01*
X100298918Y-90143338D01*
X100298911Y-90143330D01*
X100136670Y-89981089D01*
X100136665Y-89981085D01*
X100136661Y-89981081D01*
X100008009Y-89882362D01*
X99954617Y-89841392D01*
X99879693Y-89798135D01*
X109665500Y-89798135D01*
X109665500Y-91401870D01*
X109665501Y-91401876D01*
X109671908Y-91461483D01*
X109722202Y-91596328D01*
X109722206Y-91596335D01*
X109808452Y-91711544D01*
X109808455Y-91711547D01*
X109923664Y-91797793D01*
X109923671Y-91797797D01*
X110058517Y-91848091D01*
X110058516Y-91848091D01*
X110065444Y-91848835D01*
X110118127Y-91854500D01*
X111721872Y-91854499D01*
X111781483Y-91848091D01*
X111916331Y-91797796D01*
X112031546Y-91711546D01*
X112117796Y-91596331D01*
X112132511Y-91556879D01*
X112132858Y-91555949D01*
X112168091Y-91461482D01*
X112174500Y-91401873D01*
X112174499Y-91345723D01*
X112194182Y-91278687D01*
X112246986Y-91232931D01*
X112316144Y-91222987D01*
X112379700Y-91252011D01*
X112398817Y-91272839D01*
X112413457Y-91292988D01*
X112413457Y-91292989D01*
X112977037Y-90729409D01*
X112994075Y-90792993D01*
X113059901Y-90907007D01*
X113152993Y-91000099D01*
X113267007Y-91065925D01*
X113330590Y-91082962D01*
X112767009Y-91646541D01*
X112767010Y-91646542D01*
X112802755Y-91672512D01*
X112802768Y-91672520D01*
X112978626Y-91762126D01*
X113166353Y-91823123D01*
X113361303Y-91854000D01*
X113558697Y-91854000D01*
X113753646Y-91823123D01*
X113941373Y-91762126D01*
X114117241Y-91672516D01*
X114152988Y-91646543D01*
X114152988Y-91646541D01*
X113589410Y-91082962D01*
X113652993Y-91065925D01*
X113767007Y-91000099D01*
X113860099Y-90907007D01*
X113925925Y-90792993D01*
X113942962Y-90729409D01*
X114506541Y-91292988D01*
X114506543Y-91292988D01*
X114532516Y-91257241D01*
X114619235Y-91087046D01*
X114667210Y-91036250D01*
X114735031Y-91019455D01*
X114801165Y-91041992D01*
X114840202Y-91087042D01*
X114909470Y-91222987D01*
X114927058Y-91257505D01*
X115043115Y-91417246D01*
X115043121Y-91417252D01*
X115182748Y-91556879D01*
X115198382Y-91568237D01*
X115241049Y-91623564D01*
X115249500Y-91668557D01*
X115249500Y-99073918D01*
X115249500Y-99073920D01*
X115249499Y-99073920D01*
X115278340Y-99218907D01*
X115278343Y-99218917D01*
X115334914Y-99355492D01*
X115367812Y-99404727D01*
X115367813Y-99404730D01*
X115417046Y-99478414D01*
X115417052Y-99478421D01*
X119417049Y-103478416D01*
X119483138Y-103544505D01*
X119521585Y-103582952D01*
X119644498Y-103665080D01*
X119644511Y-103665087D01*
X119781082Y-103721656D01*
X119781087Y-103721658D01*
X119781091Y-103721658D01*
X119781092Y-103721659D01*
X119926079Y-103750500D01*
X119926082Y-103750500D01*
X156637770Y-103750500D01*
X156704809Y-103770185D01*
X156725451Y-103786819D01*
X157573181Y-104634548D01*
X157606666Y-104695871D01*
X157609500Y-104722229D01*
X157609500Y-105418142D01*
X157589815Y-105485181D01*
X157573182Y-105505823D01*
X157464134Y-105614871D01*
X157355479Y-105764424D01*
X157271547Y-105929147D01*
X157271546Y-105929150D01*
X157214420Y-106104969D01*
X157212473Y-106117263D01*
X157182543Y-106180397D01*
X157123231Y-106217328D01*
X157053369Y-106216330D01*
X156995136Y-106177719D01*
X156967527Y-106117263D01*
X156967192Y-106115150D01*
X156965580Y-106104971D01*
X156908452Y-105929148D01*
X156908452Y-105929147D01*
X156848806Y-105812087D01*
X156824523Y-105764428D01*
X156810639Y-105745318D01*
X156715864Y-105614870D01*
X156715860Y-105614865D01*
X156585134Y-105484139D01*
X156585129Y-105484135D01*
X156435575Y-105375479D01*
X156435574Y-105375478D01*
X156435572Y-105375477D01*
X156382799Y-105348588D01*
X156270852Y-105291547D01*
X156270849Y-105291546D01*
X156095030Y-105234419D01*
X155912440Y-105205500D01*
X155912435Y-105205500D01*
X155727565Y-105205500D01*
X155727560Y-105205500D01*
X155544969Y-105234419D01*
X155369150Y-105291546D01*
X155369147Y-105291547D01*
X155204424Y-105375479D01*
X155054870Y-105484135D01*
X155054865Y-105484139D01*
X154924139Y-105614865D01*
X154924135Y-105614870D01*
X154815479Y-105764424D01*
X154731547Y-105929147D01*
X154731546Y-105929150D01*
X154674420Y-106104969D01*
X154672473Y-106117263D01*
X154642543Y-106180397D01*
X154583231Y-106217328D01*
X154513369Y-106216330D01*
X154455136Y-106177719D01*
X154427527Y-106117263D01*
X154427192Y-106115150D01*
X154425580Y-106104971D01*
X154368452Y-105929148D01*
X154368452Y-105929147D01*
X154308806Y-105812087D01*
X154284523Y-105764428D01*
X154270639Y-105745318D01*
X154175864Y-105614870D01*
X154175860Y-105614865D01*
X154045134Y-105484139D01*
X154045129Y-105484135D01*
X153895575Y-105375479D01*
X153895574Y-105375478D01*
X153895572Y-105375477D01*
X153842799Y-105348588D01*
X153730852Y-105291547D01*
X153730849Y-105291546D01*
X153555030Y-105234419D01*
X153372440Y-105205500D01*
X153372435Y-105205500D01*
X153187565Y-105205500D01*
X153187560Y-105205500D01*
X153004969Y-105234419D01*
X152829150Y-105291546D01*
X152829147Y-105291547D01*
X152664424Y-105375479D01*
X152514870Y-105484135D01*
X152514865Y-105484139D01*
X152384139Y-105614865D01*
X152384135Y-105614870D01*
X152275479Y-105764424D01*
X152191547Y-105929147D01*
X152191546Y-105929150D01*
X152134420Y-106104969D01*
X152132473Y-106117263D01*
X152102543Y-106180397D01*
X152043231Y-106217328D01*
X151973369Y-106216330D01*
X151915136Y-106177719D01*
X151887527Y-106117263D01*
X151887192Y-106115150D01*
X151885580Y-106104971D01*
X151828452Y-105929148D01*
X151828452Y-105929147D01*
X151768806Y-105812087D01*
X151744523Y-105764428D01*
X151730639Y-105745318D01*
X151635864Y-105614870D01*
X151635860Y-105614865D01*
X151505134Y-105484139D01*
X151505129Y-105484135D01*
X151355575Y-105375479D01*
X151355574Y-105375478D01*
X151355572Y-105375477D01*
X151302799Y-105348588D01*
X151190852Y-105291547D01*
X151190849Y-105291546D01*
X151015030Y-105234419D01*
X150832440Y-105205500D01*
X150832435Y-105205500D01*
X150647565Y-105205500D01*
X150647560Y-105205500D01*
X150464969Y-105234419D01*
X150289150Y-105291546D01*
X150289147Y-105291547D01*
X150124424Y-105375479D01*
X149974870Y-105484135D01*
X149974865Y-105484139D01*
X149844139Y-105614865D01*
X149844135Y-105614870D01*
X149735479Y-105764424D01*
X149651547Y-105929147D01*
X149651546Y-105929150D01*
X149594420Y-106104969D01*
X149592473Y-106117263D01*
X149562543Y-106180397D01*
X149503231Y-106217328D01*
X149433369Y-106216330D01*
X149375136Y-106177719D01*
X149347527Y-106117263D01*
X149347192Y-106115150D01*
X149345580Y-106104971D01*
X149288452Y-105929148D01*
X149288452Y-105929147D01*
X149228806Y-105812087D01*
X149204523Y-105764428D01*
X149190639Y-105745318D01*
X149095864Y-105614870D01*
X149095860Y-105614865D01*
X148965134Y-105484139D01*
X148965129Y-105484135D01*
X148815575Y-105375479D01*
X148815574Y-105375478D01*
X148815572Y-105375477D01*
X148762799Y-105348588D01*
X148650852Y-105291547D01*
X148650849Y-105291546D01*
X148475030Y-105234419D01*
X148292440Y-105205500D01*
X148292435Y-105205500D01*
X148107565Y-105205500D01*
X148107560Y-105205500D01*
X147924969Y-105234419D01*
X147749150Y-105291546D01*
X147749147Y-105291547D01*
X147584424Y-105375479D01*
X147434870Y-105484135D01*
X147434865Y-105484139D01*
X147304139Y-105614865D01*
X147304135Y-105614870D01*
X147195479Y-105764424D01*
X147111547Y-105929147D01*
X147111546Y-105929150D01*
X147054420Y-106104969D01*
X147052473Y-106117263D01*
X147022543Y-106180397D01*
X146963231Y-106217328D01*
X146893369Y-106216330D01*
X146835136Y-106177719D01*
X146807527Y-106117263D01*
X146807192Y-106115150D01*
X146805580Y-106104971D01*
X146748452Y-105929148D01*
X146748452Y-105929147D01*
X146688806Y-105812087D01*
X146664523Y-105764428D01*
X146650639Y-105745318D01*
X146555864Y-105614870D01*
X146555860Y-105614865D01*
X146425134Y-105484139D01*
X146425129Y-105484135D01*
X146275575Y-105375479D01*
X146275574Y-105375478D01*
X146275572Y-105375477D01*
X146222799Y-105348588D01*
X146110852Y-105291547D01*
X146110849Y-105291546D01*
X145935030Y-105234419D01*
X145752440Y-105205500D01*
X145752435Y-105205500D01*
X145567565Y-105205500D01*
X145567560Y-105205500D01*
X145384969Y-105234419D01*
X145209150Y-105291546D01*
X145209147Y-105291547D01*
X145044424Y-105375479D01*
X144894870Y-105484135D01*
X144894865Y-105484139D01*
X144764139Y-105614865D01*
X144764135Y-105614870D01*
X144655479Y-105764424D01*
X144571547Y-105929147D01*
X144571546Y-105929150D01*
X144514420Y-106104969D01*
X144512473Y-106117263D01*
X144482543Y-106180397D01*
X144423231Y-106217328D01*
X144353369Y-106216330D01*
X144295136Y-106177719D01*
X144267527Y-106117263D01*
X144267192Y-106115150D01*
X144265580Y-106104971D01*
X144208452Y-105929148D01*
X144208452Y-105929147D01*
X144148806Y-105812087D01*
X144124523Y-105764428D01*
X144110639Y-105745318D01*
X144015864Y-105614870D01*
X144015860Y-105614865D01*
X143885134Y-105484139D01*
X143885129Y-105484135D01*
X143735575Y-105375479D01*
X143735574Y-105375478D01*
X143735572Y-105375477D01*
X143682799Y-105348588D01*
X143570852Y-105291547D01*
X143570849Y-105291546D01*
X143395030Y-105234419D01*
X143212440Y-105205500D01*
X143212435Y-105205500D01*
X143027565Y-105205500D01*
X143027560Y-105205500D01*
X142844969Y-105234419D01*
X142669150Y-105291546D01*
X142669147Y-105291547D01*
X142504424Y-105375479D01*
X142354870Y-105484135D01*
X142354865Y-105484139D01*
X142224139Y-105614865D01*
X142224135Y-105614870D01*
X142115479Y-105764424D01*
X142031547Y-105929147D01*
X142031546Y-105929150D01*
X141974419Y-106104969D01*
X141945500Y-106287559D01*
X141945500Y-106472440D01*
X141974419Y-106655030D01*
X142031546Y-106830849D01*
X142031547Y-106830852D01*
X142067803Y-106902007D01*
X142105967Y-106976908D01*
X142115479Y-106995575D01*
X142224135Y-107145129D01*
X142224139Y-107145134D01*
X142354865Y-107275860D01*
X142354870Y-107275864D01*
X142485318Y-107370639D01*
X142504428Y-107384523D01*
X142612106Y-107439388D01*
X142669147Y-107468452D01*
X142669150Y-107468453D01*
X142844969Y-107525580D01*
X143027560Y-107554500D01*
X143027565Y-107554500D01*
X143212440Y-107554500D01*
X143395030Y-107525580D01*
X143570849Y-107468453D01*
X143570852Y-107468452D01*
X143735572Y-107384523D01*
X143885136Y-107275859D01*
X144015859Y-107145136D01*
X144124523Y-106995572D01*
X144208452Y-106830852D01*
X144265580Y-106655029D01*
X144267527Y-106642737D01*
X144297456Y-106579602D01*
X144356768Y-106542671D01*
X144426630Y-106543669D01*
X144484863Y-106582279D01*
X144512473Y-106642737D01*
X144514420Y-106655030D01*
X144571546Y-106830849D01*
X144571547Y-106830852D01*
X144607803Y-106902007D01*
X144645967Y-106976908D01*
X144655479Y-106995575D01*
X144764135Y-107145129D01*
X144764139Y-107145134D01*
X144894865Y-107275860D01*
X144894870Y-107275864D01*
X145025318Y-107370639D01*
X145044428Y-107384523D01*
X145152106Y-107439388D01*
X145209147Y-107468452D01*
X145209150Y-107468453D01*
X145384969Y-107525580D01*
X145567560Y-107554500D01*
X145567565Y-107554500D01*
X145752440Y-107554500D01*
X145935030Y-107525580D01*
X146110849Y-107468453D01*
X146110852Y-107468452D01*
X146275572Y-107384523D01*
X146425136Y-107275859D01*
X146555859Y-107145136D01*
X146664523Y-106995572D01*
X146748452Y-106830852D01*
X146805580Y-106655029D01*
X146807527Y-106642737D01*
X146837456Y-106579602D01*
X146896768Y-106542671D01*
X146966630Y-106543669D01*
X147024863Y-106582279D01*
X147052473Y-106642737D01*
X147054420Y-106655030D01*
X147111546Y-106830849D01*
X147111547Y-106830852D01*
X147147803Y-106902007D01*
X147185967Y-106976908D01*
X147195479Y-106995575D01*
X147304135Y-107145129D01*
X147304139Y-107145134D01*
X147434865Y-107275860D01*
X147434870Y-107275864D01*
X147565318Y-107370639D01*
X147584428Y-107384523D01*
X147692106Y-107439388D01*
X147749147Y-107468452D01*
X147749150Y-107468453D01*
X147924969Y-107525580D01*
X148107560Y-107554500D01*
X148107565Y-107554500D01*
X148292440Y-107554500D01*
X148475030Y-107525580D01*
X148650849Y-107468453D01*
X148650852Y-107468452D01*
X148815572Y-107384523D01*
X148965136Y-107275859D01*
X149095859Y-107145136D01*
X149204523Y-106995572D01*
X149288452Y-106830852D01*
X149345580Y-106655029D01*
X149347527Y-106642737D01*
X149377456Y-106579602D01*
X149436768Y-106542671D01*
X149506630Y-106543669D01*
X149564863Y-106582279D01*
X149592473Y-106642737D01*
X149594420Y-106655030D01*
X149651546Y-106830849D01*
X149651547Y-106830852D01*
X149687803Y-106902007D01*
X149725967Y-106976908D01*
X149735479Y-106995575D01*
X149844135Y-107145129D01*
X149844139Y-107145134D01*
X149974865Y-107275860D01*
X149974870Y-107275864D01*
X150105318Y-107370639D01*
X150124428Y-107384523D01*
X150232106Y-107439388D01*
X150289147Y-107468452D01*
X150289150Y-107468453D01*
X150464969Y-107525580D01*
X150647560Y-107554500D01*
X150647565Y-107554500D01*
X150832440Y-107554500D01*
X151015030Y-107525580D01*
X151190849Y-107468453D01*
X151190852Y-107468452D01*
X151355572Y-107384523D01*
X151505136Y-107275859D01*
X151635859Y-107145136D01*
X151744523Y-106995572D01*
X151828452Y-106830852D01*
X151885580Y-106655029D01*
X151887527Y-106642737D01*
X151917456Y-106579602D01*
X151976768Y-106542671D01*
X152046630Y-106543669D01*
X152104863Y-106582279D01*
X152132473Y-106642737D01*
X152134420Y-106655030D01*
X152191546Y-106830849D01*
X152191547Y-106830852D01*
X152227803Y-106902007D01*
X152265967Y-106976908D01*
X152275479Y-106995575D01*
X152384135Y-107145129D01*
X152384139Y-107145134D01*
X152514865Y-107275860D01*
X152514870Y-107275864D01*
X152645318Y-107370639D01*
X152664428Y-107384523D01*
X152772106Y-107439388D01*
X152829147Y-107468452D01*
X152829150Y-107468453D01*
X153004969Y-107525580D01*
X153187560Y-107554500D01*
X153187565Y-107554500D01*
X153372440Y-107554500D01*
X153555030Y-107525580D01*
X153730849Y-107468453D01*
X153730852Y-107468452D01*
X153895572Y-107384523D01*
X154045136Y-107275859D01*
X154175859Y-107145136D01*
X154284523Y-106995572D01*
X154368452Y-106830852D01*
X154425580Y-106655029D01*
X154427527Y-106642737D01*
X154457456Y-106579602D01*
X154516768Y-106542671D01*
X154586630Y-106543669D01*
X154644863Y-106582279D01*
X154672473Y-106642737D01*
X154674420Y-106655030D01*
X154731546Y-106830849D01*
X154731547Y-106830852D01*
X154767803Y-106902007D01*
X154805967Y-106976908D01*
X154815479Y-106995575D01*
X154924135Y-107145129D01*
X154924139Y-107145134D01*
X155054865Y-107275860D01*
X155054870Y-107275864D01*
X155185318Y-107370639D01*
X155204428Y-107384523D01*
X155312106Y-107439388D01*
X155369147Y-107468452D01*
X155369150Y-107468453D01*
X155544969Y-107525580D01*
X155727560Y-107554500D01*
X155727565Y-107554500D01*
X155912440Y-107554500D01*
X156095030Y-107525580D01*
X156270849Y-107468453D01*
X156270852Y-107468452D01*
X156435572Y-107384523D01*
X156585136Y-107275859D01*
X156715859Y-107145136D01*
X156824523Y-106995572D01*
X156908452Y-106830852D01*
X156965580Y-106655029D01*
X156967527Y-106642737D01*
X156997456Y-106579602D01*
X157056768Y-106542671D01*
X157126630Y-106543669D01*
X157184863Y-106582279D01*
X157212473Y-106642737D01*
X157214420Y-106655030D01*
X157271546Y-106830849D01*
X157271547Y-106830852D01*
X157307803Y-106902007D01*
X157345967Y-106976908D01*
X157355479Y-106995575D01*
X157464135Y-107145129D01*
X157464139Y-107145134D01*
X157594865Y-107275860D01*
X157594870Y-107275864D01*
X157725318Y-107370639D01*
X157744428Y-107384523D01*
X157852106Y-107439388D01*
X157909147Y-107468452D01*
X157909150Y-107468453D01*
X158084969Y-107525580D01*
X158267560Y-107554500D01*
X158267565Y-107554500D01*
X158452440Y-107554500D01*
X158635030Y-107525580D01*
X158810849Y-107468453D01*
X158810852Y-107468452D01*
X158975572Y-107384523D01*
X159125136Y-107275859D01*
X159255859Y-107145136D01*
X159364523Y-106995572D01*
X159448452Y-106830852D01*
X159505580Y-106655029D01*
X159507527Y-106642737D01*
X159537456Y-106579602D01*
X159596768Y-106542671D01*
X159666630Y-106543669D01*
X159724863Y-106582279D01*
X159752473Y-106642737D01*
X159754420Y-106655030D01*
X159811546Y-106830849D01*
X159811547Y-106830852D01*
X159847803Y-106902007D01*
X159885967Y-106976908D01*
X159895479Y-106995575D01*
X160004135Y-107145129D01*
X160004139Y-107145134D01*
X160134865Y-107275860D01*
X160134870Y-107275864D01*
X160265318Y-107370639D01*
X160284428Y-107384523D01*
X160392106Y-107439388D01*
X160449147Y-107468452D01*
X160449150Y-107468453D01*
X160624969Y-107525580D01*
X160807560Y-107554500D01*
X160807565Y-107554500D01*
X160992440Y-107554500D01*
X161175030Y-107525580D01*
X161350849Y-107468453D01*
X161350852Y-107468452D01*
X161515572Y-107384523D01*
X161665136Y-107275859D01*
X161795859Y-107145136D01*
X161904523Y-106995572D01*
X161988452Y-106830852D01*
X162002378Y-106787993D01*
X162045580Y-106655030D01*
X162074500Y-106472440D01*
X162074500Y-106287559D01*
X162045580Y-106104969D01*
X161988453Y-105929150D01*
X161988452Y-105929147D01*
X161928806Y-105812087D01*
X161904523Y-105764428D01*
X161894404Y-105750501D01*
X161795865Y-105614871D01*
X161795861Y-105614867D01*
X161795859Y-105614864D01*
X161686818Y-105505823D01*
X161653334Y-105444500D01*
X161650500Y-105418142D01*
X161650500Y-103826079D01*
X161621659Y-103681092D01*
X161621658Y-103681091D01*
X161621658Y-103681087D01*
X161565084Y-103544505D01*
X161520925Y-103478416D01*
X161520924Y-103478414D01*
X161520923Y-103478412D01*
X161482955Y-103421589D01*
X161482952Y-103421584D01*
X160504539Y-102443171D01*
X159478421Y-101417052D01*
X159478414Y-101417046D01*
X159404729Y-101367812D01*
X159404729Y-101367813D01*
X159355491Y-101334913D01*
X159218917Y-101278343D01*
X159218907Y-101278340D01*
X159073920Y-101249500D01*
X159073918Y-101249500D01*
X151940103Y-101249500D01*
X151873064Y-101229815D01*
X151827309Y-101177011D01*
X151817365Y-101107853D01*
X151846390Y-101044297D01*
X151865792Y-101026234D01*
X151925240Y-100981730D01*
X151957546Y-100957546D01*
X152043796Y-100842331D01*
X152094091Y-100707483D01*
X152100500Y-100647873D01*
X152100499Y-98552128D01*
X152094091Y-98492517D01*
X152043796Y-98357669D01*
X152043795Y-98357668D01*
X152043793Y-98357664D01*
X151957547Y-98242455D01*
X151957544Y-98242452D01*
X151842335Y-98156206D01*
X151842328Y-98156202D01*
X151707482Y-98105908D01*
X151707483Y-98105908D01*
X151647883Y-98099501D01*
X151647881Y-98099500D01*
X151647873Y-98099500D01*
X151647864Y-98099500D01*
X148352129Y-98099500D01*
X148352123Y-98099501D01*
X148292516Y-98105908D01*
X148157671Y-98156202D01*
X148157664Y-98156206D01*
X148042455Y-98242452D01*
X148042452Y-98242455D01*
X147956206Y-98357664D01*
X147956202Y-98357671D01*
X147905908Y-98492517D01*
X147899501Y-98552116D01*
X147899501Y-98552123D01*
X147899500Y-98552135D01*
X147899500Y-100538770D01*
X147879815Y-100605809D01*
X147827011Y-100651564D01*
X147757853Y-100661508D01*
X147694297Y-100632483D01*
X147687819Y-100626451D01*
X147478421Y-100417052D01*
X147478414Y-100417046D01*
X147404729Y-100367812D01*
X147404729Y-100367813D01*
X147355491Y-100334913D01*
X147218917Y-100278343D01*
X147218907Y-100278340D01*
X147073920Y-100249500D01*
X147073918Y-100249500D01*
X121362229Y-100249500D01*
X121295190Y-100229815D01*
X121274548Y-100213181D01*
X119326819Y-98265451D01*
X119293334Y-98204128D01*
X119290500Y-98177770D01*
X119290500Y-96381947D01*
X141500000Y-96381947D01*
X141500000Y-96618052D01*
X141536934Y-96851247D01*
X141609897Y-97075802D01*
X141717087Y-97286174D01*
X141777338Y-97369104D01*
X141777340Y-97369105D01*
X142517037Y-96629408D01*
X142534075Y-96692993D01*
X142599901Y-96807007D01*
X142692993Y-96900099D01*
X142807007Y-96965925D01*
X142870590Y-96982962D01*
X142130893Y-97722658D01*
X142213828Y-97782914D01*
X142424197Y-97890102D01*
X142648752Y-97963065D01*
X142648751Y-97963065D01*
X142881948Y-98000000D01*
X143118052Y-98000000D01*
X143351247Y-97963065D01*
X143575802Y-97890102D01*
X143786163Y-97782918D01*
X143786169Y-97782914D01*
X143869104Y-97722658D01*
X143869105Y-97722658D01*
X143129408Y-96982962D01*
X143192993Y-96965925D01*
X143307007Y-96900099D01*
X143400099Y-96807007D01*
X143465925Y-96692993D01*
X143482962Y-96629409D01*
X144222658Y-97369105D01*
X144222658Y-97369104D01*
X144282914Y-97286169D01*
X144282918Y-97286163D01*
X144390102Y-97075802D01*
X144463065Y-96851247D01*
X144500000Y-96618052D01*
X144500000Y-96381947D01*
X144463065Y-96148752D01*
X144390102Y-95924197D01*
X144282914Y-95713828D01*
X144222658Y-95630894D01*
X144222658Y-95630893D01*
X143482962Y-96370590D01*
X143465925Y-96307007D01*
X143400099Y-96192993D01*
X143307007Y-96099901D01*
X143192993Y-96034075D01*
X143129409Y-96017037D01*
X143869105Y-95277340D01*
X143869104Y-95277338D01*
X143786174Y-95217087D01*
X143575802Y-95109897D01*
X143351247Y-95036934D01*
X143351248Y-95036934D01*
X143118052Y-95000000D01*
X142881948Y-95000000D01*
X142648752Y-95036934D01*
X142424197Y-95109897D01*
X142213830Y-95217084D01*
X142130894Y-95277340D01*
X142870591Y-96017037D01*
X142807007Y-96034075D01*
X142692993Y-96099901D01*
X142599901Y-96192993D01*
X142534075Y-96307007D01*
X142517037Y-96370591D01*
X141777340Y-95630894D01*
X141717084Y-95713830D01*
X141609897Y-95924197D01*
X141536934Y-96148752D01*
X141500000Y-96381947D01*
X119290500Y-96381947D01*
X119290500Y-93897648D01*
X148699500Y-93897648D01*
X148699500Y-94102352D01*
X148701915Y-94117597D01*
X148731522Y-94304534D01*
X148794781Y-94499223D01*
X148887715Y-94681613D01*
X149008028Y-94847213D01*
X149152786Y-94991971D01*
X149307749Y-95104556D01*
X149318390Y-95112287D01*
X149434607Y-95171503D01*
X149500776Y-95205218D01*
X149500778Y-95205218D01*
X149500781Y-95205220D01*
X149605137Y-95239127D01*
X149695465Y-95268477D01*
X149796557Y-95284488D01*
X149897648Y-95300500D01*
X149897649Y-95300500D01*
X150102351Y-95300500D01*
X150102352Y-95300500D01*
X150304534Y-95268477D01*
X150499219Y-95205220D01*
X150681610Y-95112287D01*
X150822217Y-95010131D01*
X150847213Y-94991971D01*
X150847215Y-94991968D01*
X150847219Y-94991966D01*
X150991966Y-94847219D01*
X150991968Y-94847215D01*
X150991971Y-94847213D01*
X151044732Y-94774590D01*
X151112287Y-94681610D01*
X151205220Y-94499219D01*
X151268477Y-94304534D01*
X151300500Y-94102352D01*
X151300500Y-93897648D01*
X151300323Y-93896530D01*
X153149500Y-93896530D01*
X153149500Y-94103469D01*
X153189868Y-94306412D01*
X153189870Y-94306420D01*
X153269058Y-94497596D01*
X153384024Y-94669657D01*
X153530342Y-94815975D01*
X153530345Y-94815977D01*
X153702402Y-94930941D01*
X153893580Y-95010130D01*
X154028334Y-95036934D01*
X154096530Y-95050499D01*
X154096534Y-95050500D01*
X154096535Y-95050500D01*
X154903466Y-95050500D01*
X154903467Y-95050499D01*
X155106420Y-95010130D01*
X155297598Y-94930941D01*
X155469655Y-94815977D01*
X155615977Y-94669655D01*
X155730941Y-94497598D01*
X155744061Y-94465925D01*
X155753892Y-94442188D01*
X155800856Y-94328808D01*
X155844696Y-94274406D01*
X155910990Y-94252341D01*
X155978689Y-94269620D01*
X156026300Y-94320757D01*
X156035988Y-94347307D01*
X156036934Y-94351248D01*
X156109897Y-94575802D01*
X156217087Y-94786174D01*
X156286605Y-94881858D01*
X156310085Y-94947664D01*
X156294260Y-95015718D01*
X156260599Y-95054009D01*
X156142452Y-95142455D01*
X156056206Y-95257664D01*
X156056202Y-95257671D01*
X156005908Y-95392517D01*
X155999501Y-95452116D01*
X155999501Y-95452123D01*
X155999500Y-95452135D01*
X155999500Y-97547870D01*
X155999501Y-97547876D01*
X156005908Y-97607483D01*
X156056202Y-97742328D01*
X156056206Y-97742335D01*
X156142452Y-97857544D01*
X156142455Y-97857547D01*
X156257664Y-97943793D01*
X156257671Y-97943797D01*
X156392517Y-97994091D01*
X156392516Y-97994091D01*
X156399444Y-97994835D01*
X156452127Y-98000500D01*
X158547872Y-98000499D01*
X158607483Y-97994091D01*
X158742331Y-97943796D01*
X158857546Y-97857546D01*
X158943796Y-97742331D01*
X158994091Y-97607483D01*
X159000500Y-97547873D01*
X159000499Y-95452128D01*
X158994091Y-95392517D01*
X158943796Y-95257669D01*
X158943795Y-95257668D01*
X158943793Y-95257664D01*
X158857547Y-95142455D01*
X158739400Y-95054009D01*
X158697530Y-94998075D01*
X158692546Y-94928383D01*
X158713394Y-94881857D01*
X158782914Y-94786171D01*
X158890102Y-94575802D01*
X158963065Y-94351247D01*
X159000000Y-94118052D01*
X159000000Y-93881947D01*
X158963065Y-93648752D01*
X158890102Y-93424197D01*
X158782914Y-93213828D01*
X158722658Y-93130894D01*
X158722658Y-93130893D01*
X157982962Y-93870589D01*
X157965925Y-93807007D01*
X157900099Y-93692993D01*
X157807007Y-93599901D01*
X157692993Y-93534075D01*
X157629409Y-93517037D01*
X158375716Y-92770729D01*
X158384891Y-92727054D01*
X158421257Y-92685386D01*
X158477510Y-92644517D01*
X158644517Y-92477510D01*
X158783343Y-92286433D01*
X158890568Y-92075992D01*
X158963553Y-91851368D01*
X158972038Y-91797796D01*
X159000500Y-91618097D01*
X159000500Y-91381902D01*
X158963553Y-91148631D01*
X158921581Y-91019455D01*
X158890568Y-90924008D01*
X158890566Y-90924005D01*
X158890566Y-90924003D01*
X158834002Y-90812991D01*
X158783343Y-90713567D01*
X158644517Y-90522490D01*
X158477510Y-90355483D01*
X158286433Y-90216657D01*
X158075996Y-90109433D01*
X157851368Y-90036446D01*
X157618097Y-89999500D01*
X157618092Y-89999500D01*
X157381908Y-89999500D01*
X157381903Y-89999500D01*
X157148631Y-90036446D01*
X156924003Y-90109433D01*
X156713566Y-90216657D01*
X156608500Y-90292993D01*
X156522490Y-90355483D01*
X156522488Y-90355485D01*
X156522487Y-90355485D01*
X156355485Y-90522487D01*
X156355485Y-90522488D01*
X156355483Y-90522490D01*
X156299169Y-90599999D01*
X156216657Y-90713566D01*
X156109433Y-90924003D01*
X156036446Y-91148631D01*
X155999500Y-91381902D01*
X155999500Y-91618097D01*
X156036446Y-91851368D01*
X156109433Y-92075996D01*
X156210634Y-92274612D01*
X156216657Y-92286433D01*
X156355483Y-92477510D01*
X156522490Y-92644517D01*
X156578739Y-92685384D01*
X156621403Y-92740713D01*
X156626095Y-92772542D01*
X157370591Y-93517037D01*
X157307007Y-93534075D01*
X157192993Y-93599901D01*
X157099901Y-93692993D01*
X157034075Y-93807007D01*
X157017037Y-93870591D01*
X156277340Y-93130894D01*
X156217084Y-93213830D01*
X156109897Y-93424197D01*
X156036932Y-93648756D01*
X156035987Y-93652695D01*
X156001191Y-93713284D01*
X155939162Y-93745442D01*
X155869594Y-93738960D01*
X155814574Y-93695895D01*
X155800855Y-93671189D01*
X155791561Y-93648752D01*
X155771327Y-93599901D01*
X155730943Y-93502405D01*
X155615975Y-93330342D01*
X155469657Y-93184024D01*
X155383626Y-93126541D01*
X155297598Y-93069059D01*
X155252790Y-93050499D01*
X155106420Y-92989870D01*
X155106412Y-92989868D01*
X154903469Y-92949500D01*
X154903465Y-92949500D01*
X154096535Y-92949500D01*
X154096530Y-92949500D01*
X153893587Y-92989868D01*
X153893579Y-92989870D01*
X153702403Y-93069058D01*
X153530342Y-93184024D01*
X153384024Y-93330342D01*
X153269058Y-93502403D01*
X153189870Y-93693579D01*
X153189868Y-93693587D01*
X153149500Y-93896530D01*
X151300323Y-93896530D01*
X151268477Y-93695466D01*
X151267866Y-93693587D01*
X151216038Y-93534075D01*
X151205220Y-93500781D01*
X151205218Y-93500778D01*
X151205218Y-93500776D01*
X151118378Y-93330345D01*
X151112287Y-93318390D01*
X151104556Y-93307749D01*
X150991971Y-93152786D01*
X150847213Y-93008028D01*
X150681613Y-92887715D01*
X150681612Y-92887714D01*
X150681610Y-92887713D01*
X150624653Y-92858691D01*
X150499223Y-92794781D01*
X150304534Y-92731522D01*
X150129995Y-92703878D01*
X150102352Y-92699500D01*
X149897648Y-92699500D01*
X149873329Y-92703351D01*
X149695465Y-92731522D01*
X149500776Y-92794781D01*
X149318386Y-92887715D01*
X149152786Y-93008028D01*
X149008028Y-93152786D01*
X148887715Y-93318386D01*
X148794781Y-93500776D01*
X148731522Y-93695465D01*
X148723607Y-93745442D01*
X148699500Y-93897648D01*
X119290500Y-93897648D01*
X119290500Y-91668557D01*
X119310185Y-91601518D01*
X119341616Y-91568238D01*
X119357252Y-91556879D01*
X119496879Y-91417252D01*
X119496881Y-91417248D01*
X119496884Y-91417246D01*
X119548845Y-91345727D01*
X119612944Y-91257501D01*
X119649754Y-91185258D01*
X128729500Y-91185258D01*
X128729500Y-91414741D01*
X128748214Y-91556877D01*
X128759452Y-91642238D01*
X128814610Y-91848091D01*
X128818842Y-91863887D01*
X128906650Y-92075876D01*
X128906657Y-92075890D01*
X129021392Y-92274617D01*
X129161081Y-92456661D01*
X129161089Y-92456670D01*
X129323330Y-92618911D01*
X129323338Y-92618918D01*
X129505382Y-92758607D01*
X129505385Y-92758608D01*
X129505388Y-92758611D01*
X129704112Y-92873344D01*
X129704117Y-92873346D01*
X129704123Y-92873349D01*
X129745689Y-92890566D01*
X129916113Y-92961158D01*
X130137762Y-93020548D01*
X130365266Y-93050500D01*
X130365273Y-93050500D01*
X130594727Y-93050500D01*
X130594734Y-93050500D01*
X130822238Y-93020548D01*
X131043887Y-92961158D01*
X131255888Y-92873344D01*
X131454612Y-92758611D01*
X131636661Y-92618919D01*
X131636665Y-92618914D01*
X131636670Y-92618911D01*
X131798911Y-92456670D01*
X131798914Y-92456665D01*
X131798919Y-92456661D01*
X131938611Y-92274612D01*
X132053344Y-92075888D01*
X132141158Y-91863887D01*
X132200548Y-91642238D01*
X132230500Y-91414734D01*
X132230500Y-91381902D01*
X141499500Y-91381902D01*
X141499500Y-91618097D01*
X141536446Y-91851368D01*
X141609433Y-92075996D01*
X141710634Y-92274612D01*
X141716657Y-92286433D01*
X141855483Y-92477510D01*
X142022490Y-92644517D01*
X142213567Y-92783343D01*
X142312991Y-92834002D01*
X142424003Y-92890566D01*
X142424005Y-92890566D01*
X142424008Y-92890568D01*
X142544412Y-92929689D01*
X142648631Y-92963553D01*
X142881903Y-93000500D01*
X142881908Y-93000500D01*
X143118097Y-93000500D01*
X143351368Y-92963553D01*
X143358742Y-92961157D01*
X143575992Y-92890568D01*
X143786433Y-92783343D01*
X143977510Y-92644517D01*
X144144517Y-92477510D01*
X144283343Y-92286433D01*
X144390568Y-92075992D01*
X144463553Y-91851368D01*
X144472038Y-91797796D01*
X144500500Y-91618097D01*
X144500500Y-91381902D01*
X144463553Y-91148631D01*
X144421581Y-91019455D01*
X144390568Y-90924008D01*
X144390566Y-90924005D01*
X144390566Y-90924003D01*
X144334002Y-90812991D01*
X144283343Y-90713567D01*
X144144517Y-90522490D01*
X143977510Y-90355483D01*
X143786433Y-90216657D01*
X143575996Y-90109433D01*
X143351368Y-90036446D01*
X143118097Y-89999500D01*
X143118092Y-89999500D01*
X142881908Y-89999500D01*
X142881903Y-89999500D01*
X142648631Y-90036446D01*
X142424003Y-90109433D01*
X142213566Y-90216657D01*
X142108500Y-90292993D01*
X142022490Y-90355483D01*
X142022488Y-90355485D01*
X142022487Y-90355485D01*
X141855485Y-90522487D01*
X141855485Y-90522488D01*
X141855483Y-90522490D01*
X141799169Y-90599999D01*
X141716657Y-90713566D01*
X141609433Y-90924003D01*
X141536446Y-91148631D01*
X141499500Y-91381902D01*
X132230500Y-91381902D01*
X132230500Y-91185266D01*
X132200548Y-90957762D01*
X132141158Y-90736113D01*
X132053344Y-90524112D01*
X131938611Y-90325388D01*
X131938608Y-90325385D01*
X131938607Y-90325382D01*
X131827468Y-90180544D01*
X131798919Y-90143339D01*
X131798918Y-90143338D01*
X131798911Y-90143330D01*
X131636670Y-89981089D01*
X131636661Y-89981081D01*
X131454617Y-89841392D01*
X131379681Y-89798128D01*
X131353051Y-89782753D01*
X131255890Y-89726657D01*
X131255876Y-89726650D01*
X131043887Y-89638842D01*
X130822238Y-89579452D01*
X130784215Y-89574446D01*
X130594741Y-89549500D01*
X130594734Y-89549500D01*
X130365266Y-89549500D01*
X130365258Y-89549500D01*
X130148715Y-89578009D01*
X130137762Y-89579452D01*
X130047401Y-89603664D01*
X129916112Y-89638842D01*
X129704123Y-89726650D01*
X129704109Y-89726657D01*
X129505382Y-89841392D01*
X129323338Y-89981081D01*
X129161081Y-90143338D01*
X129021392Y-90325382D01*
X128906657Y-90524109D01*
X128906650Y-90524123D01*
X128818842Y-90736112D01*
X128759453Y-90957759D01*
X128759451Y-90957770D01*
X128729500Y-91185258D01*
X119649754Y-91185258D01*
X119702591Y-91081561D01*
X119763610Y-90893763D01*
X119794500Y-90698736D01*
X119794500Y-90501263D01*
X119763610Y-90306236D01*
X119710681Y-90143338D01*
X119702591Y-90118439D01*
X119612944Y-89942499D01*
X119582430Y-89900500D01*
X119496884Y-89782753D01*
X119357246Y-89643115D01*
X119197504Y-89527058D01*
X119197503Y-89527057D01*
X119197501Y-89527056D01*
X119021561Y-89437409D01*
X119021558Y-89437408D01*
X118833763Y-89376389D01*
X118638736Y-89345500D01*
X118638731Y-89345500D01*
X118441269Y-89345500D01*
X118441264Y-89345500D01*
X118246236Y-89376389D01*
X118058441Y-89437408D01*
X118058439Y-89437408D01*
X118058439Y-89437409D01*
X118037897Y-89447876D01*
X117882495Y-89527058D01*
X117722753Y-89643115D01*
X117583115Y-89782753D01*
X117467058Y-89942495D01*
X117467056Y-89942499D01*
X117381999Y-90109432D01*
X117380485Y-90112403D01*
X117332510Y-90163199D01*
X117264689Y-90179994D01*
X117198554Y-90157456D01*
X117159515Y-90112403D01*
X117158002Y-90109433D01*
X117072944Y-89942499D01*
X117042430Y-89900500D01*
X116956884Y-89782753D01*
X116817246Y-89643115D01*
X116657504Y-89527058D01*
X116657503Y-89527057D01*
X116657501Y-89527056D01*
X116481561Y-89437409D01*
X116481558Y-89437408D01*
X116293763Y-89376389D01*
X116098736Y-89345500D01*
X116098731Y-89345500D01*
X115901269Y-89345500D01*
X115901264Y-89345500D01*
X115706236Y-89376389D01*
X115518441Y-89437408D01*
X115518439Y-89437408D01*
X115518439Y-89437409D01*
X115497897Y-89447876D01*
X115342495Y-89527058D01*
X115182753Y-89643115D01*
X115043115Y-89782753D01*
X114927058Y-89942495D01*
X114927056Y-89942499D01*
X114840203Y-90112954D01*
X114792230Y-90163749D01*
X114724409Y-90180544D01*
X114658274Y-90158006D01*
X114619235Y-90112953D01*
X114532520Y-89942768D01*
X114532512Y-89942755D01*
X114506542Y-89907010D01*
X114506541Y-89907009D01*
X113942962Y-90470589D01*
X113925925Y-90407007D01*
X113860099Y-90292993D01*
X113767007Y-90199901D01*
X113652993Y-90134075D01*
X113589409Y-90117037D01*
X114152989Y-89553457D01*
X114117239Y-89527483D01*
X113941373Y-89437873D01*
X113753646Y-89376876D01*
X113558697Y-89346000D01*
X113361303Y-89346000D01*
X113166353Y-89376876D01*
X112978626Y-89437873D01*
X112802762Y-89527482D01*
X112802760Y-89527483D01*
X112767010Y-89553456D01*
X112767010Y-89553457D01*
X113330591Y-90117037D01*
X113267007Y-90134075D01*
X113152993Y-90199901D01*
X113059901Y-90292993D01*
X112994075Y-90407007D01*
X112977037Y-90470590D01*
X112413457Y-89907010D01*
X112413456Y-89907010D01*
X112398818Y-89927159D01*
X112343489Y-89969826D01*
X112273875Y-89975806D01*
X112212080Y-89943200D01*
X112177722Y-89882362D01*
X112174499Y-89854275D01*
X112174499Y-89798129D01*
X112174498Y-89798123D01*
X112174497Y-89798116D01*
X112168091Y-89738517D01*
X112132511Y-89643121D01*
X112117797Y-89603671D01*
X112117793Y-89603664D01*
X112031547Y-89488455D01*
X112031544Y-89488452D01*
X111916335Y-89402206D01*
X111916328Y-89402202D01*
X111781482Y-89351908D01*
X111781483Y-89351908D01*
X111721883Y-89345501D01*
X111721881Y-89345500D01*
X111721873Y-89345500D01*
X111721864Y-89345500D01*
X110118129Y-89345500D01*
X110118123Y-89345501D01*
X110058516Y-89351908D01*
X109923671Y-89402202D01*
X109923664Y-89402206D01*
X109808455Y-89488452D01*
X109808452Y-89488455D01*
X109722206Y-89603664D01*
X109722202Y-89603671D01*
X109671908Y-89738517D01*
X109667153Y-89782748D01*
X109665501Y-89798123D01*
X109665500Y-89798135D01*
X99879693Y-89798135D01*
X99879681Y-89798128D01*
X99853051Y-89782753D01*
X99755890Y-89726657D01*
X99755876Y-89726650D01*
X99543887Y-89638842D01*
X99322238Y-89579452D01*
X99284215Y-89574446D01*
X99094741Y-89549500D01*
X99094734Y-89549500D01*
X98865266Y-89549500D01*
X98865258Y-89549500D01*
X98648715Y-89578009D01*
X98637762Y-89579452D01*
X98547401Y-89603664D01*
X98416112Y-89638842D01*
X98204123Y-89726650D01*
X98204109Y-89726657D01*
X98005382Y-89841392D01*
X97823338Y-89981081D01*
X97661081Y-90143338D01*
X97521392Y-90325382D01*
X97406657Y-90524109D01*
X97406650Y-90524123D01*
X97318842Y-90736112D01*
X97259453Y-90957759D01*
X97259451Y-90957770D01*
X97229500Y-91185258D01*
X94500500Y-91185258D01*
X94500500Y-87124500D01*
X94520185Y-87057461D01*
X94572989Y-87011706D01*
X94624500Y-87000500D01*
X147836231Y-87000500D01*
X147865674Y-87009145D01*
G37*
%TD.AperFunction*%
%TA.AperFunction,Conductor*%
G36*
X157968622Y-121782114D02*
G01*
X158023916Y-121877886D01*
X158102114Y-121956084D01*
X158197886Y-122011378D01*
X158295909Y-122037643D01*
X157724283Y-122609268D01*
X157724283Y-122609269D01*
X157744686Y-122624092D01*
X157909338Y-122707986D01*
X158058858Y-122756569D01*
X158116534Y-122796007D01*
X158143732Y-122860365D01*
X158131817Y-122929212D01*
X158084573Y-122980687D01*
X158020540Y-122998500D01*
X156161081Y-122998500D01*
X156094042Y-122978815D01*
X156048287Y-122926011D01*
X156038343Y-122856853D01*
X156067368Y-122793297D01*
X156122763Y-122756569D01*
X156270849Y-122708453D01*
X156270852Y-122708452D01*
X156271767Y-122707986D01*
X156435572Y-122624523D01*
X156585136Y-122515859D01*
X156715859Y-122385136D01*
X156824523Y-122235572D01*
X156908452Y-122070852D01*
X156965580Y-121895029D01*
X156967780Y-121881137D01*
X156997708Y-121818005D01*
X157057019Y-121781073D01*
X157126882Y-121782069D01*
X157185115Y-121820678D01*
X157212726Y-121881136D01*
X157214907Y-121894910D01*
X157272014Y-122070664D01*
X157355900Y-122235303D01*
X157355903Y-122235307D01*
X157370730Y-122255715D01*
X157370730Y-122255716D01*
X157942356Y-121684090D01*
X157968622Y-121782114D01*
G37*
%TD.AperFunction*%
%TA.AperFunction,Conductor*%
G36*
X159349268Y-122255716D02*
G01*
X159349268Y-122255715D01*
X159364094Y-122235310D01*
X159447986Y-122070661D01*
X159505091Y-121894911D01*
X159507272Y-121881143D01*
X159537199Y-121818007D01*
X159596509Y-121781073D01*
X159666372Y-121782068D01*
X159724606Y-121820676D01*
X159752219Y-121881133D01*
X159752220Y-121881140D01*
X159754420Y-121895029D01*
X159754420Y-121895031D01*
X159754421Y-121895033D01*
X159811546Y-122070849D01*
X159811547Y-122070852D01*
X159895479Y-122235575D01*
X160004135Y-122385129D01*
X160004139Y-122385134D01*
X160113181Y-122494176D01*
X160127884Y-122521103D01*
X160144477Y-122546922D01*
X160145368Y-122553122D01*
X160146666Y-122555499D01*
X160149500Y-122581857D01*
X160149500Y-122737770D01*
X160129815Y-122804809D01*
X160113181Y-122825451D01*
X159976451Y-122962181D01*
X159915128Y-122995666D01*
X159888770Y-122998500D01*
X158699460Y-122998500D01*
X158632421Y-122978815D01*
X158586666Y-122926011D01*
X158576722Y-122856853D01*
X158605747Y-122793297D01*
X158661142Y-122756569D01*
X158810661Y-122707986D01*
X158975310Y-122624094D01*
X158995715Y-122609268D01*
X158995716Y-122609268D01*
X158424090Y-122037642D01*
X158522114Y-122011378D01*
X158617886Y-121956084D01*
X158696084Y-121877886D01*
X158751378Y-121782114D01*
X158777643Y-121684090D01*
X159349268Y-122255716D01*
G37*
%TD.AperFunction*%
%TD*%
M02*
